<svg width="117" height="117" viewBox="0 0 117 117" fill="none" xmlns="http://www.w3.org/2000/svg">
<path fill-rule="evenodd" clip-rule="evenodd" d="M114.896 54.6951C113.604 54.3444 112.411 54.6951 112.031 55.6972C111.694 56.6249 111.455 57.5853 111.319 58.5628C110.388 64.0921 108.681 69.4625 106.25 74.5149C102.474 82.9045 96.7516 90.2726 89.5586 96.008C86.4654 98.4267 83.1932 100.607 79.7703 102.531C75.0035 105.135 69.8142 106.875 64.4417 107.671L64.2618 107.7C60.3143 108.322 56.3654 108.944 52.3291 108.293C49.7527 107.941 47.2047 107.405 44.7047 106.689C39.5849 105.139 35.0479 102.089 31.6804 97.9318C29.336 95.016 28.1038 91.9199 28.7751 88.0822C29.1678 85.9507 30.1698 83.9786 31.6598 82.4048C33.1499 80.831 35.0641 79.7227 37.1708 79.2143C40.698 78.3938 43.9317 76.6189 46.5182 74.0839C48.4842 72.2036 50.138 70.022 51.4174 67.621C54.4731 61.9797 56.5268 56.098 56.106 49.5249C55.9 46.1627 54.8676 42.9031 53.1004 40.0356C49.1725 33.8315 47.027 26.6663 46.8989 19.3241V7.61068V4.66483H58.2802V17.4304C58.1608 20.3706 58.4988 23.3115 59.282 26.1479C59.9633 28.3423 61.7968 28.7331 63.4699 27.1499C64.8495 25.778 66.3009 24.4801 67.818 23.262C71.5939 20.3469 76.1007 18.5301 80.8423 18.0114C84.5074 17.5511 88.2263 17.7893 91.8028 18.713C95.2566 19.58 98.503 21.127 101.352 23.2639C104.201 25.4008 106.595 28.0845 108.394 31.1579C109.2 32.5018 109.826 33.9448 110.453 35.3902C110.761 36.1002 111.069 36.8108 111.399 37.5105C111.599 37.9707 111.964 38.3393 112.422 38.5434C112.881 38.7474 113.398 38.7722 113.874 38.6128C115.006 38.192 115.938 37.2301 115.507 35.9275C115.169 34.7662 114.764 33.6252 114.295 32.5105C112.181 27.8094 108.997 23.6679 104.997 20.4164C102.384 18.2596 99.4369 16.5436 96.2712 15.3361C91.2123 13.4447 85.771 12.8052 80.4115 13.4723C75.7345 14.0003 71.2393 15.587 67.2669 18.1117C66.4438 18.6377 65.6402 19.193 64.8023 19.7721L64.8022 19.7722C64.1715 20.208 63.5214 20.6573 62.8287 21.1178V18.4324V3.31201C62.9046 2.65449 62.7808 1.98934 62.4734 1.40316C62.1661 0.816974 61.6893 0.336883 61.1054 0.0253906H44.0736C43.5086 0.235122 43.0292 0.626216 42.7102 1.13749C42.3911 1.64876 42.2505 2.25143 42.3104 2.85113C42.3771 5.07356 42.3549 7.29155 42.3327 9.51693V9.51704V9.51715V9.51726V9.51736V9.51748V9.51762V9.51777V9.51792V9.51807V9.51823C42.3215 10.6335 42.3104 11.7507 42.3104 12.8712C42.3104 13.7229 42.287 14.5769 42.2636 15.4308V15.4309C42.2169 17.1387 42.1701 18.8465 42.3104 20.5365C42.5072 23.0754 42.8854 25.5969 43.4424 28.0817C44.4222 32.8325 46.2225 37.3763 48.7624 41.5088C50.046 43.4315 50.9376 45.5886 51.3863 47.8565C51.835 50.1244 51.8319 52.4585 51.3772 54.7252C50.0247 61.2583 47.6302 67.2202 42.3604 71.6491C40.1884 73.699 37.3312 74.867 34.3454 74.9257C33.4738 74.9257 32.6021 74.9157 31.7305 74.9056C29.9873 74.8856 28.244 74.8656 26.5008 74.9257C23.9774 74.9168 21.4587 75.1414 18.9767 75.597C10.7113 77.5008 5.11078 82.6112 2.17529 90.5371C1.76779 91.6375 1.4892 92.784 1.21156 93.9265C1.07965 94.4694 0.947948 95.0114 0.802734 95.5471V97.5512C0.905602 97.8191 0.976191 98.0981 1.01309 98.3827V113.784C0.976163 114.065 0.905563 114.341 0.802734 114.605V114.836C1.0031 115.369 1.37687 115.818 1.86392 116.113C2.35098 116.407 2.92303 116.529 3.48781 116.459C6.82738 116.412 10.167 116.428 13.5065 116.443C15.1763 116.451 16.8461 116.459 18.5159 116.459C20.3994 116.459 21.301 115.537 21.301 113.613C21.301 111.983 21.3077 110.354 21.3144 108.724V108.723C21.3277 105.463 21.3411 102.204 21.301 98.9438C21.301 96.6793 22.4933 95.0862 24.6474 95.5171C25.8482 97.5115 27.1627 99.4352 28.5846 101.279C31.8077 105.034 35.8627 107.984 40.4268 109.896C44.9978 111.855 49.9019 112.92 54.8738 113.032C56.597 113.032 58.3303 112.932 60.0435 112.812C61.5654 112.741 63.0813 112.574 64.582 112.311C67.0287 111.862 69.4446 111.26 71.8155 110.507C75.2422 109.428 78.5899 108.112 81.8342 106.569C85.6403 104.64 89.2162 102.287 92.4941 99.5552C96.4122 96.3422 99.9425 92.6835 103.014 88.6532C106.43 84.1204 109.267 79.1791 111.46 73.9437C113.702 68.4879 115.325 62.7977 116.299 56.9798C116.319 56.5025 116.197 56.0299 115.947 55.6228C115.697 55.2157 115.331 54.8926 114.896 54.6951ZM23.9761 90.5271C22.5409 91.0793 21.1421 91.7218 19.7882 92.4508C18.8532 93.021 18.0839 93.826 17.5566 94.7858C17.0293 95.7457 16.7624 96.8268 16.7826 97.9218C16.7359 101.023 16.7513 104.12 16.7669 107.236C16.7747 108.802 16.7826 110.372 16.7826 111.95H5.60174L5.41132 111.76C5.41132 110.066 5.38794 108.372 5.36455 106.679C5.31781 103.293 5.27108 99.9088 5.41132 96.5291C5.67733 92.9366 7.0533 89.5155 9.34874 86.7394C11.656 83.7835 14.7971 81.5879 18.3656 80.4367C20.7217 79.6513 23.2008 79.6724 25.7452 79.6941C26.4467 79.7001 27.1531 79.7061 27.8633 79.6953C25.337 82.7378 23.961 86.5722 23.9761 90.5271ZM107.011 39.1938C105.886 34.6149 103.21 30.5672 99.4364 27.7407C97.9599 26.6487 96.3833 25.6994 94.7276 24.9051C88.5681 22.0885 81.5847 21.6495 75.121 23.6727C71.3198 25.019 68.0014 27.4593 65.5832 30.6868C62.2959 34.8988 60.4642 40.064 60.3633 45.4062C60.3359 46.2009 60.3137 46.9976 60.2915 47.7948V47.7949V47.795V47.7951V47.7952V47.7952C60.2163 50.4963 60.1409 53.2036 59.8624 55.8571C59.6159 58.4567 59.0817 61.021 58.2694 63.5026C56.5545 68.8494 53.5147 73.6752 49.433 77.5308C46.4143 80.5002 42.6358 82.5803 38.5126 83.5428C37.4058 83.7552 36.371 84.2447 35.505 84.9658C34.6389 85.687 33.9699 86.6162 33.5605 87.6663C33.1512 88.7164 33.0149 89.853 33.1643 90.9701C33.3137 92.0872 33.744 93.1483 34.4149 94.0539C35.5445 95.5222 36.8274 96.8658 38.242 98.0619C42.8306 101.95 48.2608 103.593 54.2019 103.964C61.3521 104.087 68.4462 102.683 75.0107 99.8456C82.5018 96.4507 89.101 91.3599 94.2867 84.9756C97.823 80.6261 100.74 75.8073 102.953 70.6569C106.133 63.0984 107.912 55.0243 108.203 46.829C108.084 46.043 107.982 45.2472 107.881 44.4481V44.448C107.657 42.6901 107.431 40.9159 107.011 39.1938ZM102.612 55.9173C101.671 61.6118 99.8665 67.1295 97.2624 72.2802C95.3798 75.9322 93.1019 79.3662 90.4696 82.5207C86.8423 86.9216 82.4714 90.6522 77.5555 93.5429C73.3617 96.0972 68.7209 97.8312 63.8799 98.653C62.2711 98.8845 60.6587 99.1055 59.245 99.2993L59.243 99.2996L59.2381 99.3003C58.2688 99.4331 57.3932 99.5532 56.6765 99.655C50.6653 99.4646 45.9665 98.4026 41.9189 95.3164C40.532 94.2166 39.2778 92.959 38.1819 91.5689C37.0197 90.1461 37.6309 88.8032 39.4042 88.172C41.7062 87.4746 43.9532 86.6073 46.1268 85.5769C48.181 84.4126 50.1142 83.0464 51.8976 81.4987C55.4272 78.4638 58.2864 74.7272 60.2933 70.5267C62.0771 67.0604 63.3268 63.3444 64.0001 59.5046C64.1292 58.7449 64.2386 57.9828 64.3479 57.2218L64.3479 57.2217L64.3479 57.2216L64.3479 57.2216L64.3479 57.2215L64.3479 57.2214L64.3479 57.2212L64.348 57.2211L64.348 57.2209L64.348 57.2208L64.348 57.2206C64.4592 56.4463 64.5702 55.6732 64.7015 54.9053C64.7194 54.7619 64.768 54.6242 64.8441 54.5014C64.9202 54.3786 65.0219 54.2737 65.1423 54.1939C66.316 53.5493 67.5689 53.0609 68.8692 52.741C70.0794 52.5115 71.3273 52.5813 72.5043 52.9446C73.6813 53.3078 74.7516 53.9534 75.6219 54.825C76.6238 55.827 77.7359 55.6068 78.868 54.5146C80.291 53.2455 82.1255 52.535 84.032 52.5147C85.9384 52.4945 87.7878 53.1657 89.2374 54.4043C90.7802 55.747 91.5817 55.767 93.0745 54.4043C95.8196 51.9193 99.4564 52.0996 102.302 53.6227C103.22 54.0741 102.978 54.7795 102.763 55.4053C102.701 55.5852 102.641 55.7585 102.612 55.9173ZM101.61 48.4123C98.1932 47.512 94.5586 48.0021 91.5016 49.7751C91.369 49.8519 91.2205 49.897 91.0677 49.9075C90.9148 49.9179 90.7617 49.8931 90.6199 49.835C88.8856 48.7808 86.9162 48.1748 84.8893 48.0715C82.3929 47.8701 79.8928 48.4141 77.7058 49.6347C77.4687 49.725 77.2155 49.7654 76.9621 49.7533C76.7087 49.7413 76.4605 49.6769 76.2331 49.5645C74.6285 48.6424 72.8137 48.149 70.9632 48.1317C69.5316 48.1961 68.1 48.3117 66.6683 48.4272C66.0962 48.4734 65.5241 48.5196 64.952 48.5625C64.6236 45.7654 64.8682 42.9308 65.6709 40.2313C66.4735 37.5318 67.8174 35.0241 69.6206 32.861C71.9139 29.9992 75.1743 28.0749 78.7878 27.4503C80.6532 27.0992 82.5511 26.9512 84.4484 27.0092C89.2073 27.1131 93.7784 28.8865 97.3625 32.0193C100.581 34.745 102.627 38.6063 103.073 42.8009C103.212 44.0729 103.268 45.358 103.327 46.7159L103.327 46.717C103.358 47.4232 103.389 48.1492 103.434 48.9032L103.232 48.8407C102.619 48.6502 102.135 48.4998 101.61 48.3822V48.4123ZM116.863 47.4399C116.97 47.1523 117.013 46.8443 116.987 46.5383C116.987 45.0555 116.346 44.5547 114.834 44.4145C114.551 44.393 114.268 44.4316 114.001 44.5277C113.735 44.6239 113.492 44.7755 113.289 44.9724C113.085 45.1693 112.926 45.407 112.821 45.67C112.716 45.933 112.668 46.2155 112.68 46.4985C112.658 46.7802 112.693 47.0633 112.783 47.3313C112.872 47.5993 113.015 47.8467 113.201 48.0588C113.388 48.2708 113.616 48.4432 113.87 48.5658C114.125 48.6884 114.401 48.7588 114.683 48.7727C114.988 48.8079 115.297 48.7749 115.588 48.6761C115.879 48.5773 116.144 48.4151 116.364 48.2014C116.585 47.9876 116.755 47.7275 116.863 47.4399ZM68.227 75.1565C64.2195 74.7156 61.3842 78.7937 61.4342 81.91C61.5178 83.6013 62.2027 85.2072 63.3655 86.4381C64.5282 87.669 66.0924 88.444 67.7761 88.6234C68.707 88.6893 69.6415 88.5633 70.5217 88.2531C71.4018 87.9428 72.2089 87.4549 72.8928 86.8198C73.5767 86.1846 74.1228 85.416 74.4972 84.5611C74.8717 83.7061 75.0666 82.7832 75.0697 81.8498C75.0988 80.9501 74.9406 80.0543 74.605 79.2191C74.2694 78.3838 73.7639 77.6272 73.1204 76.9978C72.4769 76.3684 71.7096 75.8798 70.8672 75.5628C70.0247 75.2458 69.1257 75.1074 68.227 75.1565ZM68.1267 84.0244C67.8394 84.0283 67.5546 83.9718 67.2905 83.8587C67.0264 83.7457 66.7889 83.5783 66.5934 83.3678C66.398 83.1572 66.249 82.9079 66.1558 82.6361C66.0627 82.3643 66.0276 82.0761 66.0529 81.7899C66.0529 80.3069 66.704 79.6956 68.2569 79.7056C68.5514 79.6721 68.8495 79.7028 69.131 79.7954C69.4125 79.888 69.6707 80.0405 69.8877 80.2423C70.1047 80.4442 70.2754 80.6905 70.3882 80.9645C70.5011 81.2385 70.5533 81.5339 70.5412 81.83C70.4929 82.4342 70.2164 82.9971 69.7679 83.4047C69.3195 83.8123 68.7326 84.0339 68.1267 84.0244ZM77.2035 67.6612C77.1634 63.7434 80.1891 61.0982 84.5773 61.0381C86.2887 61.1034 87.9055 61.8403 89.0775 63.0893C90.2495 64.3384 90.8824 65.999 90.839 67.7114C91.0794 71.3487 87.583 74.4249 84.1365 74.5151C82.3132 74.51 80.5647 73.7889 79.2679 72.5069C77.9711 71.2249 77.2298 69.4847 77.2035 67.6612ZM82.4519 69.2327C82.8657 69.6448 83.4138 69.8942 83.9962 69.9358V69.9459C84.307 69.9657 84.6183 69.9184 84.9091 69.8069C85.1998 69.6954 85.4632 69.5224 85.681 69.2998C85.8988 69.0772 86.066 68.8101 86.1712 68.517C86.2764 68.2238 86.317 67.9114 86.2905 67.6011C86.2905 66.2383 85.5691 65.597 84.0463 65.597C83.7554 65.5737 83.4628 65.6104 83.1866 65.7047C82.9104 65.7989 82.6566 65.9487 82.4406 66.145C82.2246 66.3413 82.0511 66.5797 81.931 66.8456C81.8108 67.1116 81.7466 67.3995 81.742 67.6913C81.7862 68.2736 82.0381 68.8207 82.4519 69.2327ZM70.1307 69.2348C69.835 69.2515 69.5391 69.2067 69.2615 69.1032C68.9839 68.9998 68.7307 68.84 68.518 68.6338C68.3052 68.4276 68.1376 68.1795 68.0255 67.9053C67.9134 67.631 67.8593 67.3367 67.8666 67.0405C67.8507 66.5871 67.9706 66.1391 68.211 65.7544C68.4514 65.3697 68.8014 65.0658 69.2159 64.8816C69.6303 64.6973 70.0904 64.6413 70.537 64.7206C70.9835 64.7999 71.3962 65.0111 71.7219 65.3268C72.0477 65.6425 72.2715 66.0483 72.3648 66.4922C72.4581 66.9362 72.4165 67.398 72.2455 67.8182C72.0744 68.2383 71.7817 68.5976 71.4049 68.85C71.028 69.1025 70.5843 69.2366 70.1307 69.2348ZM84.5827 82.6753C84.6841 82.3952 84.7233 82.0964 84.6977 81.7996C84.6977 80.3369 84.1068 79.6855 82.5943 79.6855C81.0818 79.6855 80.3707 80.3167 80.3707 81.6893C80.3346 81.9866 80.363 82.2884 80.4539 82.5738C80.5449 82.8591 80.6962 83.1215 80.8978 83.343C81.0993 83.5646 81.3463 83.7399 81.6217 83.8574C81.8972 83.9749 82.1948 84.0317 82.4941 84.0237C82.7911 84.0466 83.0894 84.0047 83.3685 83.9007C83.6476 83.7968 83.9008 83.6331 84.1105 83.4215C84.3201 83.2099 84.4813 82.9554 84.5827 82.6753Z" fill="#585454"/>
</svg>
