<svg width="117" height="117" viewBox="0 0 117 117" fill="none" xmlns="http://www.w3.org/2000/svg">
<path fill-rule="evenodd" clip-rule="evenodd" d="M116.729 64.5788C116.526 64.7184 116.494 64.9311 116.463 65.1388C116.449 65.2291 116.436 65.3185 116.408 65.4005C115.984 66.7285 115.161 67.8939 114.051 68.7382C112.942 69.5825 111.6 70.0648 110.207 70.1199C108.833 70.1997 107.47 69.8486 106.306 69.1157C105.142 68.3828 104.236 67.3047 103.714 66.0319C103.374 65.2202 102.973 64.8896 102.141 65.0298C101.951 65.0449 101.76 65.0449 101.57 65.0298H101.57C99.4465 65.0298 99.3963 65.0298 98.9255 67.1239C97.8777 71.8688 95.9986 76.3909 93.3751 80.4808C92.2739 82.1929 92.3731 82.3043 93.6828 83.7741L93.6857 83.7774C93.9691 84.2205 94.4088 84.5406 94.9174 84.6742C95.426 84.8079 95.9663 84.7453 96.4308 84.4988C97.8327 84.0428 99.3453 84.0581 100.738 84.5424C102.13 85.0267 103.326 85.9534 104.142 87.181C104.958 88.4086 105.351 89.8697 105.259 91.3412C105.167 92.8127 104.597 94.2139 103.634 95.3306C101.069 98.0761 98.3978 100.748 95.6193 103.347C94.4754 104.358 93.0227 104.951 91.4982 105.03C89.9737 105.11 88.4674 104.67 87.2249 103.783C85.9824 102.896 85.077 101.614 84.6565 100.146C84.236 98.6788 84.3251 97.1118 84.9093 95.7013C85.0747 95.4198 85.1284 95.0864 85.0597 94.7673C84.9911 94.4481 84.8051 94.1664 84.5386 93.9778C82.5349 91.9738 82.5348 91.9738 80.2005 93.4668C76.1746 95.9775 71.739 97.7615 67.096 98.7374C65.4529 99.0881 65.2726 99.3186 65.2726 101.042C65.2927 101.269 65.2927 101.497 65.2726 101.723C65.1323 102.615 65.4229 103.096 66.3446 103.477C67.7699 104.089 68.939 105.177 69.6532 106.554C70.3673 107.932 70.5825 109.514 70.2619 111.032C69.9547 112.531 69.1522 113.882 67.9836 114.869C66.8151 115.856 65.3484 116.421 63.8199 116.473C61.4413 116.513 59.0628 116.5 56.6873 116.486C55.5006 116.48 54.3147 116.473 53.1299 116.473C51.5854 116.427 50.1026 115.856 48.9264 114.854C47.7502 113.851 46.9508 112.478 46.6601 110.96C46.3694 109.443 46.6049 107.871 47.3275 106.505C48.0502 105.139 49.217 104.06 50.6352 103.447C51.4568 103.116 51.7774 102.726 51.6371 101.884C51.6171 101.58 51.6171 101.275 51.6371 100.972C51.6371 99.3686 51.4067 99.0881 49.8438 98.7574C44.9404 97.7206 40.2682 95.7952 36.058 93.0761C34.485 92.0741 34.2847 92.074 32.9622 93.4166C32.7344 93.6663 32.4936 93.9039 32.2408 94.1283C32.122 94.1994 32.0192 94.2943 31.9389 94.4072C31.8586 94.52 31.8026 94.6481 31.7743 94.7836C31.7461 94.9192 31.7463 95.0594 31.7748 95.1949C31.8034 95.3304 31.8597 95.4585 31.9403 95.5711C32.5629 97.0064 32.6695 98.6131 32.242 100.118C31.8146 101.623 30.8794 102.934 29.5952 103.827C28.3111 104.721 26.7573 105.142 25.1978 105.02C23.6382 104.897 22.1691 104.239 21.0399 103.156C18.4952 100.725 16.0038 98.233 13.566 95.6812C12.4766 94.5521 11.8122 93.0803 11.6861 91.5163C11.56 89.9523 11.9798 88.3928 12.8742 87.1037C13.7686 85.8145 15.0821 84.8753 16.5911 84.446C18.1001 84.0167 19.7112 84.124 21.1501 84.7494C21.3992 84.895 21.6939 84.9417 21.9759 84.8805C22.2579 84.8192 22.5067 84.6544 22.673 84.4186C22.7397 84.3512 22.8043 84.2862 22.8669 84.2233L22.9347 84.1551L22.9379 84.1518C23.8268 83.2581 24.2725 82.8099 24.3284 82.3175C24.3845 81.8223 24.0462 81.2823 23.3677 80.1992L23.367 80.1982C23.3054 80.0999 23.2411 79.9971 23.1739 79.8895C20.6886 75.8869 18.9284 71.4773 17.9742 66.8634C17.6436 65.2902 17.3631 65.07 15.7601 65.07H15.4194C15.174 65.0052 14.9182 64.9894 14.6668 65.024C14.4154 65.0585 14.1732 65.1425 13.9544 65.2711C13.7355 65.3996 13.5443 65.5702 13.3916 65.773C13.239 65.9758 13.128 66.2067 13.065 66.4526C12.4086 67.8164 11.3049 68.9141 9.93778 69.5631C8.57062 70.2122 7.02246 70.3734 5.55098 70.0198C4.09573 69.6929 2.78882 68.8952 1.83254 67.7504C0.876267 66.6056 0.32396 65.1775 0.261093 63.6871C0.170924 60.0498 0.180943 56.4025 0.261093 52.7652C0.325359 51.2353 0.90756 49.7725 1.91222 48.617C2.91688 47.4615 4.28434 46.6819 5.79032 46.4058C7.29629 46.1297 8.85136 46.3736 10.2005 47.0976C11.5496 47.8216 12.6127 48.9827 13.2153 50.3904C13.576 51.2521 14.0268 51.5527 14.8884 51.3924C15.1886 51.3723 15.4899 51.3723 15.7901 51.3924C17.333 51.3924 17.6536 51.1419 17.9642 49.6589C18.8762 45.2787 20.5008 41.078 22.7732 37.2241C23.1526 36.5695 23.5678 35.9419 23.9766 35.3243L24.0455 35.22C24.2673 34.9301 24.37 34.5665 24.3328 34.2033C24.2955 33.8402 24.1211 33.5048 23.8451 33.2659C23.7601 33.1908 23.6798 33.1105 23.6047 33.0254C23.2797 32.4552 22.747 32.0328 22.1179 31.8461C21.4887 31.6594 20.8118 31.7228 20.2284 32.0234C18.8256 32.484 17.3063 32.4432 15.9303 31.9077C14.5543 31.3722 13.4069 30.3754 12.6843 29.0876C11.8907 27.8445 11.5346 26.3721 11.6725 24.9037C11.8105 23.4353 12.4345 22.055 13.4457 20.9815C15.9504 18.3429 18.5219 15.7708 21.1601 13.2658C22.2997 12.2221 23.7614 11.599 25.3033 11.4993C26.8453 11.3996 28.375 11.8293 29.6394 12.7176C30.9038 13.6059 31.8271 14.8994 32.2564 16.3839C32.6858 17.8684 32.5955 19.455 32.0004 20.8812C31.8379 21.1438 31.7826 21.4587 31.8461 21.7609C31.9095 22.0631 32.0867 22.3293 32.341 22.5043L32.3411 22.5044C33.3405 23.504 33.8415 24.005 34.3934 24.0695C34.948 24.1344 35.5542 23.7586 36.7693 23.0053C40.7346 20.5469 45.0927 18.7879 49.6534 17.805C51.4868 17.4042 51.6571 17.2239 51.6571 15.4002C51.6321 14.9831 51.6321 14.5648 51.6571 14.1477C51.7072 13.6467 51.4768 13.4361 51.036 13.2357C47.9602 11.9031 46.3673 9.44833 46.5676 6.43228C46.768 3.41623 48.5714 1.2116 51.8275 0.20959C51.9256 0.162443 52.0167 0.101797 52.098 0.0292969H64.8618C64.9482 0.0998462 65.0423 0.160286 65.1423 0.20959C68.3684 1.2116 70.2018 3.38617 70.4022 6.43228C70.6025 9.47839 69.0096 11.9031 65.9338 13.2357C65.483 13.4361 65.2626 13.6467 65.3127 14.1477C65.346 14.4812 65.335 14.7393 65.3238 14.9987V14.9988C65.3183 15.129 65.3127 15.2596 65.3127 15.4002C65.3127 17.2339 65.4529 17.4042 67.3164 17.805C71.8746 18.7911 76.2315 20.5462 80.2005 22.9953L80.2419 23.0209C81.435 23.7575 82.0286 24.124 82.5734 24.0619C83.1131 24.0004 83.6048 23.5183 84.5835 22.5587L84.6288 22.5144C84.8828 22.3392 85.0605 22.074 85.1256 21.7724C85.1908 21.4708 85.1385 21.1556 84.9794 20.8912C84.3723 19.4868 84.2639 17.9167 84.6721 16.4421C85.0803 14.9675 85.9807 13.677 87.2236 12.7849C88.4602 11.8466 89.9867 11.3719 91.5373 11.4433C93.0879 11.5147 94.5643 12.1278 95.7095 13.1758C98.4246 15.7209 101.039 18.3561 103.584 21.0515C104.584 22.1366 105.192 23.5252 105.312 24.9959C105.432 26.4666 105.056 27.9351 104.245 29.1678C103.496 30.4393 102.333 31.4153 100.951 31.9332C99.5693 32.451 98.0516 32.4792 96.6512 32.0134C96.104 31.723 95.4647 31.6592 94.8708 31.8353C94.2769 32.0114 93.7758 32.4137 93.4753 32.9555L93.315 33.1157C93.1347 33.2405 92.9829 33.4023 92.8695 33.59C92.7562 33.7778 92.6839 33.9873 92.6574 34.2051C92.6309 34.4228 92.6507 34.6436 92.7158 34.8531C92.7808 35.0626 92.8894 35.2559 93.0345 35.4204C93.7959 36.6028 94.5072 37.805 95.1685 39.0375C96.9679 42.4157 98.2672 46.0376 99.0257 49.7893C99.3062 51.142 99.6769 51.4225 101.029 51.4425C101.363 51.4233 101.698 51.4233 102.031 51.4425C102.953 51.5828 103.394 51.222 103.765 50.3302C104.292 49.0781 105.195 48.0204 106.349 47.3026C107.503 46.5849 108.85 46.2423 110.207 46.3221C111.579 46.3786 112.902 46.8493 114.002 47.672C115.101 48.4947 115.926 49.631 116.368 50.9315C116.403 51.0297 116.421 51.1359 116.439 51.2425C116.477 51.4731 116.516 51.7057 116.729 51.8633V64.5788ZM58.5701 4.52832H53.6809C53.3694 4.49072 53.0535 4.51813 52.7531 4.60855C52.4527 4.69898 52.1742 4.8505 51.9352 5.05378C51.6961 5.25706 51.5018 5.50759 51.3643 5.78964C51.2268 6.07168 51.1491 6.37929 51.1362 6.69281C51.0761 8.01547 51.9377 8.89712 53.4806 9.07748C53.8583 9.09286 54.2292 9.18303 54.5718 9.34291C54.9143 9.50278 55.2218 9.72915 55.4762 10.0088C55.7307 10.2884 55.927 10.6158 56.054 10.9719C56.1809 11.3281 56.2359 11.706 56.2156 12.0835V16.1818C56.2422 17.525 55.7995 18.8353 54.9637 19.887C54.1279 20.9388 52.9515 21.6661 51.6371 21.9434C46.6637 22.9882 41.9278 24.9487 37.671 27.725C36.5605 28.4478 35.233 28.761 33.9166 28.6111C32.6001 28.4611 31.3771 27.8573 30.4575 26.9033L27.4519 23.8973C26.8958 23.3912 26.5626 22.6856 26.5251 21.9346C26.4875 21.1836 26.7487 20.4482 27.2515 19.8892C28.2534 18.5666 28.2534 17.3442 27.2515 16.4624C26.2496 15.5806 25.0374 15.7109 23.8352 16.9032L23.825 16.9134L23.8249 16.9135L23.8248 16.9136L23.8247 16.9137L23.8246 16.9138L23.8245 16.9139C21.6039 19.1248 19.3733 21.3456 17.1627 23.5765C16.0606 24.6888 15.9704 25.9113 16.8621 26.9133C17.7538 27.9153 18.956 27.9154 20.1983 26.9735C20.4836 26.7056 20.8206 26.499 21.1887 26.3663C21.5568 26.2337 21.9481 26.1778 22.3386 26.2022C22.7291 26.2266 23.1104 26.3308 23.4591 26.5082C23.8078 26.6856 24.1165 26.9327 24.3661 27.234C25.368 28.1559 26.2697 29.0876 27.1814 30.0495C28.1707 30.9865 28.7945 32.2449 28.9413 33.5996C29.0881 34.9543 28.7484 36.3172 27.9829 37.4445C25.2331 41.6327 23.3021 46.3044 22.2923 51.2121C22.0203 52.5463 21.2885 53.7427 20.2247 54.5924C19.1609 55.4421 17.8325 55.8911 16.4714 55.8613H12.8246C10.5002 55.8613 9.69872 55.1699 9.35808 52.8553C9.31684 52.2598 9.04425 51.7042 8.59864 51.3072C8.15302 50.9103 7.56975 50.7035 6.97362 50.7311C6.67926 50.7414 6.3899 50.8102 6.12248 50.9337C5.85506 51.0571 5.61496 51.2327 5.41624 51.4501C5.21751 51.6675 5.06414 51.9225 4.96514 52.1999C4.86613 52.4773 4.82346 52.7715 4.83963 53.0657V62.9656C4.81366 63.2695 4.84854 63.5756 4.94221 63.8659C5.03587 64.1562 5.18642 64.4247 5.38511 64.6561C5.5838 64.8874 5.82665 65.0769 6.0994 65.2133C6.37215 65.3497 6.66933 65.4304 6.97362 65.4506C8.29609 65.5308 9.19777 64.669 9.37811 63.1459C9.3888 62.7543 9.4797 62.3689 9.64515 62.0138C9.8106 61.6586 10.0471 61.3414 10.34 61.0813C10.633 60.8211 10.9762 60.6237 11.3484 60.5015C11.7206 60.3792 12.1139 60.3346 12.504 60.3704H16.5115C17.8537 60.3376 19.1653 60.7742 20.2205 61.6045C21.2756 62.4349 22.0083 63.6071 22.2923 64.9195C23.3306 69.8987 25.2912 74.6396 28.0731 78.8975C28.7976 80.0055 29.1148 81.3308 28.9704 82.6467C28.826 83.9627 28.2291 85.1877 27.2816 86.1122C26.6778 86.7524 26.0529 87.3714 25.4261 87.9924L25.4257 87.9927C25.1894 88.2268 24.9527 88.4613 24.7168 88.6972C22.9334 90.4708 22.0117 90.541 19.998 89.0781C19.5572 88.7078 18.9896 88.5235 18.4154 88.5646C17.8412 88.6058 17.3056 88.8691 16.9222 89.2985C16.7165 89.4984 16.553 89.7374 16.4413 90.0016C16.3296 90.2658 16.2721 90.5497 16.2721 90.8365C16.2721 91.1233 16.3296 91.4072 16.4413 91.6714C16.553 91.9356 16.7165 92.1749 16.9222 92.3748C19.3267 94.8397 21.7646 97.2777 24.2359 99.6892C24.4418 99.9033 24.6896 100.073 24.9638 100.187C25.238 100.301 25.5328 100.358 25.8298 100.353C26.1267 100.348 26.4196 100.282 26.69 100.16C26.9605 100.037 27.2028 99.8598 27.4018 99.6393C28.2734 98.7476 28.2434 97.6353 27.3117 96.3627C27.0482 96.0926 26.8438 95.7705 26.7113 95.4172C26.5787 95.0639 26.521 94.6871 26.5417 94.3103C26.5624 93.9335 26.6612 93.5652 26.8316 93.2285C27.0021 92.8919 27.2406 92.5943 27.5321 92.3547L30.5377 89.3487C31.4671 88.4051 32.6946 87.8124 34.0116 87.6717C35.3285 87.5311 36.6534 87.8511 37.7612 88.5771C42.0181 91.3579 46.7588 93.3156 51.7373 94.3487C53.0502 94.6356 54.2215 95.3725 55.0485 96.432C55.8755 97.4915 56.3061 98.8066 56.2658 100.15V104.158C56.3002 104.548 56.2541 104.941 56.1305 105.312C56.0069 105.683 55.8084 106.025 55.5472 106.316C55.2861 106.607 54.9679 106.842 54.6124 107.005C54.2569 107.168 53.8716 107.256 53.4806 107.265C51.9677 107.455 51.1061 108.357 51.1863 109.689C51.2054 110.004 51.2892 110.311 51.4326 110.591C51.576 110.872 51.7758 111.119 52.0195 111.319C52.2632 111.518 52.5454 111.665 52.8486 111.75C53.1517 111.835 53.4692 111.857 53.7811 111.814H63.3289C63.6403 111.856 63.957 111.833 64.2591 111.746C64.5611 111.66 64.842 111.511 65.0839 111.311C65.3258 111.11 65.5236 110.862 65.6647 110.581C65.8058 110.3 65.8872 109.993 65.9038 109.679C65.9839 108.347 65.1223 107.455 63.5995 107.265C63.2183 107.254 62.843 107.168 62.4958 107.01C62.1486 106.853 61.8364 106.627 61.5778 106.347C61.3191 106.067 61.1191 105.738 60.9897 105.379C60.8603 105.02 60.8041 104.639 60.8243 104.258V100.05C60.8149 98.7273 61.2608 97.4417 62.0873 96.409C62.9137 95.3763 64.0703 94.6594 65.3627 94.3788C70.3407 93.3439 75.081 91.3863 79.3389 88.6072C80.4449 87.8794 81.7698 87.5592 83.086 87.7018C84.4022 87.8444 85.6278 88.4408 86.5523 89.3885L89.558 92.3946C89.8474 92.6358 90.0839 92.9344 90.2526 93.2713C90.4213 93.6083 90.5186 93.9765 90.5384 94.3529C90.5581 94.7292 90.4999 95.1053 90.3674 95.4581C90.2349 95.8109 90.031 96.1324 89.7684 96.4026C88.8166 97.6652 88.8166 98.8777 89.7684 99.7595C90.7202 100.641 92.0126 100.571 93.1848 99.4087C95.4156 97.1909 97.6397 94.9665 99.8572 92.7353C101.009 91.573 101.11 90.3206 100.168 89.3186C99.2261 88.3166 98.0639 88.3667 96.8316 89.3186C96.5592 89.5866 96.2341 89.795 95.8768 89.9306C95.5196 90.0663 95.1381 90.1261 94.7565 90.1063C94.3749 90.0865 94.0016 89.9875 93.6603 89.8157C93.319 89.6438 93.0172 89.403 92.774 89.1082C91.7721 88.1563 90.8304 87.1942 89.8786 86.2122C88.8921 85.2715 88.2704 84.0119 88.1237 82.6565C87.977 81.3012 88.3148 79.9376 89.0771 78.8075C91.8304 74.6211 93.7616 69.9487 94.7677 65.0399C95.0415 63.7066 95.7737 62.5114 96.8371 61.662C97.9006 60.8126 99.2279 60.3626 100.589 60.3904H104.686C105.067 60.3572 105.45 60.4031 105.811 60.5252C106.173 60.6473 106.505 60.8431 106.788 61.1001C107.07 61.3571 107.296 61.6698 107.452 62.0184C107.607 62.3671 107.689 62.7441 107.692 63.1259C107.872 64.6489 108.774 65.5408 110.076 65.4807C110.39 65.4652 110.698 65.3849 110.979 65.2451C111.261 65.1053 111.511 64.9088 111.713 64.668C111.915 64.4272 112.065 64.1474 112.154 63.8458C112.244 63.5443 112.269 63.2275 112.23 62.9155V53.3563C112.23 51.8032 111.429 50.8414 110.126 50.7512C108.824 50.661 107.872 51.5427 107.682 53.1559C107.672 53.5276 107.587 53.8934 107.432 54.2313C107.277 54.5693 107.055 54.8723 106.78 55.1223C106.505 55.3722 106.182 55.5638 105.831 55.6857C105.479 55.8075 105.107 55.857 104.736 55.8312H100.528C99.2037 55.8556 97.9113 55.421 96.8704 54.601C95.8295 53.7809 95.1043 52.626 94.8178 51.3322C93.766 46.3194 91.7922 41.5459 88.9969 37.2541C88.286 36.1593 87.9745 34.8525 88.1151 33.5546C88.2556 32.2567 88.8396 31.047 89.7684 30.1297C90.7435 29.121 91.7454 28.119 92.774 27.1237C93.0243 26.836 93.3296 26.6011 93.6719 26.4329C94.0142 26.2647 94.3865 26.1666 94.7673 26.1442C95.148 26.1218 95.5293 26.1756 95.8889 26.3025C96.2486 26.4294 96.5793 26.6268 96.8616 26.8832C98.134 27.8852 99.3162 27.8852 100.208 26.8832C101.1 25.8812 101.039 24.6388 99.8773 23.4665C97.6665 21.2353 95.4423 19.0107 93.2048 16.7929C92.0326 15.6306 90.8003 15.5205 89.7884 16.4524C88.7765 17.3843 88.7865 18.5364 89.7884 19.7989C90.0454 20.0807 90.2435 20.4111 90.3713 20.7704C90.499 21.1297 90.5537 21.5108 90.5322 21.8915C90.5108 22.2723 90.4136 22.645 90.2463 22.9877C90.079 23.3304 89.845 23.6362 89.558 23.8872C88.6162 24.8892 87.6544 25.831 86.6626 26.7729C85.719 27.7569 84.4565 28.3737 83.1004 28.5132C81.7443 28.6527 80.3828 28.3058 79.2587 27.5344C75.0714 24.7856 70.4 22.8577 65.493 21.8531C64.1799 21.5779 63.0026 20.8566 62.1607 19.8119C61.3188 18.7672 60.8643 17.4634 60.8744 16.1216V12.0233C60.8442 11.6336 60.8943 11.2417 61.0217 10.8721C61.1491 10.5025 61.351 10.1631 61.6149 9.87474C61.8789 9.58635 62.1992 9.35517 62.556 9.19564C62.9129 9.03611 63.2988 8.95166 63.6896 8.94734C64.0044 8.95509 64.3174 8.89752 64.6089 8.77854C64.9004 8.65956 65.1642 8.48156 65.3837 8.25577C65.6032 8.02997 65.7736 7.76139 65.8843 7.46658C65.995 7.17178 66.0435 6.85732 66.0269 6.54286C66.0103 6.22839 65.9289 5.92068 65.7877 5.63919C65.6466 5.3577 65.4487 5.10839 65.2067 4.907C64.9646 4.70562 64.6835 4.55645 64.3811 4.46887C64.0786 4.38129 63.7614 4.35727 63.4492 4.39817C61.756 4.50839 60.163 4.52832 58.5701 4.52832ZM88.397 63.9473C88.8779 72.3442 81.1134 79.5989 73.0583 78.5868C66.3658 77.7451 61.2763 72.8854 60.5049 66.5627C60.4227 66.256 60.4059 65.9354 60.4555 65.6218C60.5052 65.3083 60.6203 65.0086 60.7933 64.7424C60.9663 64.4762 61.1933 64.2491 61.4596 64.0763C61.726 63.9035 62.0257 63.7889 62.3393 63.7394C62.6528 63.69 62.9733 63.7069 63.2799 63.7893C63.5865 63.8718 63.8723 64.0178 64.1188 64.2179C64.3653 64.418 64.5669 64.6677 64.7107 64.9508C64.8544 65.2339 64.937 65.544 64.9532 65.8611C65.2676 68.0944 66.3647 70.1437 68.0489 71.6434C69.7331 73.1432 71.8951 73.9962 74.1495 74.0504C76.404 74.1045 78.6044 73.3564 80.3586 71.9392C82.1129 70.522 83.3071 68.5279 83.7283 66.3122C83.9548 65.0794 83.9352 63.8138 83.6705 62.5887C83.4058 61.3635 82.9013 60.2031 82.186 59.1739C81.4708 58.1446 80.559 57.2669 79.5031 56.5918C78.4472 55.9166 77.2681 55.4573 76.0339 55.2399C74.3006 54.9493 73.5192 54.238 73.4491 53.0356C73.4155 52.7034 73.4587 52.368 73.5756 52.0553C73.6924 51.7426 73.8797 51.461 74.1228 51.2324C74.366 51.0037 74.6585 50.8341 74.9778 50.7368C75.297 50.6394 75.6344 50.6167 75.9638 50.6707C79.4418 50.9836 82.6581 52.6494 84.9205 55.3099C87.0693 57.684 88.3018 60.7464 88.397 63.9473ZM57.615 44.4207C58.6704 42.853 59.237 41.0075 59.243 39.1176C59.2484 36.5909 58.2534 34.1649 56.4755 32.3699C54.6976 30.5749 52.2815 29.5568 49.7553 29.5383C47.8657 29.5264 46.015 30.0757 44.4376 31.1164C42.8603 32.1571 41.6272 33.6424 40.8944 35.3845C40.1617 37.1265 39.9623 39.0469 40.3214 40.9024C40.6806 42.7579 41.5822 44.4648 42.912 45.8075C44.2419 47.1502 45.9402 48.0681 47.7919 48.4449C49.6436 48.8216 51.5655 48.6404 53.3141 47.924C55.0628 47.2077 56.5596 45.9883 57.615 44.4207ZM46.9607 34.9126C47.795 34.3718 48.7713 34.0916 49.7653 34.1075V34.0874C51.0834 34.1085 52.34 34.6483 53.2628 35.59C54.1855 36.5316 54.6999 37.7991 54.6945 39.1176C54.6944 40.1118 54.3984 41.0837 53.8444 41.9093C53.2903 42.7348 52.5032 43.3766 51.5832 43.7533C50.6631 44.1301 49.6519 44.2245 48.678 44.0246C47.7042 43.8247 46.8118 43.3397 46.1145 42.631C45.4173 41.9222 44.9466 41.022 44.7625 40.045C44.5783 39.0679 44.689 38.0581 45.0805 37.1441C45.472 36.2302 46.1265 35.4533 46.9607 34.9126ZM51.4978 72.6752C51.4859 74.3033 50.9918 75.8914 50.0779 77.2388C49.164 78.5862 47.8713 79.6326 46.3632 80.2456C44.855 80.8586 43.1991 81.0108 41.6045 80.683C40.0099 80.3551 38.5482 79.562 37.4041 78.4037C36.2599 77.2455 35.4847 75.774 35.1764 74.1753C34.868 72.5766 35.0403 70.9224 35.6715 69.4216C36.3026 67.9208 37.3644 66.6406 38.7226 65.7431C40.0808 64.8455 41.6746 64.3706 43.3025 64.3785C45.486 64.4023 47.5719 65.2873 49.1065 66.841C50.6412 68.3946 51.5006 70.4912 51.4978 72.6752ZM39.5755 72.615C39.5756 73.3456 39.7926 74.0597 40.1991 74.6667C40.6055 75.2738 41.1831 75.7465 41.8586 76.0247C42.534 76.3029 43.2768 76.3739 43.9928 76.2292C44.7088 76.0845 45.3657 75.7305 45.8801 75.2118C46.3945 74.6931 46.7433 74.0331 46.8821 73.3159C47.021 72.5986 46.9436 71.8562 46.66 71.1829C46.3763 70.5097 45.8991 69.9359 45.2888 69.5344C44.6786 69.1328 43.9628 68.9217 43.2324 68.9277C42.2606 68.9382 41.332 69.3311 40.6476 70.0212C39.9633 70.7113 39.5781 71.643 39.5755 72.615ZM31.306 56.6889C30.9023 57.1247 30.6877 57.7029 30.7094 58.2966C30.7106 58.5904 30.7706 58.8809 30.8857 59.1512C31.0008 59.4214 31.1687 59.666 31.3796 59.8704C31.5905 60.0748 31.8402 60.235 32.1139 60.3416C32.3876 60.4481 32.6799 60.499 32.9735 60.491C33.5654 60.4807 34.1302 60.2409 34.5488 59.8222C34.9675 59.4035 35.2072 58.8386 35.2175 58.2465C35.2043 57.6334 34.9496 57.0504 34.5086 56.6243C34.0677 56.1983 33.4763 55.9638 32.8633 55.9719C32.2697 55.9954 31.7098 56.2531 31.306 56.6889ZM71.4739 36.8231C72.0676 36.8123 72.6419 37.0352 73.0729 37.4438C73.5039 37.8524 73.7571 38.4141 73.778 39.0077C73.7833 39.3051 73.7299 39.6006 73.621 39.8774C73.5121 40.1542 73.3498 40.4066 73.1432 40.6206C72.9367 40.8346 72.6901 41.0059 72.4174 41.1246C72.1447 41.2432 71.8513 41.3069 71.554 41.3122C71.2567 41.3175 70.9613 41.2641 70.6846 41.1551C70.4079 41.0462 70.1553 40.8839 69.9414 40.6774C69.7274 40.4708 69.5562 40.224 69.4376 39.9513C69.3189 39.6786 69.2552 39.3851 69.2499 39.0877C69.2498 38.494 69.4828 37.9241 69.8988 37.5005C70.3148 37.077 70.8804 36.8336 71.4739 36.8231ZM67.6256 57.9539C68.0502 57.5292 68.2888 56.9532 68.2888 56.3526C68.2941 56.0609 68.2417 55.7711 68.1347 55.4998C68.0277 55.2284 67.8682 54.981 67.6652 54.7715C67.4623 54.562 67.22 54.3946 66.9522 54.279C66.6844 54.1635 66.3965 54.1019 66.1049 54.098C65.8014 54.0858 65.4985 54.1352 65.2146 54.2431C64.9306 54.3509 64.6714 54.5152 64.4524 54.7257C64.2335 54.9363 64.0593 55.1889 63.9404 55.4684C63.8216 55.748 63.7604 56.0487 63.7606 56.3526C63.7606 56.9532 63.9992 57.5292 64.4238 57.9539C64.8484 58.3786 65.4242 58.6171 66.0247 58.6171C66.6252 58.6171 67.201 58.3786 67.6256 57.9539Z" fill="#585454"/>
</svg>
