<svg width="93" height="126" viewBox="0 0 93 126" fill="none" xmlns="http://www.w3.org/2000/svg">
<path d="M4.7613 125.053C2.68742 124.211 0.884059 123.049 0.323011 120.714C0.140713 119.815 0.0633751 118.897 0.0925688 117.979C0.0925688 96.7363 0.162723 75.4835 0.0224609 54.2409C0.0224609 49.8721 1.79575 46.8763 5.10193 44.4013C7.61663 42.5175 10.0311 40.5034 12.4857 38.5395C12.5724 38.4569 12.6412 38.3575 12.6878 38.2471C12.7343 38.1368 12.7576 38.018 12.7563 37.8983C12.343 35.8095 12.052 33.6982 11.8846 31.5755C11.8917 29.3038 12.0995 27.0371 12.5058 24.8019C12.8665 22.6376 13.5077 20.5234 13.9785 18.3892C14.004 18.294 14.0083 18.1943 13.991 18.0973C13.9736 18.0003 13.9352 17.9084 13.8783 17.828C12.9666 16.9362 13.0969 15.8238 13.0869 14.6815C13.0869 10.9474 13.0869 7.20992 13.0869 3.46908C13.0465 3.056 13.095 2.63915 13.2293 2.24641C13.3635 1.85367 13.5803 1.4942 13.8651 1.1923C14.1499 0.890388 14.496 0.652967 14.8802 0.496075C15.2645 0.339183 15.6778 0.266474 16.0925 0.282756C20.6811 0.282756 25.2697 0.192575 29.8582 0.282756C32.2427 0.282756 33.3748 1.68544 33.3548 3.90991C33.3548 7.60733 33.3548 11.3048 33.3047 15.0022C33.157 15.9179 32.8909 16.8106 32.5132 17.6577C32.4299 17.8816 32.3991 18.1214 32.423 18.3591C33.4249 22.2068 34.4268 26.0645 34.1963 30.0926C34.0661 32.8281 33.9459 35.5635 33.8056 38.5194C36.8914 41.0645 40.3278 43.8302 43.6841 46.696C44.4564 47.3567 45.076 48.1773 45.4998 49.1012C45.9236 50.0251 46.1416 51.03 46.1387 52.0465C46.1988 54.3011 46.3691 56.5556 46.3691 58.8101C46.3691 78.2692 46.3691 97.7282 46.3691 117.187C46.3691 120.935 45.1368 123.69 41.4699 125.033L4.7613 125.053ZM29.4074 15.0825L29.6178 14.8922V10.7036H16.7437V14.8922L16.9441 15.0825H29.4074ZM30.4092 28.4893L30.6196 28.2989C30.0686 25.2929 29.5276 22.2869 28.9265 19.2808C28.9265 19.0704 28.3855 18.82 28.0949 18.82C24.8489 18.7799 21.6028 18.7799 18.3567 18.82C18.0762 18.82 17.5853 19.0804 17.5452 19.2909C16.9341 22.2969 16.3931 25.3029 15.832 28.309L16.0424 28.4993L30.4092 28.4893ZM42.7724 112.388V59.0105H41.3798C33.6653 59.0105 25.9509 59.0105 18.2365 59.0105C17.7758 59.0553 17.3161 58.9163 16.9576 58.6235C16.5991 58.3306 16.371 57.9079 16.3229 57.4475C16.26 57.2215 16.248 56.9843 16.288 56.753C16.328 56.5218 16.4189 56.3022 16.5541 56.1104C16.6893 55.9186 16.8654 55.7592 17.0697 55.6438C17.2741 55.5285 17.5015 55.4601 17.7356 55.4435C18.165 55.3629 18.601 55.3226 19.038 55.3231H42.7924C43.0328 52.5175 42.6321 50.0826 40.2877 48.3091C36.8312 45.6437 33.4249 42.9084 30.0085 40.1929C29.6712 39.9361 29.4478 39.5573 29.386 39.1378C29.3242 38.7184 29.429 38.2916 29.6779 37.9484C30.528 36.1836 30.8515 34.2109 30.6096 32.2669H15.7518C15.6817 35.2729 15.6717 35.3231 16.8639 38.0886C17.0731 38.472 17.1231 38.9224 17.0031 39.3423C16.8831 39.7623 16.6028 40.1181 16.2227 40.3331C15.5515 40.8241 14.8902 41.3351 14.219 41.8461C11.574 43.9704 9.04933 46.245 6.28416 48.1789C5.24228 48.9921 4.44561 50.0777 3.98235 51.3156C3.51908 52.5535 3.40725 53.8955 3.65923 55.193C5.81326 55.3132 7.93724 55.3732 10.0612 55.5837C10.2995 55.6173 10.5262 55.7077 10.7223 55.8471C10.9184 55.9866 11.0781 56.171 11.1881 56.3851C11.2981 56.5991 11.355 56.8365 11.3542 57.0771C11.3534 57.3178 11.2947 57.5547 11.1833 57.768C10.9902 58.1869 10.6654 58.5314 10.2584 58.7485C9.85137 58.9656 9.38454 59.0436 8.92909 58.9706H3.77948V112.348L42.7724 112.388ZM3.60915 116.145C3.55887 117.04 3.55887 117.936 3.60915 118.831C3.61357 119.493 3.87161 120.127 4.33013 120.605C4.78865 121.082 5.41271 121.365 6.07375 121.396C17.4851 121.396 28.8964 121.396 40.2977 121.396C40.8828 121.367 41.4409 121.141 41.8807 120.754C43.2933 119.452 42.7323 117.748 42.8024 116.175L3.60915 116.145ZM29.6578 6.6855V3.98012H16.7738V6.6855H29.6578Z" fill="#585454"/>
<path d="M65.4756 125.053C64.4485 124.772 63.5159 124.22 62.7755 123.455C62.0351 122.69 61.5143 121.74 61.2677 120.704C61.1826 120.204 61.1523 119.697 61.1776 119.191C61.1776 108.79 61.1776 98.3926 61.1776 87.9984C61.1776 85.3431 62.3798 84.4111 64.8144 84.4111H83.6997C85.3628 84.4111 87.0259 84.4111 88.709 84.4111C91.1636 84.4111 92.3558 85.6335 92.3558 88.0985V111.866C92.3558 113.93 92.3558 116.005 92.3558 118.079C92.3558 122.087 91.1135 123.86 87.6871 125.093L65.4756 125.053ZM88.6389 99.5115H76.0955C75.2739 99.5115 74.4524 99.2609 74.3322 98.4292C74.2256 98.0898 74.2114 97.7281 74.2909 97.3812C74.3704 97.0344 74.5409 96.7149 74.7847 96.4558C75.0285 96.1967 75.3369 96.0071 75.6781 95.9066C76.0194 95.8061 76.3813 95.7984 76.7266 95.8841C80.3434 95.8841 83.9601 95.8841 87.5669 95.8841C87.9175 95.8841 88.2582 95.884 88.5688 95.8239V88.1486H64.8645V96.0845C65.7962 96.0845 66.6478 96.0845 67.4994 96.0845C67.9536 96.087 68.3909 96.2571 68.7274 96.5622C69.0639 96.8673 69.2759 97.2861 69.3228 97.7379C69.2994 98.1786 69.1205 98.5967 68.8178 98.9178C68.515 99.2389 68.1082 99.4422 67.6697 99.4914C67.1464 99.5365 66.6201 99.5365 66.0968 99.4914C65.0949 99.4113 64.7543 99.752 64.7643 100.784C64.8244 105.003 64.7643 109.231 64.7643 113.449C64.7643 115.453 64.7643 115.453 66.7179 115.453C73.17 115.453 79.6321 115.453 86.0841 115.453C86.9157 115.453 87.7472 115.343 88.5688 115.293L88.6389 99.5115ZM88.5888 119.231H64.7442C65.1249 121.055 65.5257 121.395 67.1187 121.395H86.3346C87.7673 121.395 88.3183 120.874 88.5187 119.231H88.5888Z" fill="#585454"/>
<path d="M22.9868 62.5576C27.7121 62.6676 32.36 63.781 36.6223 65.8242C37.0327 65.9772 37.4067 66.2143 37.7203 66.5202C38.0338 66.826 38.2801 67.1939 38.4432 67.6005C38.6064 68.007 38.6829 68.443 38.6678 68.8809C38.6527 69.3187 38.5463 69.7486 38.3555 70.1429C37.8427 71.3753 37.1689 72.5343 36.3518 73.5898C34.9592 75.3433 33.5566 75.4837 31.112 74.4817C28.5201 73.3869 25.7318 72.8337 22.9183 72.8561C20.1048 72.8785 17.3256 73.4759 14.7514 74.6118C12.407 75.6138 10.794 75.0828 9.5517 72.8984C9.32127 72.4776 9.08084 72.0668 8.82035 71.676C6.92681 68.7802 7.59807 66.3152 11.0445 65.1228C14.1704 64.0407 17.2661 62.8383 20.6725 62.8884C21.4515 62.8401 22.2254 62.7294 22.9868 62.5576ZM12.9681 71.4656C16.1772 69.9917 19.6659 69.2262 23.1972 69.2211C26.7426 69.273 30.2415 70.0363 33.4865 71.4656L34.9191 68.9506C27.0544 65.6239 19.36 65.3634 11.5254 68.9506L12.9681 71.4656Z" fill="#585454"/>
<path d="M23.0742 96.5654C19.217 96.3951 15.7706 95.4429 13.1757 92.8176C10.0399 89.6613 9.67921 85.8038 12.8151 82.2667C14.9183 80.0435 17.7777 78.6886 20.83 78.469C24.5693 77.8713 28.3985 78.6472 31.6102 80.6533C33.9746 82.1664 35.6177 84.3307 35.6177 87.1865C35.605 88.3696 35.3211 89.5341 34.7879 90.5903C34.2547 91.6464 33.4863 92.5662 32.5419 93.2788C29.7167 95.6836 26.4005 96.2648 23.0742 96.5654ZM23.3948 81.9159C21.0505 81.8463 18.7341 82.4402 16.7123 83.6293C14.9691 84.6313 13.827 86.6955 14.5383 88.2386C15.1145 89.4545 16.0073 90.4929 17.1231 91.2447C19.3578 92.7081 22.0758 93.2403 24.6973 92.7276C26.6982 92.4858 28.5994 91.7183 30.2076 90.5032C32.7924 88.409 32.2113 85.5532 29.8369 83.9099C27.9237 82.6442 25.6884 81.9523 23.3948 81.9159Z" fill="#585454"/>
<path d="M23.1151 105.494H12.375C12.1221 105.526 11.8655 105.503 11.6223 105.426C11.3791 105.35 11.155 105.223 10.9651 105.053C10.7752 104.883 10.624 104.674 10.5216 104.441C10.4191 104.208 10.3679 103.955 10.3713 103.7C10.3713 102.488 10.9223 101.856 12.3249 101.846C19.5918 101.846 26.8587 101.846 34.1256 101.846C35.4581 101.846 36.0092 102.518 35.9591 103.85C35.9443 104.095 35.88 104.334 35.7699 104.553C35.6598 104.771 35.5064 104.965 35.3189 105.123C35.1314 105.28 34.9138 105.398 34.6794 105.469C34.445 105.539 34.1986 105.562 33.9553 105.534L23.1151 105.494Z" fill="#585454"/>
</svg>
