<svg width="134" height="134" viewBox="0 0 134 134" fill="none" xmlns="http://www.w3.org/2000/svg">
<path fill-rule="evenodd" clip-rule="evenodd" d="M32.5913 2.97098C31.6975 1.86325 30.6636 0.876427 29.5155 0.0351562L27.9426 0.155515C25.6283 1.65853 25.488 3.09141 27.4316 5.16557C27.6333 5.38283 27.8447 5.60584 28.0564 5.82926L28.0565 5.8294L28.0565 5.82942C28.5282 6.32724 29.0019 6.82704 29.3753 7.26964C29.5436 7.46917 29.7672 7.65803 29.99 7.84616C30.4832 8.2627 30.9723 8.67574 30.848 9.19343C30.7637 9.5367 30.2705 9.55059 29.7315 9.56577C29.3737 9.57585 28.9958 9.58649 28.704 9.69443C28.6173 9.70008 28.5303 9.70008 28.4435 9.69443C28.0185 9.77044 27.6204 9.95517 27.2878 10.2304C26.9552 10.5057 26.6993 10.8622 26.5451 11.2655C26.3908 11.6687 26.3434 12.1052 26.4075 12.5322C26.4715 12.9592 26.6449 13.3622 26.9107 13.7025C29.5256 17.0692 32.2106 20.4059 34.9257 23.7226C35.3482 24.2541 35.9644 24.5962 36.639 24.6732C37.3135 24.7503 37.9909 24.5561 38.5224 24.1336C39.0538 23.711 39.3956 23.0945 39.4727 22.4199C39.5497 21.7453 39.3556 21.0678 38.9332 20.5363C38.4737 19.8679 37.9659 19.2382 37.4568 18.607C37.2332 18.3297 37.0093 18.052 36.7891 17.7707L33.9438 14.1536C34.3973 14.0901 34.8036 14.0286 35.1841 13.971C35.6441 13.9014 36.0664 13.8376 36.4886 13.7827C37.0566 13.7718 37.6077 13.5874 38.0679 13.2543C38.5281 12.9212 38.8754 12.4553 39.0633 11.9191C39.2119 11.3966 39.2078 10.8424 39.0516 10.3222C38.8954 9.80191 38.5936 9.33722 38.1818 8.98304C36.9259 7.64686 35.6879 6.31068 34.4499 4.97451C33.8311 4.30666 33.2123 3.63882 32.5913 2.97098ZM130.935 28.6333C131.95 28.2524 132.798 27.5248 133.329 26.5792V25.016C132.027 23.2124 131.065 22.8216 129.442 23.5731C126.029 25.1496 122.632 26.7697 119.253 28.433C117.109 29.4851 117.109 31.8999 119.113 33.1725C119.471 33.3878 119.835 33.6054 120.215 33.833C120.631 34.0819 121.066 34.3427 121.537 34.6253C121.357 34.736 121.198 34.8371 121.051 34.9303C120.772 35.1072 120.538 35.2556 120.295 35.3869C119.638 35.7664 118.977 36.1398 118.316 36.5131L118.316 36.5133C117.093 37.2042 115.871 37.8948 114.674 38.6234C114.078 38.9582 113.639 39.5164 113.454 40.1751C113.269 40.8337 113.353 41.5387 113.687 42.1353C114.022 42.7319 114.58 43.1712 115.239 43.3562C115.897 43.5413 116.602 43.4572 117.199 43.1224C120.866 41.0883 124.523 39.0342 128.129 36.8899C128.536 36.6726 128.876 36.349 129.112 35.9537C129.349 35.5584 129.474 35.1063 129.474 34.6454C129.474 34.1845 129.349 33.7324 129.112 33.3371C128.876 32.9418 128.536 32.6182 128.129 32.4009C127.688 32.1086 127.233 31.8457 126.731 31.555C126.458 31.3973 126.172 31.2313 125.865 31.0481C126.506 30.7434 127.123 30.4436 127.724 30.1512L127.724 30.1509L127.725 30.1509L127.726 30.1503C128.824 29.616 129.873 29.1059 130.935 28.6333ZM105.489 0.0351562C107.793 1.57825 107.933 3.04124 105.999 5.09536L105.995 5.09972C104.995 6.17042 103.994 7.24112 102.994 8.33183C102.941 8.39007 102.872 8.4451 102.802 8.50131C102.595 8.66754 102.376 8.84399 102.503 9.14352C102.623 9.4262 102.838 9.40983 103.056 9.3932C103.147 9.38625 103.239 9.37926 103.324 9.39402C103.535 9.43127 103.743 9.46168 103.952 9.49231L103.952 9.49232C104.25 9.53585 104.55 9.57983 104.867 9.64453C105.303 9.70168 105.716 9.87291 106.065 10.1411C106.413 10.4093 106.685 10.7649 106.851 11.1718C107.018 11.5786 107.074 12.0224 107.015 12.458C106.955 12.8937 106.781 13.3058 106.51 13.6526C103.946 17.0293 101.281 20.3359 98.6057 23.6225C98.3938 23.8862 98.1317 24.1051 97.8346 24.2666C97.5374 24.4282 97.2111 24.5291 96.8747 24.5636C96.5383 24.5981 96.1983 24.5657 95.8746 24.4677C95.5509 24.3698 95.2498 24.2083 94.9889 23.9931C94.7225 23.7861 94.5004 23.5277 94.3355 23.2333C94.1707 22.9389 94.0665 22.6146 94.0292 22.2793C93.9918 21.9439 94.022 21.6046 94.118 21.2812C94.214 20.9577 94.3739 20.6567 94.5881 20.3961C95.5464 19.1227 96.5468 17.8775 97.5477 16.6315L97.5478 16.6314L97.5478 16.6314L97.5479 16.6313L97.5479 16.6312L97.548 16.6312L97.548 16.6311L97.5481 16.631L97.5481 16.6309L97.5481 16.6309L97.5482 16.6308L97.5482 16.6307L97.5483 16.6307L97.5483 16.6306C98.0122 16.0532 98.4762 15.4756 98.9362 14.8951C99.0028 14.8063 99.0674 14.7155 99.1353 14.6201C99.2207 14.5002 99.3112 14.3731 99.4172 14.2336C98.4369 13.9411 97.4301 13.7466 96.4116 13.6526C94.2876 13.1415 93.466 10.9772 94.9087 9.37396C96.9373 7.0995 99.0284 4.88148 101.118 2.66532L101.119 2.6646L101.119 2.66415C101.671 2.07864 102.223 1.49327 102.773 0.907023C103.12 0.589349 103.491 0.300999 103.885 0.0451861L105.489 0.0351562ZM128.931 104.676C131.065 105.688 132.137 105.337 133.329 103.333L133.339 101.78C132.464 100.477 131.139 99.9036 129.814 99.33C129.092 99.0173 128.369 98.7045 127.719 98.2732C127.79 98.0515 127.961 97.9549 128.139 97.8549L128.185 97.8287C128.217 97.8106 128.249 97.792 128.28 97.7722C130.724 96.2191 130.704 94.0847 128.22 92.6619C125.548 91.1321 122.876 89.6093 120.205 88.0929C118.361 87.0508 116.808 87.3714 116.037 88.7742C115.265 90.177 115.836 91.5899 117.58 92.5919L122.028 95.1368C121.833 95.4778 121.519 95.7349 121.146 95.8585C120.595 96.0659 120.121 96.4393 119.791 96.9275C119.461 97.4157 119.29 97.9946 119.303 98.5839C119.423 99.9366 120.295 100.588 121.427 101.109C123.137 101.899 124.852 102.722 126.568 103.545L126.568 103.545L126.568 103.545L126.568 103.545L126.568 103.545L126.568 103.545L126.568 103.545L126.569 103.545L126.569 103.546L126.569 103.546L126.569 103.546L126.569 103.546L126.569 103.546C127.356 103.923 128.144 104.301 128.931 104.676ZM69.3293 71.4586V76.9496V99.4447C69.3273 101.363 70.0287 103.215 71.3007 104.65C72.5726 106.086 74.3267 107.004 76.2307 107.233C78.1347 107.461 80.0564 106.983 81.6317 105.89C83.207 104.796 84.3265 103.163 84.7782 101.299C85.0621 100.293 85.1058 99.2355 84.9056 98.2103C84.7055 97.1851 84.2672 96.2211 83.6261 95.3965C83.3924 95.1359 83.214 94.8306 83.1019 94.499C82.9897 94.1674 82.9461 93.8164 82.9736 93.4674C83.0011 93.1184 83.0993 92.7785 83.262 92.4686C83.4248 92.1586 83.6488 91.885 83.9205 91.6642C84.1922 91.4434 84.5058 91.2804 84.8425 91.1845C85.1791 91.0886 85.5317 91.062 85.8789 91.1064C86.2261 91.1509 86.5607 91.2656 86.8623 91.4433C87.1639 91.621 87.4263 91.8579 87.6336 92.14C88.6494 93.3589 89.3945 94.7799 89.8194 96.3088C90.2443 97.8376 90.3393 99.4395 90.0981 101.008C89.9879 102.01 90.2084 102.25 91.1501 102.441C99.5358 104.084 107.01 95.8876 104.575 87.6911C104.325 86.8394 104.014 86.5889 103.113 86.8594C101.727 87.2251 100.297 87.3971 98.8645 87.3704C98.5073 87.4109 98.1457 87.3766 97.8025 87.2694C97.4594 87.1622 97.1424 86.9845 96.8718 86.7478C96.6012 86.5112 96.383 86.2206 96.231 85.8948C96.079 85.569 95.9966 85.2148 95.9891 84.8554C95.9721 84.5065 96.028 84.1582 96.1531 83.8321C96.2783 83.506 96.47 83.2094 96.716 82.9614C96.962 82.7135 97.2569 82.5196 97.582 82.3919C97.907 82.2643 98.2551 82.2059 98.6041 82.2202C100.975 82.1853 103.308 81.621 105.433 80.5687C107.559 79.5164 109.422 78.0027 110.887 76.1379C111.096 75.872 111.355 75.6505 111.651 75.4865C111.947 75.3224 112.272 75.2191 112.608 75.1826C112.944 75.1462 113.284 75.1774 113.608 75.2744C113.932 75.3713 114.233 75.5322 114.494 75.7473C114.766 75.9646 114.992 76.2349 115.158 76.5418C115.324 76.8488 115.425 77.186 115.457 77.5333C115.489 77.8806 115.45 78.2308 115.343 78.5627C115.236 78.8946 115.063 79.2014 114.834 79.4647C113.456 81.2736 111.758 82.8154 109.825 84.0138C109.144 84.4347 109.044 84.7854 109.274 85.567C111.218 91.9899 110.025 97.8016 105.347 102.601C100.668 107.401 95.1376 108.753 88.7757 107.17C88.4841 107.061 88.164 107.056 87.8687 107.154C87.5734 107.253 87.3207 107.449 87.1526 107.711C85.9632 109.17 84.47 110.352 82.7771 111.175C81.0842 111.997 79.2323 112.44 77.3505 112.474C75.4687 112.507 73.6023 112.13 71.8813 111.368C70.1603 110.606 68.6261 109.478 67.3857 108.062C66.8246 107.441 66.5742 107.351 65.953 108.062C64.7181 109.482 63.188 110.615 61.4697 111.382C59.7513 112.15 57.8863 112.532 56.0047 112.504C54.1232 112.475 52.2706 112.036 50.5764 111.217C48.8822 110.398 47.3873 109.218 46.1961 107.761C46.0085 107.489 45.7339 107.288 45.4173 107.191C45.1006 107.095 44.7606 107.109 44.4528 107.23C38.0809 108.773 32.4304 107.301 27.9119 102.561C23.3935 97.8216 22.1211 91.9696 24.0447 85.5968C24.1182 85.4496 24.1609 85.289 24.1703 85.1247C24.1797 84.9604 24.1556 84.7958 24.0993 84.6411C24.0431 84.4864 23.9559 84.3449 23.8432 84.225C23.7304 84.105 23.5945 84.0093 23.4436 83.9436C16.8212 79.3344 13.505 72.9215 14.2364 64.9054C15.0078 56.5086 19.5764 50.6168 27.411 47.4204C28.3561 47.0287 28.2664 46.485 28.169 45.8939C28.1518 45.7894 28.1343 45.6835 28.1223 45.5766C27.6494 41.9483 28.5466 38.2742 30.6384 35.2722C32.7302 32.2703 35.8663 30.1564 39.4335 29.3441C40.652 29.0255 41.9131 28.9005 43.1704 28.9735C43.4206 29.0096 43.6756 28.9584 43.8926 28.8289C44.1097 28.6994 44.2757 28.4992 44.3627 28.2618C49.0815 19.6245 59.3908 18.3119 66.0933 25.4963C66.6143 26.0374 66.7846 25.9572 67.2454 25.4963C73.8678 18.372 84.3474 19.6848 88.9259 28.2019C89.021 28.4571 89.1965 28.6744 89.4261 28.8208C89.6558 28.9673 89.9269 29.0348 90.1983 29.0133C98.4538 29.0935 104.435 34.5145 105.307 42.6608C105.416 43.7854 105.358 44.9197 105.136 46.0275C104.976 46.8491 105.246 47.1498 105.978 47.4204C109.326 48.6731 112.275 50.8053 114.514 53.5927C115.706 55.0356 115.676 56.5987 114.464 57.6007C113.251 58.6027 111.749 58.3323 110.596 56.9596C109.207 55.2285 107.46 53.8183 105.475 52.8255C103.49 51.8328 101.313 51.2811 99.095 51.208C98.8846 51.208 98.6642 51.208 98.4538 51.1579C98.1165 51.1527 97.7837 51.0808 97.4744 50.9463C97.1651 50.8118 96.8855 50.6172 96.6517 50.3741C96.4179 50.1309 96.2346 49.844 96.1123 49.5296C95.99 49.2153 95.9311 48.8797 95.9391 48.5425C95.9332 48.1924 96.0013 47.8451 96.1391 47.5231C96.2768 47.2012 96.481 46.912 96.7383 46.6745C96.9956 46.437 97.3002 46.2566 97.6321 46.1451C97.964 46.0336 98.3157 45.9935 98.6642 46.0275C99.7262 46.0776 99.9666 45.697 100.077 44.7551C100.304 42.7237 99.8724 40.6727 98.8451 38.9055C97.8179 37.1383 96.2497 35.7483 94.372 34.9408C92.4944 34.1332 90.4069 33.951 88.4178 34.4209C86.4287 34.8908 84.6434 35.988 83.3255 37.5505C83.2207 37.6763 83.1211 37.8057 83.0216 37.9349C82.8835 38.1144 82.7456 38.2935 82.5941 38.4625C82.3849 38.7303 82.125 38.9542 81.8293 39.1215C81.5336 39.2888 81.2078 39.3962 80.8705 39.4376C80.5333 39.479 80.1912 39.4535 79.8638 39.3627C79.5364 39.2719 79.2301 39.1174 78.9623 38.9082C78.6946 38.699 78.4707 38.4392 78.3034 38.1435C78.1361 37.8477 78.0286 37.5218 77.9872 37.1845C77.9458 36.8472 77.9713 36.5051 78.0621 36.1776C78.1529 35.8502 78.3073 35.5437 78.5165 35.2759C79.7242 33.4612 81.3627 31.9742 83.2854 30.9474C84.127 30.4965 84.1671 30.1457 83.6361 29.4043C82.6741 28.0804 81.3299 27.0826 79.7843 26.5452C78.2387 26.0079 76.5656 25.9566 74.9899 26.3982C73.4067 26.8355 72.0029 27.7635 70.9804 29.0491C69.9579 30.3346 69.3693 31.9113 69.2993 33.5525C69.2525 40.1679 69.2681 46.7789 69.2837 53.3914V53.3926V53.3937V53.3948V53.3959V53.397V53.3982V53.3993V53.4004V53.4015V53.4026V53.4038C69.2915 56.7126 69.2993 60.0219 69.2993 63.3322C69.2993 65.4264 70.6518 66.6891 72.9461 66.9797C73.3049 66.9841 73.6591 67.0619 73.9866 67.2086C74.3141 67.3553 74.6081 67.5679 74.8504 67.8327C75.0926 68.0975 75.278 68.409 75.3951 68.7483C75.5121 69.0876 75.5583 69.4475 75.5309 69.8054C75.5011 70.1524 75.4018 70.4898 75.2389 70.7976C75.076 71.1054 74.8529 71.3771 74.5827 71.5968C74.3125 71.8166 74.0009 71.9798 73.6664 72.0766C73.3318 72.1733 72.9812 72.2016 72.6355 72.16C72.1365 72.1232 71.6409 72.0495 71.1527 71.9396C70.789 71.8616 70.4337 71.7626 70.0322 71.6507L70.0321 71.6507L70.032 71.6507L70.0319 71.6507L70.0319 71.6506C69.8142 71.59 69.5829 71.5255 69.3293 71.4586ZM64.1196 48.4124V33.8531C64.0927 32.1914 63.5415 30.5807 62.5447 29.2509C61.548 27.9211 60.1566 26.9402 58.5692 26.4484C57.0031 25.9742 55.3295 25.9907 53.7731 26.4958C52.2167 27.001 50.8522 27.9704 49.8629 29.2739C49.2819 30.0354 49.1616 30.4763 50.1836 30.9973C52.1133 32.0162 53.746 33.518 54.9224 35.3561C55.3382 35.8983 55.5217 36.5834 55.4325 37.2608C55.3433 37.9383 54.9886 38.5525 54.4465 38.9684C53.9045 39.3843 53.2194 39.5677 52.5421 39.4784C51.8648 39.3892 51.2506 39.0347 50.8347 38.4926C50.6786 38.3202 50.534 38.1363 50.3901 37.9532L50.39 37.9532C50.2663 37.7957 50.143 37.6388 50.0133 37.4906C48.701 35.9694 46.9421 34.9013 44.9873 34.4388C43.0325 33.9763 40.9815 34.1429 39.1269 34.9148C37.2724 35.6868 35.7088 37.0247 34.6592 38.7377C33.6097 40.4507 33.1277 42.4514 33.282 44.4545C33.3822 45.5767 33.6126 46.1377 34.945 46.0575C35.2725 46.0438 35.5994 46.0974 35.9055 46.2146C36.2116 46.3318 36.4905 46.5104 36.7251 46.7393C36.9597 46.9683 37.145 47.2429 37.2696 47.5461C37.3942 47.8493 37.4555 48.1749 37.4497 48.5026C37.4659 48.8394 37.4149 49.1758 37.2999 49.4927C37.1849 49.8096 37.008 50.1007 36.7797 50.3486C36.5513 50.5966 36.276 50.7966 35.9696 50.9372C35.6633 51.0779 35.332 51.1563 34.9951 51.1679C34.6069 51.206 34.2302 51.2324 33.8299 51.2605L33.6239 51.275L33.4422 51.288C30.9734 51.5111 28.5947 52.3259 26.5074 53.6634C24.4201 55.0008 22.6859 56.8217 21.4513 58.9716C20.2168 61.1216 19.5184 63.5373 19.4152 66.0143C19.3121 68.4914 19.8072 70.957 20.8587 73.2021C23.5938 78.9035 28.2726 81.8194 34.5643 82.2202C36.4879 82.3404 37.57 83.4026 37.4497 84.9958C37.3295 86.589 36.1273 87.4706 34.2037 87.3805C32.8501 87.3831 31.5023 87.2044 30.1962 86.8494C29.3145 86.5788 29.0641 86.9497 28.8437 87.6911C26.3791 95.8675 33.853 104.104 42.2387 102.471C43.1504 102.3 43.4409 102.05 43.3207 101.068C43.0759 99.4995 43.1673 97.8968 43.5888 96.3663C44.0102 94.8357 44.7521 93.4122 45.7653 92.1902C45.9676 91.906 46.2263 91.6666 46.525 91.4866C46.8238 91.3066 47.1564 91.1899 47.5022 91.1439C47.8479 91.0978 48.1994 91.1234 48.5348 91.219C48.8703 91.3145 49.1826 91.4779 49.4522 91.6992C49.7237 91.9158 49.949 92.1848 50.1146 92.4901C50.2803 92.7954 50.383 93.1309 50.4166 93.4767C50.4502 93.8224 50.4142 94.1714 50.3104 94.5029C50.2067 94.8344 50.0375 95.1417 49.8129 95.4066C48.8258 96.7666 48.3386 98.4259 48.4335 100.104C48.5284 101.782 49.1997 103.375 50.3338 104.615C51.3804 105.815 52.7674 106.668 54.3103 107.061C55.8532 107.453 57.4791 107.367 58.9719 106.814C60.4647 106.26 61.7539 105.266 62.6679 103.962C63.582 102.658 64.0779 101.107 64.0896 99.5149V76.8794V72.3302C64.0896 71.6589 63.9293 71.4787 63.2881 71.7292C62.4774 72.0462 61.6137 72.2059 60.7433 72.2001C60.0434 72.2584 59.349 72.0369 58.812 71.5844C58.275 71.1318 57.9391 70.485 57.8779 69.7853C57.8506 69.0839 58.0999 68.3999 58.5722 67.8806C59.0445 67.3614 59.7019 67.0486 60.4027 67.0098C63.0075 66.649 64.0795 65.4165 64.0795 62.7512C64.1396 57.9115 64.1396 53.1418 64.1396 48.3723L64.1196 48.4124ZM18.4438 38.3918C16.3098 37.1894 14.1858 35.9769 11.8515 34.6443C12.1473 34.4704 12.4255 34.3095 12.69 34.1566L12.6902 34.1565C13.2945 33.807 13.8274 33.4989 14.3361 33.1713C16.3599 31.8888 16.2998 29.4238 14.1558 28.4218C11.1353 26.9338 8.09078 25.5018 5.04372 24.0686L3.96675 23.562C3.59651 23.355 3.18105 23.2424 2.75697 23.2339C2.33289 23.2255 1.91321 23.3214 1.53502 23.5135C1.15683 23.7056 0.83172 23.9878 0.588363 24.3352C0.345006 24.6827 0.190881 25.0847 0.139587 25.5058C0.0465949 26.0474 0.139514 26.6048 0.403264 27.0869C0.667013 27.569 1.0861 27.9476 1.59231 28.1613C2.2561 28.4799 2.90889 28.7942 3.56161 29.1084L3.56432 29.1097L3.56473 29.1099L3.56485 29.11C4.8814 29.7437 6.19774 30.3774 7.60355 31.047C7.31882 31.2152 7.0508 31.3699 6.79579 31.5171C6.26119 31.8257 5.78375 32.1013 5.32928 32.3998C4.92865 32.623 4.59496 32.9493 4.36263 33.3448C4.1303 33.7403 4.00778 34.1905 4.00778 34.6492C4.00778 35.1078 4.1303 35.5583 4.36263 35.9538C4.59496 36.3493 4.92865 36.6755 5.32928 36.8988C5.94288 37.3169 6.57917 37.6623 7.21677 38.0085C7.52653 38.1767 7.83661 38.345 8.14454 38.5219C9.25768 39.1465 10.369 39.7838 11.4824 40.4223C12.9944 41.2893 14.5102 42.1586 16.0393 43.0011C16.4083 43.2515 16.8361 43.4017 17.2806 43.437C17.7252 43.4724 18.1713 43.3916 18.5753 43.2027C18.9793 43.0138 19.3273 42.7233 19.5852 42.3594C19.8432 41.9956 20.0022 41.571 20.0468 41.1272C20.1013 40.5606 19.9758 39.9911 19.688 39.5C19.4002 39.0088 18.9648 38.6211 18.4438 38.3918ZM11.2702 95.2266C11.5175 95.3799 11.7429 95.5138 11.9521 95.6379C12.3446 95.8711 12.6797 96.07 12.9935 96.2989C13.3759 96.5356 13.6879 96.8705 13.8968 97.2688C14.1058 97.6671 14.2041 98.1139 14.1816 98.5632C14.1591 99.0124 14.0166 99.4474 13.7688 99.8228C13.5211 100.198 13.1772 100.5 12.773 100.698C9.76741 102.211 6.76179 103.623 3.75617 104.996C3.14179 105.253 2.45185 105.262 1.83113 105.021C1.21041 104.78 0.707229 104.307 0.427197 103.703C0.147166 103.099 0.112078 102.41 0.329297 101.78C0.546516 101.151 0.999129 100.63 1.59216 100.327C2.52285 99.8342 3.47691 99.3834 4.47031 98.9141C4.93125 98.6963 5.40066 98.4745 5.88014 98.2427C5.70745 98.1328 5.5446 98.0327 5.38975 97.9376C5.05048 97.7291 4.74956 97.5442 4.46753 97.331C4.12241 97.1014 3.83937 96.79 3.6436 96.4246C3.44782 96.0592 3.34537 95.6512 3.34537 95.2367C3.34537 94.8221 3.44782 94.4141 3.6436 94.0487C3.83937 93.6834 4.12241 93.3719 4.46753 93.1424C7.61341 91.2386 10.8194 89.435 14.0555 87.6915C14.3456 87.5423 14.6626 87.4526 14.9879 87.4273C15.3131 87.402 15.6402 87.4418 15.9499 87.5445C16.2596 87.6471 16.5457 87.8104 16.7915 88.0249C17.0374 88.2394 17.238 88.5008 17.3817 88.7938C17.5445 89.0786 17.6496 89.3926 17.6909 89.718C17.7321 90.0435 17.7088 90.374 17.6222 90.6904C17.5357 91.0069 17.3877 91.3032 17.1865 91.5623C16.9853 91.8214 16.735 92.0383 16.4499 92.2005C15.2148 92.9881 13.9201 93.722 12.5339 94.5079L12.5333 94.5083L12.5331 94.5084L12.5307 94.5097L12.5167 94.5177L12.5142 94.5191L12.4999 94.5272L12.498 94.5283C12.0967 94.7558 11.6877 94.9877 11.2702 95.2266ZM101.751 128.603C101.059 127.832 100.358 127.07 99.5365 126.178C102.672 125.326 103.273 123.513 101.36 121.108C100.416 119.905 99.4618 118.708 98.5075 117.511L98.5064 117.509L98.5054 117.508C97.7594 116.572 97.013 115.635 96.2704 114.695C95.8858 114.109 95.2963 113.687 94.6173 113.513C94.1125 113.37 93.5755 113.39 93.0827 113.57C92.5898 113.75 92.1662 114.08 91.8721 114.515C91.549 114.953 91.3805 115.486 91.3932 116.03C91.4059 116.574 91.5991 117.098 91.9423 117.521C92.6485 118.418 93.3249 119.295 94.0346 120.215L94.0369 120.218L94.0377 120.219L94.0402 120.223L94.0403 120.223L94.0404 120.223L94.0404 120.223L94.0405 120.223C94.3356 120.606 94.6366 120.996 94.9479 121.399L94.1464 121.539C93.6228 121.556 93.116 121.728 92.6899 122.033C92.2639 122.338 91.9375 122.762 91.7519 123.252C91.56 123.771 91.529 124.335 91.6631 124.871C91.7971 125.408 92.09 125.891 92.5033 126.258C93.8645 127.664 95.1983 129.124 96.5452 130.599C97.0225 131.122 97.5013 131.646 97.9836 132.17C99.2259 133.533 100.799 133.563 101.891 132.531C102.983 131.499 102.933 129.926 101.751 128.603ZM39.0761 121.518L39.0768 121.519C39.3557 121.571 39.6454 121.626 39.9253 121.71C40.3515 121.807 40.745 122.014 41.0673 122.31C41.3896 122.605 41.6297 122.979 41.764 123.396C41.8983 123.812 41.9223 124.256 41.8336 124.684C41.7448 125.112 41.5464 125.51 41.2577 125.838C39.3041 128.103 37.2503 130.287 35.1764 132.441C34.9503 132.694 34.675 132.897 34.3673 133.039C34.0597 133.182 33.7262 133.259 33.3875 133.268C33.0487 133.276 32.7118 133.215 32.3975 133.089C32.0831 132.962 31.798 132.772 31.5596 132.532C31.0689 132.061 30.7817 131.417 30.7592 130.737C30.7367 130.058 30.9808 129.396 31.4394 128.894C31.9514 128.289 32.4899 127.706 33.0431 127.107C33.3234 126.803 33.6076 126.495 33.894 126.179C30.718 125.297 30.167 123.513 32.1507 120.998C32.9869 119.947 33.8205 118.895 34.6542 117.844C35.4886 116.791 36.3231 115.738 37.1601 114.686C38.2722 113.303 39.815 113.022 41.0173 113.954C42.2195 114.886 42.3397 116.429 41.2677 117.862C40.7846 118.503 40.2952 119.137 39.8066 119.77L39.8059 119.771C39.4233 120.267 39.0412 120.762 38.6629 121.259C38.6629 121.269 38.6663 121.282 38.6718 121.3C38.6741 121.306 38.6767 121.314 38.6796 121.322L38.6865 121.341L38.6865 121.341C38.6971 121.37 38.71 121.406 38.723 121.449C38.8371 121.473 38.9547 121.495 39.0743 121.518L39.0752 121.518L39.0761 121.518ZM91.873 69.8688C93.5166 71.5033 95.7083 72.4696 98.0236 72.5805C98.3846 72.6191 98.7496 72.584 99.0965 72.477C99.4435 72.37 99.765 72.1932 100.041 71.9579C100.318 71.7226 100.544 71.4337 100.705 71.1083C100.866 70.783 100.959 70.428 100.979 70.0654C100.991 69.7187 100.934 69.373 100.811 69.0485C100.688 68.724 100.502 68.4272 100.263 68.1754C100.025 67.9236 99.7382 67.7219 99.4207 67.5819C99.1033 67.4419 98.7612 67.3665 98.4143 67.3601C95.8996 67.1196 94.5571 65.7969 94.3066 63.352C94.3044 62.9942 94.2296 62.6407 94.0868 62.3126C93.944 61.9845 93.7361 61.6888 93.4758 61.4434C93.2154 61.198 92.908 61.0078 92.572 60.8847C92.2361 60.7615 91.8787 60.7079 91.5214 60.7269C91.1662 60.7654 90.8222 60.8741 90.5091 61.0464C90.1961 61.2187 89.9203 61.4511 89.6977 61.7306C89.4751 62.0101 89.31 62.331 89.2121 62.6746C89.1141 63.0183 89.0851 63.378 89.1269 63.7329C89.2508 66.0478 90.2293 68.2342 91.873 69.8688ZM84.398 78.954C85.1002 78.9099 85.7914 79.1454 86.3207 79.6091C86.8499 80.0728 87.1744 80.7271 87.2233 81.4291C87.2381 81.7661 87.1863 82.1028 87.0709 82.4197C86.9555 82.7366 86.7788 83.0275 86.5508 83.276C86.3228 83.5245 86.048 83.7256 85.7422 83.8678C85.4365 84.01 85.1057 84.0905 84.7687 84.1047C84.0514 84.1519 83.3531 84.3558 82.723 84.7021C82.0929 85.0484 81.5464 85.5285 81.1219 86.1089C80.9217 86.381 80.6688 86.61 80.3782 86.7822C80.0876 86.9543 79.7654 87.0663 79.4306 87.1112C79.0959 87.1561 78.7555 87.133 78.4299 87.0434C78.1042 86.9539 77.8 86.7998 77.5352 86.5901C76.9918 86.1798 76.633 85.5708 76.5373 84.8966C76.4415 84.2224 76.6166 83.5379 77.0242 82.9925C77.8403 81.778 78.9361 80.7772 80.2192 80.0745C81.5024 79.3717 82.9355 78.9875 84.398 78.954ZM115.269 68.8254C115.704 69.1041 116.212 69.2467 116.729 69.2347C117.401 69.2117 118.038 68.9317 118.51 68.4526C118.981 67.9735 119.251 67.3317 119.263 66.6594C119.267 66.1428 119.117 65.6367 118.831 65.2061C118.546 64.7754 118.139 64.4398 117.661 64.2422C117.184 64.0446 116.659 63.994 116.152 64.0969C115.646 64.1997 115.182 64.4513 114.82 64.8195C114.457 65.1877 114.213 65.6557 114.118 66.1636C114.023 66.6714 114.082 67.196 114.287 67.6703C114.492 68.1445 114.834 68.5467 115.269 68.8254ZM44.3231 63.6336C44.2226 65.9728 43.2491 68.1893 41.5947 69.8458C39.9403 71.5023 37.7251 72.4784 35.3864 72.5815C35.0286 72.6144 34.6678 72.575 34.3256 72.4653C33.9834 72.3556 33.6668 72.178 33.3946 71.9433C33.1225 71.7085 32.9005 71.4215 32.7418 71.099C32.5831 70.7766 32.491 70.4253 32.471 70.0665C32.4657 69.72 32.529 69.376 32.6573 69.0542C32.7856 68.7323 32.9763 68.4391 33.2184 68.1914C33.4606 67.9436 33.7494 67.7462 34.0681 67.6106C34.3869 67.475 34.7294 67.4038 35.0758 67.4012C36.1516 67.3805 37.1773 66.9425 37.9362 66.1797C38.6952 65.4169 39.128 64.3889 39.1434 63.3129C39.1486 62.9655 39.2222 62.6227 39.36 62.3038C39.4978 61.9849 39.697 61.6961 39.9464 61.4542C40.1957 61.2123 40.4902 61.0218 40.8132 60.8937C41.1361 60.7657 41.4811 60.7025 41.8284 60.7078C42.1854 60.7331 42.5339 60.829 42.8534 60.9904C43.1728 61.1517 43.457 61.3751 43.6892 61.6475C43.9214 61.9198 44.0971 62.2358 44.2059 62.5768C44.3148 62.9178 44.3546 63.2771 44.3231 63.6336ZM48.1628 54.7364C49.7405 56.3405 51.8744 57.2763 54.1229 57.3506C54.4674 57.4064 54.8196 57.3918 55.1584 57.3078C55.4971 57.2237 55.8153 57.0722 56.0938 56.8618C56.3723 56.6515 56.6053 56.3867 56.7788 56.0839C56.9523 55.781 57.0627 55.4461 57.1033 55.0995C57.144 54.7528 57.114 54.4016 57.0152 54.0669C56.9164 53.7321 56.7508 53.4208 56.5285 53.1517C56.3062 52.8827 56.0317 52.6616 55.7215 52.5015C55.4114 52.3414 55.0721 52.2458 54.724 52.2204C51.7986 51.6593 51.3477 51.1982 50.7967 48.2823C50.7296 47.6052 50.3982 46.9818 49.8745 46.5474C49.3508 46.113 48.6769 45.9027 47.999 45.962C47.3212 46.0214 46.6941 46.3456 46.2538 46.8645C45.8135 47.3833 45.5955 48.0549 45.6471 48.7334C45.6844 50.9832 46.5851 53.1324 48.1628 54.7364ZM49.0209 78.9538C50.4656 78.9774 51.8848 79.3386 53.1651 80.0085C54.4454 80.6784 55.5514 81.6385 56.3947 82.812C56.6188 83.0776 56.7873 83.3853 56.8902 83.7172C56.9931 84.0492 57.0283 84.3985 56.9937 84.7443C56.9592 85.0901 56.8556 85.4255 56.689 85.7305C56.5224 86.0355 56.2963 86.3038 56.024 86.5197C55.7525 86.7395 55.4386 86.9009 55.102 86.9941C54.7653 87.0873 54.4131 87.1103 54.0673 87.0614C53.7214 87.0125 53.3893 86.8929 53.0916 86.7101C52.794 86.5273 52.5371 86.285 52.3371 85.9986C51.9144 85.449 51.3795 84.9958 50.7679 84.6692C50.1564 84.3426 49.4822 84.1501 48.7905 84.1045C48.4431 84.1008 48.1004 84.0247 47.7842 83.8809C47.468 83.7371 47.1853 83.5287 46.9542 83.2693C46.7232 83.0098 46.5488 82.705 46.4423 82.3743C46.3359 82.0436 46.2996 81.6943 46.3359 81.3487C46.3746 80.6751 46.6793 80.0444 47.1827 79.5953C47.6862 79.1462 48.3474 78.9155 49.0209 78.9538ZM78.3524 57.2841C78.7007 57.3763 79.0642 57.3955 79.4202 57.3406C81.62 57.249 83.7045 56.3321 85.2585 54.7722C86.8126 53.2124 87.7221 51.1242 87.8058 48.9238C87.8428 48.5801 87.8108 48.2326 87.7117 47.9015C87.6125 47.5704 87.4482 47.2624 87.2284 46.9956C87.0086 46.7289 86.7378 46.5087 86.4318 46.3481C86.1257 46.1875 85.7907 46.0895 85.4464 46.0602C85.102 46.0308 84.7553 46.0706 84.4265 46.1771C84.0977 46.2836 83.7935 46.4546 83.5317 46.6803C83.2699 46.906 83.0559 47.1817 82.9021 47.4912C82.7483 47.8008 82.6579 48.138 82.6362 48.483C82.2555 50.978 81.484 51.7595 78.9192 52.1803C78.2211 52.2218 77.5673 52.5359 77.0987 53.0551C76.6301 53.5744 76.3844 54.2571 76.4146 54.9559C76.4421 55.3151 76.5435 55.6647 76.7125 55.9829C76.8815 56.3011 77.1144 56.581 77.3966 56.8049C77.6788 57.0288 78.0042 57.1919 78.3524 57.2841Z" fill="#585454"/>
</svg>
