<svg width="257" height="36" viewBox="0 0 257 36" fill="none" xmlns="http://www.w3.org/2000/svg">
<path d="M115.87 24.7167C117.547 20.1943 119.216 15.6687 120.879 11.1396C122.002 11.1396 123.074 11.1396 124.156 11.1396C124.657 11.1396 124.797 11.3495 124.787 11.7904C124.787 12.6421 124.787 13.4936 124.787 14.3453V29.4557C124.787 30.6681 124.787 30.6681 123.584 30.6681H122.402V13.9147H122.192C122.062 14.2053 121.921 14.4862 121.811 14.7768C120.338 18.7849 118.806 22.722 117.423 26.71C117.366 26.9486 117.223 27.1587 117.022 27.299C116.821 27.4394 116.575 27.5011 116.331 27.4722C114.117 27.4722 114.127 27.4719 113.325 25.3977C112.023 21.8239 110.717 18.2406 109.408 14.6467C109.318 14.4062 109.218 14.165 109.118 13.9245H108.897C108.897 14.2452 108.897 14.5658 108.897 14.9265V29.6162C108.897 30.7184 108.897 30.718 107.785 30.718H106.593V11.1993C107.835 11.1993 109.097 11.1993 110.36 11.1993C110.55 11.1993 110.791 11.5898 110.891 11.8403C112.374 15.8483 113.836 19.8567 115.309 23.9349C115.409 24.2054 115.54 24.4755 115.65 24.7461L115.87 24.7167Z" fill="white"/>
<path d="M32.2854 11.0479C34.9003 11.1481 37.4953 11.0479 40.03 11.3786C40.7092 11.4226 41.3692 11.6229 41.9589 11.9628C42.5486 12.3026 43.0522 12.7729 43.4309 13.3386C43.8095 13.9042 44.0531 14.5494 44.1427 15.2242C44.2322 15.899 44.1653 16.5853 43.9472 17.2302C43.7963 17.7384 43.5399 18.2095 43.1946 18.6119C42.8493 19.0142 42.4229 19.3387 41.9435 19.5649C41.6028 19.7553 41.2422 19.916 40.7212 20.1765L41.7231 20.5073C42.6449 20.7644 43.4657 21.2975 44.0748 22.0357C44.6839 22.7739 45.052 23.6817 45.1295 24.6357C45.2898 27.1707 44.398 28.9137 42.2941 29.8356C41.3427 30.2565 40.326 30.5107 39.2885 30.5871C37.0042 30.6973 34.6999 30.5871 32.2754 30.5871L32.2854 11.0479ZM34.5898 24.9958C34.5898 25.9978 34.5898 26.9998 34.5898 28.0018C34.5898 28.2323 34.9405 28.6232 35.1308 28.6232C36.6355 28.66 38.141 28.6063 39.6393 28.4627C40.0484 28.4564 40.4521 28.3686 40.8264 28.2034C41.2007 28.0381 41.5381 27.7989 41.8184 27.5008C42.0987 27.2027 42.3163 26.8513 42.4582 26.4675C42.6002 26.0837 42.6637 25.6756 42.6449 25.2668C42.6449 23.1325 41.8534 21.9706 39.7595 21.66C38.2092 21.4926 36.649 21.4348 35.0907 21.4887C34.9204 21.4887 34.6199 21.8498 34.6098 22.0602C34.5597 23.0121 34.5898 24.0038 34.5898 24.9958ZM34.5898 16.2888C34.5898 17.1305 34.5898 17.9825 34.5898 18.8242C34.5898 19.0446 34.9104 19.4152 35.0707 19.4152C36.566 19.4197 38.0596 19.3122 39.539 19.0943C40.1812 18.9458 40.7528 18.5807 41.1571 18.06C41.5614 17.5392 41.7737 16.8951 41.7584 16.236C41.7431 15.5769 41.5011 14.9428 41.0731 14.4414C40.6451 13.94 40.0572 13.6019 39.4087 13.4834C37.949 13.3159 36.4795 13.2487 35.0106 13.2828C34.8703 13.2828 34.5998 13.6333 34.5898 13.8337C34.5597 14.6453 34.5898 15.4672 34.5898 16.2888Z" fill="white"/>
<path d="M177.966 25.6281H180.37C180.43 25.7483 180.481 25.8479 180.521 25.9481C180.692 26.5261 180.986 27.0611 181.382 27.5157C181.779 27.9702 182.268 28.3333 182.817 28.5822C183.366 28.8312 183.962 28.9596 184.565 28.958C185.168 28.9564 185.764 28.8253 186.311 28.5734C186.826 28.3672 187.277 28.0306 187.621 27.5959C187.964 27.1612 188.188 26.6438 188.27 26.0958C188.352 25.5478 188.29 24.9877 188.088 24.4715C187.887 23.9552 187.554 23.5002 187.123 23.1524C186.41 22.6452 185.627 22.2441 184.799 21.9606C183.677 21.4996 182.484 21.2088 181.372 20.7178C180.277 20.322 179.363 19.5421 178.799 18.523C178.235 17.5039 178.06 16.3147 178.306 15.1764C178.491 14.1063 179.012 13.1234 179.794 12.37C180.576 11.6167 181.578 11.1326 182.655 10.9884C184.254 10.6725 185.912 10.8438 187.414 11.4796C188.347 11.8736 189.136 12.5455 189.674 13.4043C190.212 14.2632 190.472 15.2673 190.419 16.2792C189.758 16.2792 189.087 16.2792 188.415 16.2792C188.225 16.2792 187.975 15.9583 187.904 15.7479C187.761 15.1909 187.494 14.6726 187.125 14.2322C186.755 13.7917 186.291 13.4402 185.767 13.2028C185.243 12.9653 184.673 12.8481 184.098 12.8603C183.523 12.8724 182.958 13.0139 182.444 13.2732C181.96 13.4493 181.537 13.7609 181.226 14.1715C180.915 14.5821 180.729 15.0737 180.691 15.5874C180.599 16.08 180.661 16.5887 180.867 17.0454C181.072 17.5022 181.413 17.8849 181.843 18.1424C182.792 18.6426 183.773 19.0816 184.779 19.4555C185.78 19.8864 186.933 20.187 187.924 20.7081C188.969 21.2469 189.802 22.1198 190.292 23.1876C190.783 24.2555 190.901 25.4566 190.63 26.5998C190.463 27.6872 189.943 28.6897 189.149 29.4522C188.356 30.2146 187.334 30.6945 186.241 30.8182C184.533 31.1639 182.759 30.9749 181.162 30.2771C180.248 29.8777 179.465 29.2307 178.9 28.409C178.335 27.5874 178.011 26.6242 177.966 25.6281Z" fill="white"/>
<path d="M201.479 17.5326V15.919H203.773V35.3183H201.529V28.9452C201.339 29.0854 201.229 29.1253 201.199 29.2054C199.816 31.9009 194.907 31.4604 193.544 28.6046C193.111 27.7806 192.848 26.877 192.773 25.9489C192.648 23.7846 192.735 21.6135 193.033 19.4662C193.544 16.6305 195.919 15.268 198.764 15.739C199.855 15.9919 200.818 16.6285 201.479 17.5326ZM201.599 23.2942C201.499 22.222 201.489 21.1396 201.289 20.0875C201.196 19.3669 200.835 18.7073 200.278 18.2411C199.721 17.7748 199.009 17.5365 198.283 17.5727C197.923 17.5354 197.559 17.5699 197.212 17.6745C196.865 17.7791 196.543 17.9511 196.263 18.1814C195.983 18.4116 195.752 18.6948 195.583 19.0151C195.414 19.3354 195.31 19.6866 195.277 20.0474C195.072 22.2035 195.072 24.374 195.277 26.5302C195.438 28.1835 196.68 28.9853 198.283 28.9853C199.008 29.034 199.725 28.8018 200.284 28.3375C200.843 27.8732 201.203 27.212 201.289 26.49C201.489 25.4479 201.499 24.3663 201.599 23.2942Z" fill="white"/>
<path d="M227.999 29.1855L227.919 30.6083H225.755V11.1992H227.939V17.5019C228.119 17.5019 228.19 17.5019 228.21 17.5019C229.332 15.7283 231.015 15.4077 232.898 15.7885C233.79 15.943 234.612 16.3676 235.254 17.0058C235.896 17.644 236.326 18.4643 236.485 19.3552C237.105 21.9541 237.105 24.6629 236.485 27.2617C236.351 27.9197 236.078 28.541 235.683 29.0847C235.289 29.6284 234.784 30.0814 234.2 30.4136C233.617 30.7457 232.969 30.9493 232.3 31.0105C231.632 31.0716 230.958 30.9895 230.323 30.7688C229.482 30.3468 228.7 29.8143 227.999 29.1855ZM227.819 23.2233C227.949 24.3656 227.979 25.498 228.21 26.6002C228.304 27.2845 228.652 27.9081 229.185 28.3479C229.717 28.7877 230.395 29.0118 231.085 28.9751C232.778 28.9751 233.85 28.3534 234.231 26.7402C234.772 24.4775 234.772 22.1189 234.231 19.8562C234.11 19.1665 233.734 18.5479 233.176 18.1242C232.619 17.7006 231.922 17.5038 231.225 17.5724C230.517 17.5209 229.814 17.7374 229.258 18.179C228.701 18.6207 228.331 19.2552 228.22 19.957C227.979 21.0192 227.949 22.1312 227.819 23.2233Z" fill="white"/>
<path d="M239.383 11.1787H241.517V17.5215L241.737 17.6125C242.079 16.9442 242.615 16.3948 243.275 16.0371C243.935 15.6794 244.688 15.5302 245.434 15.6085C248.229 15.8089 249.762 17.1508 250.253 20.0667C250.658 22.3572 250.62 24.7044 250.143 26.9809C250.031 27.6574 249.774 28.3017 249.39 28.8695C249.006 29.4373 248.504 29.9146 247.917 30.2698C247.331 30.6249 246.674 30.849 245.993 30.9263C245.312 31.0037 244.622 30.9325 243.971 30.7179C243.102 30.3008 242.293 29.7692 241.567 29.1356L241.457 30.5477H239.383V11.1787ZM248.299 23.2938C248.197 22.1138 248.033 20.9391 247.808 19.776C247.676 19.112 247.303 18.5211 246.761 18.1145C246.22 17.7079 245.548 17.5149 244.873 17.5724C244.188 17.5084 243.503 17.6983 242.948 18.1067C242.394 18.515 242.01 19.1132 241.867 19.7868C241.311 22.0748 241.311 24.462 241.867 26.75C242.054 27.4033 242.448 27.9779 242.991 28.3871C243.533 28.7962 244.194 29.0182 244.873 29.0182C245.552 29.0182 246.213 28.7962 246.755 28.3871C247.298 27.9779 247.692 27.4033 247.879 26.75C248.077 25.6055 248.218 24.4525 248.299 23.2938Z" fill="white"/>
<path d="M150.537 23.9859H143.203C141.681 23.9859 141.681 23.9857 141.891 25.5388C141.947 26.0139 142.044 26.4836 142.181 26.942C142.347 27.5324 142.705 28.0505 143.199 28.4137C143.693 28.7769 144.294 28.9643 144.907 28.946C145.536 29.0529 146.183 28.933 146.734 28.6084C147.284 28.2838 147.701 27.7759 147.912 27.1729C148 27.0351 148.114 26.9156 148.248 26.8226C148.382 26.7297 148.534 26.6652 148.694 26.6318C149.197 26.5867 149.703 26.5867 150.206 26.6318C150.317 28.3152 148.754 30.2088 146.91 30.7299C143.093 31.792 139.897 29.5369 139.657 25.5789C139.513 23.6936 139.58 21.7983 139.857 19.9279C139.996 19.1103 140.324 18.3368 140.815 17.6685C141.306 17.0002 141.947 16.4551 142.685 16.0784C143.424 15.7017 144.241 15.5031 145.07 15.4981C145.899 15.4932 146.718 15.6822 147.461 16.05C148.242 16.4107 148.914 16.9715 149.408 17.6754C149.903 18.3792 150.202 19.2011 150.277 20.0581C150.447 21.2905 150.437 22.573 150.537 23.9859ZM148.203 22.2324C148.103 21.4107 148.083 20.7091 147.942 20.0277C147.887 19.3536 147.578 18.7258 147.078 18.2703C146.578 17.8148 145.923 17.5662 145.247 17.5736C144.546 17.5016 143.843 17.6876 143.269 18.0971C142.696 18.5066 142.291 19.1113 142.131 19.7978C141.989 20.4022 141.882 21.0146 141.811 21.6315C141.741 22.0724 141.951 22.2424 142.382 22.2324H148.203Z" fill="white"/>
<path d="M93.1685 23.2733C93.1178 24.3736 93.0108 25.4708 92.848 26.5601C92.2469 29.5662 90.213 31.0793 87.0371 30.939C85.7375 30.9398 84.4886 30.435 83.5539 29.5319C82.6192 28.6289 82.0719 27.3983 82.0277 26.0993C81.827 24.0776 81.8674 22.0387 82.1479 20.0265C82.2156 19.3657 82.4159 18.7255 82.7367 18.1438C83.0575 17.5622 83.4924 17.0515 84.0152 16.6418C84.538 16.2321 85.1381 15.9316 85.7796 15.7592C86.4211 15.5868 87.0906 15.5454 87.7484 15.6378C88.4312 15.6339 89.1082 15.7647 89.7406 16.0224C90.373 16.2801 90.9483 16.6598 91.434 17.1399C91.9196 17.62 92.3059 18.1915 92.5709 18.821C92.8358 19.4504 92.9743 20.1254 92.9782 20.8084C93.0484 21.63 92.9782 22.4516 92.9782 23.2733H93.1685ZM90.9143 23.5639C90.8242 22.3715 90.7941 21.4697 90.6739 20.5579C90.6739 19.7606 90.3572 18.9962 89.7936 18.4325C89.2299 17.8688 88.4654 17.5518 87.6683 17.5518C87.2853 17.5001 86.8959 17.5261 86.5229 17.6272C86.15 17.7283 85.801 17.9028 85.4966 18.1409C85.1922 18.379 84.9385 18.6751 84.7506 19.0128C84.5626 19.3505 84.4441 19.7226 84.4022 20.1068C83.9433 22.2697 83.9673 24.5073 84.4724 26.66C84.6589 27.3132 85.0532 27.8879 85.5955 28.297C86.1379 28.7062 86.7987 28.9282 87.478 28.9282C88.1573 28.9282 88.8181 28.7062 89.3604 28.297C89.9027 27.8879 90.297 27.3132 90.4836 26.66C90.681 25.6361 90.8247 24.6028 90.9143 23.5639Z" fill="white"/>
<path d="M214.794 15.9189H216.938C216.938 16.2696 217.008 16.6204 217.008 16.921C217.008 21.0292 217.008 25.1341 217.008 29.2357C217.008 30.7187 217.189 30.578 215.626 30.588C215.395 30.588 215.175 30.588 214.844 30.588C214.844 30.0169 214.784 29.4766 214.764 28.9255L214.493 28.6848C214.454 28.8741 214.387 29.0565 214.293 29.2259C213.756 29.9669 212.993 30.514 212.12 30.7867C211.246 31.0593 210.308 31.0427 209.444 30.7387C208.665 30.549 207.968 30.1095 207.462 29.4872C206.955 28.8648 206.666 28.0933 206.639 27.2914C206.489 25.2874 206.499 23.2236 206.479 21.1795C206.479 19.456 206.479 17.7321 206.479 15.9385H208.783V16.8505C208.783 19.6762 208.783 22.5126 208.783 25.3382C208.776 25.8191 208.82 26.299 208.913 26.7708C208.95 27.36 209.204 27.9149 209.626 28.3276C210.048 28.7404 210.608 28.9811 211.197 29.0048C211.817 29.1285 212.461 29.0353 213.019 28.7396C213.578 28.4439 214.017 27.9645 214.263 27.3824C214.584 26.5398 214.756 25.6475 214.774 24.7462C214.794 21.8705 214.794 18.925 214.794 15.9189Z" fill="white"/>
<path d="M171.714 19.8572H169.611C169.505 19.3939 169.295 18.9612 168.999 18.59C168.702 18.2188 168.325 17.9194 167.897 17.7142C167.468 17.509 166.998 17.4034 166.523 17.405C166.048 17.4066 165.579 17.5149 165.152 17.723C164.773 17.8503 164.441 18.0882 164.198 18.406C163.955 18.7239 163.813 19.1075 163.79 19.5069C163.713 19.9168 163.782 20.3402 163.982 20.7056C164.183 21.0709 164.505 21.3558 164.892 21.5109C165.773 21.8917 166.695 22.1522 167.607 22.5129C168.228 22.7133 168.859 22.874 169.46 23.1245C170.239 23.375 170.911 23.8816 171.365 24.5619C171.82 25.2423 172.031 26.0556 171.965 26.8713C171.963 27.7298 171.68 28.5639 171.159 29.2461C170.637 29.9284 169.907 30.4216 169.08 30.6493C167.504 31.1657 165.806 31.1657 164.231 30.6493C163.401 30.4206 162.678 29.9078 162.188 29.2011C161.697 28.4944 161.47 27.6382 161.545 26.7812C162.123 26.7512 162.701 26.7512 163.279 26.7812C163.387 26.8231 163.484 26.8907 163.561 26.9779C163.637 27.0651 163.692 27.1694 163.72 27.2822C164.11 29.5368 168.048 29.6169 169.19 28.2842C169.379 28.0664 169.518 27.8106 169.599 27.5337C169.68 27.2569 169.701 26.9658 169.659 26.6804C169.617 26.395 169.514 26.1219 169.357 25.88C169.2 25.6381 168.993 25.4326 168.749 25.2782C168.041 24.9315 167.303 24.65 166.545 24.4367C165.874 24.2162 165.172 24.0861 164.541 23.8456C163.546 23.6031 162.687 22.9773 162.15 22.1049C161.614 21.2324 161.443 20.1834 161.676 19.1859C161.817 18.2512 162.29 17.3986 163.007 16.7826C163.724 16.1667 164.638 15.8285 165.583 15.8296C166.65 15.7371 167.725 15.8112 168.769 16.0497C169.611 16.2707 170.356 16.7643 170.889 17.4529C171.422 18.1416 171.712 18.9865 171.714 19.8572Z" fill="white"/>
<path d="M61.2188 26.6997C61.8292 26.6591 62.4418 26.6591 63.0523 26.6997C63.2426 26.6997 63.473 27.0603 63.5532 27.2908C63.734 27.8217 64.0811 28.2803 64.5432 28.5981C65.0053 28.9158 65.5576 29.0764 66.1179 29.055C66.6905 29.1821 67.2878 29.1381 67.8361 28.9298C68.3844 28.7215 68.8599 28.358 69.2038 27.8828C69.3638 27.6539 69.4713 27.3918 69.5184 27.1166C69.5656 26.8413 69.5514 26.5598 69.4767 26.2907C69.4021 26.0216 69.2688 25.7723 69.0865 25.5607C68.9042 25.3492 68.6774 25.1801 68.4223 25.0666C67.5646 24.706 66.6844 24.4012 65.7874 24.1546C65.2463 23.9742 64.6953 23.8442 64.1643 23.6438C63.2494 23.3917 62.4598 22.8107 61.9475 22.0116C61.4353 21.2126 61.2364 20.2516 61.3891 19.3148C61.4721 18.3994 61.8734 17.5419 62.5233 16.892C63.1732 16.242 64.0305 15.8409 64.9458 15.7579C66.1529 15.6122 67.3759 15.6729 68.5626 15.9379C69.4284 16.1361 70.1953 16.6365 70.7259 17.3489C71.2565 18.0614 71.5161 18.9401 71.458 19.8266H69.4542C68.5626 17.7023 67.1999 16.9907 65.2162 17.6219C64.7725 17.7298 64.3749 17.9759 64.0812 18.3255C63.7874 18.6752 63.6129 19.1096 63.5832 19.5653C63.5382 19.9966 63.6418 20.4309 63.8768 20.7953C64.1118 21.1597 64.4642 21.4324 64.8756 21.5693C65.8775 21.9801 66.8794 22.2407 67.9414 22.5713C68.4561 22.7251 68.9612 22.9099 69.4542 23.1232C70.1799 23.3867 70.7985 23.8812 71.215 24.5313C71.6314 25.1814 71.8224 25.9509 71.7585 26.7203C71.7943 27.5055 71.5824 28.2814 71.1527 28.9396C70.723 29.5977 70.0972 30.1049 69.364 30.3878C68.4594 30.7723 67.4866 30.97 66.5037 30.97C65.5207 30.97 64.5479 30.7723 63.6433 30.3878C62.9227 30.0779 62.3089 29.5627 61.8779 28.9073C61.447 28.2518 61.2177 27.4842 61.2188 26.6997Z" fill="white"/>
<path d="M136.409 15.9169H138.653L137.331 19.8652C135.718 24.6548 134.085 29.434 132.532 34.2437C132.221 35.2457 131.751 35.5763 130.789 35.4159C130.518 35.4159 130.228 35.4159 129.787 35.4159C130.168 34.3338 130.458 33.3121 130.879 32.3502C131.084 31.8932 131.196 31.3991 131.206 30.8981C131.216 30.3971 131.125 29.8993 130.939 29.4342C129.526 25.2658 128.204 21.0671 126.851 16.8787C126.771 16.6082 126.701 16.3372 126.591 15.9364C127.258 15.8897 127.927 15.8897 128.595 15.9364C128.815 15.9364 129.076 16.3381 129.166 16.6087C130.168 19.8852 131.169 23.1817 132.171 26.4683C132.271 26.8251 132.457 27.1521 132.712 27.4204C133.961 23.5994 135.194 19.7646 136.409 15.9169Z" fill="white"/>
<path d="M3.55071 20.5089C3.62477 22.4811 3.80529 24.4478 4.09163 26.4006C4.39702 27.8067 5.02734 29.1215 5.93199 30.2403C6.83664 31.3591 7.99056 32.2504 9.30145 32.8432C10.3033 33.3643 10.6139 33.946 10.3834 34.6975C10.3312 34.9193 10.2272 35.1255 10.08 35.2993C9.93275 35.4731 9.74638 35.6096 9.53626 35.6976C9.32614 35.7855 9.09822 35.8223 8.87108 35.8052C8.64393 35.7881 8.42398 35.7171 8.22937 35.5987C4.41224 33.725 1.73728 30.8191 1.13616 26.5806C0.818325 23.4617 0.69118 20.3261 0.755443 17.1917C0.747597 16.9914 0.782457 16.7923 0.857685 16.6065C0.932913 16.4208 1.04683 16.2527 1.19181 16.1143C1.33679 15.976 1.50955 15.8706 1.69861 15.8041C1.88767 15.7377 2.08868 15.7116 2.28834 15.7288C3.18 15.7288 3.67095 16.2807 3.69098 17.2827C3.71102 18.2847 3.69098 19.4367 3.69098 20.5089H3.55071Z" fill="white"/>
<path d="M13.8913 11.3098C13.8913 14.0853 13.8913 16.8607 13.8913 19.6263C13.8913 20.7084 13.3803 21.36 12.4987 21.4101C11.617 21.4602 10.9358 20.9185 10.8156 19.8063C10.8156 19.4957 10.8156 19.1854 10.8156 18.8748V3.42383C10.7906 3.11371 10.7906 2.80142 10.8156 2.4913C10.8493 2.0937 11.0264 1.7228 11.314 1.44623C11.6016 1.16966 11.9799 1.00632 12.3785 0.988281C12.592 1.00334 12.8003 1.06168 12.9912 1.15854C13.182 1.25541 13.3515 1.38946 13.4897 1.55289C13.6279 1.71632 13.732 1.90537 13.7958 2.10967C13.8596 2.31397 13.8818 2.52875 13.8612 2.7418C13.8612 5.05644 13.8612 7.38154 13.8612 9.69618L13.8913 11.3098Z" fill="white"/>
<path d="M72.5293 17.9236V15.9196C73.1605 15.9196 73.7516 15.9196 74.3327 15.9196C74.9138 15.9196 75.034 15.7288 75.0239 15.2278C75.0239 13.9051 75.0239 12.5724 75.0239 11.2197H77.228V15.9H80.394V17.904C79.5624 17.904 78.7208 17.904 77.8793 17.904C77.4685 17.904 77.238 18.0136 77.238 18.4745C77.238 21.2701 77.2381 24.0756 77.3283 26.8713C77.3884 28.4845 77.9094 28.8753 79.5424 28.8753H80.4541C80.4999 29.325 80.4999 29.7788 80.4541 30.2286C80.4541 30.449 80.1035 30.7993 79.9231 30.7893C78.9395 30.8198 77.956 30.722 76.9976 30.4986C75.4748 30.0477 75.1142 28.7051 75.0841 27.3224C75.0307 24.5167 75.0307 21.7148 75.0841 18.9158C75.0841 18.1242 74.8537 17.8437 74.0822 17.9138C73.5652 17.9445 73.0467 17.9477 72.5293 17.9236Z" fill="white"/>
<path d="M18.8884 13.344C18.8884 15.9392 18.8884 18.5447 18.8884 21.1399C18.9034 21.3177 18.8833 21.4965 18.8289 21.6664C18.7746 21.8363 18.6871 21.9942 18.5716 22.1302C18.4561 22.2662 18.3149 22.3778 18.156 22.459C17.9972 22.5401 17.8239 22.5889 17.6461 22.6028C17.2947 22.6637 16.9332 22.596 16.6278 22.412C16.3223 22.228 16.0935 21.9399 15.983 21.6008C15.9164 21.3562 15.8892 21.1025 15.9028 20.8493V5.75945C15.9028 4.66726 16.4939 4.01548 17.4357 4.0255C18.3775 4.03552 18.8884 4.59634 18.8984 5.70857C18.8984 8.25368 18.8984 10.7989 18.8984 13.344H18.8884Z" fill="white"/>
<path d="M8.80952 13.8246C8.80952 15.9188 8.80952 18.0126 8.80952 20.1068C8.80952 21.219 8.29848 21.77 7.3467 21.7801C6.39492 21.7901 5.83398 21.2092 5.83398 20.0569C5.83398 15.8952 5.83398 11.7336 5.83398 7.57187C5.83398 6.49971 6.38499 5.89882 7.31674 5.8888C8.24848 5.87878 8.7995 6.44934 8.80952 7.54153C8.81954 9.63573 8.80952 11.7304 8.80952 13.8246Z" fill="white"/>
<path d="M95.752 11.1787H97.9059V30.578H95.752V11.1787Z" fill="white"/>
<path d="M49.6975 30.5986H47.4834V15.9187H49.7075V18.3435C50.07 17.5059 50.7011 16.8128 51.5012 16.3737C52.3012 15.9347 53.2247 15.7746 54.1258 15.9187V17.9824L53.1239 18.0832C52.6452 18.0883 52.1727 18.1923 51.736 18.3885C51.2993 18.5848 50.9078 18.8695 50.5861 19.2242C50.2644 19.5788 50.0194 19.9956 49.8665 20.4493C49.7136 20.9031 49.6561 21.3833 49.6975 21.8603C49.6975 24.4355 49.6975 27.0214 49.6975 29.5966V30.5986Z" fill="white"/>
<path d="M153.262 30.5376V15.9185H155.406V18.4039C155.85 17.5893 156.502 16.9068 157.296 16.4263C158.09 15.9458 158.997 15.6839 159.924 15.668V17.9528C159.463 18.0129 159.023 18.0627 158.582 18.1329C157.796 18.1695 157.053 18.4977 156.497 19.0537C155.941 19.6097 155.613 20.3534 155.576 21.1389C155.416 23.5037 155.466 25.878 155.416 28.2528V28.8448C155.426 30.8689 155.346 30.9485 153.262 30.5376Z" fill="white"/>
<path d="M23.8383 17.9232C23.8383 19.5565 23.8383 21.2001 23.8383 22.8334C23.8383 24.0459 23.3473 24.6067 22.3855 24.5967C21.4237 24.5867 20.9629 24.0454 20.9629 22.8931C20.9629 19.4963 20.9629 16.1091 20.9629 12.7223C20.9629 11.9808 21.2534 11.3699 21.9648 11.2496C22.475 11.1893 22.9894 11.3216 23.4074 11.6205C23.6922 11.9584 23.8389 12.3914 23.8182 12.8329C23.8683 14.5664 23.8383 16.2598 23.8383 17.9232Z" fill="white"/>
<path d="M56.5 15.9189H58.5738C58.5738 16.2696 58.634 16.6204 58.634 16.921C58.634 21.0893 58.634 25.251 58.634 29.406C58.634 30.5883 58.634 30.588 57.4318 30.588H56.5V15.9189Z" fill="white"/>
<path d="M222.331 30.5782C220.167 30.8388 220.167 30.8392 220.167 28.8052V15.9189H222.331V30.5782Z" fill="white"/>
<path d="M219.894 12.502C219.894 11.4401 220.404 10.8291 221.276 10.8291C222.147 10.8291 222.678 11.4604 222.678 12.4922C222.678 13.5241 222.187 14.1251 221.286 14.1251C220.384 14.1251 219.894 13.574 219.894 12.502Z" fill="white"/>
<path d="M58.9127 12.461C58.9127 13.5229 58.452 14.1141 57.5506 14.1241C56.6492 14.1342 56.1283 13.5833 56.1183 12.5314C56.1083 11.4795 56.6191 10.8582 57.4804 10.8282C58.3418 10.7981 58.8927 11.4291 58.9127 12.461Z" fill="white"/>
<path d="M252.776 11.1987C253.237 11.0384 253.498 11.1984 253.638 11.6693C253.858 12.4608 254.149 13.2429 254.419 14.0644C255.25 13.1627 254.79 11.629 256.192 10.9678V14.9753H255.941V11.9696H255.671L254.669 15.0555H254.369L253.307 11.9804H253.097V14.986H252.816L252.776 11.1987Z" fill="white"/>
<path d="M250.693 11.5406L249.691 11.3909V11.2402H251.995C250.783 11.2402 251.074 12.1017 251.064 12.7929C251.054 13.4842 251.064 14.2153 251.064 14.9366H250.743L250.693 11.5406Z" fill="white"/>
</svg>
