<svg width="111" height="99" viewBox="0 0 111 99" fill="none" xmlns="http://www.w3.org/2000/svg">
<path fill-rule="evenodd" clip-rule="evenodd" d="M109.944 28.9509C109.731 29.2776 109.523 29.6077 109.314 29.9377L109.314 29.9378L109.314 29.9379C108.806 30.7415 108.298 31.5446 107.73 32.2974C107.25 32.7957 106.715 33.2391 106.137 33.6199C106.43 34.5491 106.521 35.5305 106.405 36.4977C106.288 37.465 105.966 38.3964 105.46 39.2293C104.955 40.0622 104.277 40.7773 103.473 41.3273C102.669 41.8772 101.757 42.2489 100.797 42.4178C99.8461 42.468 98.8931 42.468 97.942 42.4178C97.6268 42.476 97.3388 42.6343 97.1205 42.8689C96.6077 43.4989 96.0301 44.0731 95.3973 44.5823C95.0302 44.7834 94.7306 45.0883 94.5363 45.4591C94.342 45.8299 94.2616 46.2497 94.3052 46.6661C94.1127 50.1647 93.3338 53.6063 92.0009 56.8467C90.5668 60.4395 88.6343 63.8126 86.2602 66.8668C83.8596 69.9463 81.0597 72.6924 77.9346 75.0331L77.8927 75.0648C77.0539 75.6984 76.4853 76.1279 76.6923 77.498C76.7606 78.7745 76.3537 80.031 75.5501 81.0251C74.6699 82.1652 74.1407 83.537 74.0273 84.9729C73.7267 87.508 70.4606 90.0534 68.4869 89.8029C68.0554 89.7482 67.6171 89.7999 67.2102 89.9536C66.8033 90.1073 66.4402 90.3583 66.1526 90.6846C65.5414 91.2735 64.8175 91.7326 64.0243 92.0345C63.2311 92.3363 62.3851 92.4747 61.5371 92.441C60.6891 92.4073 59.8568 92.2021 59.09 91.8383C58.3233 91.4745 57.6381 90.9596 57.0757 90.324C56.8114 90.1085 56.4736 90.0042 56.1338 90.0334C54.569 90.0732 53.04 89.5624 51.8133 88.5901C50.5865 87.6177 49.74 86.2454 49.4213 84.7127C48.9785 84.6889 48.5339 84.6695 48.0884 84.6502L48.0874 84.6501L48.0863 84.6501L48.0853 84.65L48.0844 84.65H48.0844H48.0843H48.0842H48.0841H48.084C47.029 84.6041 45.9685 84.558 44.9129 84.4524C38.6813 83.8211 32.7301 82.4482 27.7609 78.2798C25.5475 76.4681 23.9024 74.0573 23.022 71.3357C22.8863 70.7221 22.6177 70.1459 22.2351 69.6473C21.8526 69.1487 21.3653 68.7399 20.8078 68.45C19.2549 67.7587 17.6319 68.4501 16.5899 70.5343C16.0664 71.5426 15.7755 72.6553 15.7384 73.7908C15.6582 81.0554 15.6783 88.32 15.7384 95.5846C15.7384 97.5886 14.7364 98.6908 12.7928 98.5906C10.5605 98.497 8.32816 98.5283 6.10178 98.5595L6.1006 98.5595C4.99004 98.5751 3.88095 98.5906 2.77408 98.5906C2.47848 98.619 2.18024 98.5811 1.90099 98.48C1.62174 98.379 1.36852 98.2174 1.15949 98.0064C0.950469 97.7954 0.790917 97.5405 0.692434 97.2603C0.59395 96.9801 0.559016 96.6814 0.59007 96.386C0.59007 94.0425 0.579788 91.6929 0.569492 89.3402C0.54457 83.6452 0.519564 77.9313 0.64009 72.2374C0.757876 68.2831 2.16521 64.4759 4.64758 61.3958C6.39194 59.3456 8.29836 57.4391 10.3483 55.6945C10.5719 55.5456 10.7561 55.3449 10.8852 55.1093C11.0143 54.8737 11.0845 54.6102 11.0897 54.3417C11.0897 53.996 11.1273 53.6503 11.1648 53.3047C11.2024 52.959 11.24 52.6134 11.24 52.2677C11.2194 52.1278 11.1694 51.9939 11.0935 51.8748C11.0175 51.7556 10.9172 51.654 10.7991 51.5763C9.26297 50.5882 8.18183 49.0307 7.79299 47.2459C7.40414 45.4611 7.73945 43.595 8.72527 42.0572C9.38516 41.265 10.091 40.5122 10.8392 39.8027C11.0296 39.6023 11.28 39.2815 11.23 39.0811C11.0064 38.1948 10.9637 37.2727 11.1044 36.3696C11.245 35.4664 11.5662 34.6011 12.0487 33.8249C12.5313 33.0487 13.1652 32.3775 13.9127 31.8517C14.6602 31.3259 15.506 30.9562 16.3995 30.7646C17.3336 30.7042 18.2707 30.7042 19.2048 30.7646C19.6046 30.7701 19.9914 30.6231 20.2868 30.3536C22.9618 26.586 27.4302 26.3454 30.8666 28.9807C30.9596 29.0352 31.0385 29.1109 31.097 29.2014C31.734 30.7323 32.9665 30.7111 34.3236 30.6879C34.3966 30.6866 34.4699 30.6853 34.5435 30.6843C38.2505 30.6843 41.4664 33.8907 41.2159 37.3476C41.1769 37.8166 41.1886 38.2897 41.2016 38.8139V38.8139L41.2016 38.8143C41.2086 39.0964 41.2159 39.3933 41.2159 39.7122C42.3197 40.3027 43.2317 41.1968 43.8441 42.2887C44.4566 43.3805 44.744 44.625 44.6725 45.875H44.973C45.1046 45.5258 45.2428 45.1783 45.3809 44.8307C45.7266 43.9614 46.0722 43.0919 46.3156 42.1972C47.3145 38.3607 48.3134 34.5043 49.3124 30.6479L49.3212 30.6139C49.3573 30.4652 49.3589 30.3107 49.3259 30.1613C49.2929 30.0119 49.2261 29.8719 49.1308 29.7523C46.0322 26.5385 43.9004 22.5174 42.9792 18.1489C42.7816 17.1157 42.6942 16.0644 42.7187 15.0127V2.61775C42.6662 2.3024 42.6899 1.97927 42.7878 1.67494C42.8857 1.37061 43.0549 1.0942 43.2814 0.868635C43.508 0.643068 43.7852 0.474979 44.09 0.378394C44.3947 0.281808 44.7181 0.259424 45.0331 0.313322H55.1821C57.0957 0.313322 57.857 1.31555 57.8771 3.03901C57.8771 3.96724 57.873 4.89544 57.8689 5.82363V5.82367V5.82371V5.82376V5.8238V5.82384C57.8561 8.74313 57.8433 11.6623 57.9573 14.5817C58.1512 15.7967 58.5437 16.9716 59.1194 18.0589C59.3198 18.5599 59.7406 18.5499 60.2615 18.2893C63.6859 16.4727 67.5287 15.5915 71.4024 15.7344C72.9272 15.8194 74.4403 16.0508 75.9208 16.4257C76.6422 16.6061 76.8425 16.4956 77.1631 15.8944C77.7146 14.8271 78.5456 13.9297 79.5673 13.2979C80.5889 12.6661 81.7629 12.3241 82.964 12.3076C83.2414 12.3097 83.5173 12.3466 83.7855 12.4177C84.1798 12.5808 84.6209 12.5897 85.0217 12.4431C85.4224 12.2965 85.7536 12.0051 85.9496 11.6261C86.6522 10.6541 87.6099 9.89522 88.7167 9.43367C89.8235 8.97213 91.0364 8.82605 92.2213 9.01095C93.2509 9.12503 94.2418 9.46838 95.1209 10.0164C96 10.5644 96.7449 11.3027 97.3007 12.177C97.4497 12.3067 97.627 12.3998 97.8184 12.4485C98.0098 12.4972 98.2101 12.5005 98.4029 12.4578C99.2906 12.2814 100.205 12.2839 101.091 12.4656C101.978 12.6474 102.819 13.0045 103.566 13.5161C104.312 14.0276 104.949 14.6836 105.439 15.4448C105.929 16.2059 106.262 17.0572 106.418 17.9488C106.485 18.6168 106.462 19.2847 106.44 19.9527V19.9528C106.429 20.2868 106.418 20.6208 106.418 20.9548V20.9551C106.418 21.1455 106.418 21.4559 106.578 21.516C108.521 22.4874 109.248 24.24 109.994 26.0351L110.065 26.2051L109.944 28.9509ZM53.3086 4.62177H46.8966V14.7221C46.9063 16.5254 47.2458 18.3119 47.8985 19.9929C48.9981 22.9958 50.8589 25.6611 53.2986 27.7282C53.7283 28.0618 54.0242 28.5386 54.1327 29.0717C54.2411 29.6048 54.1549 30.1589 53.8896 30.6339C53.5942 31.2555 53.3464 31.8991 53.1483 32.5582C52.8046 33.8676 52.4669 35.1804 52.129 36.494L52.1288 36.495L52.1285 36.496L52.1283 36.4969L52.128 36.4979L52.1278 36.4989L52.1277 36.4994C51.4808 39.0139 50.8333 41.531 50.1427 44.0309C48.8102 48.8005 46.3556 52.7986 41.6267 54.8427C39.754 55.7071 37.7488 56.2492 35.6956 56.446C32.4027 56.633 29.1004 56.5694 25.8172 56.2556C22.6987 55.8678 19.5329 56.2109 16.5699 57.2577C13.3828 58.4268 10.6001 60.4895 8.55491 63.1993C6.25933 66.0431 4.96677 69.5655 4.87799 73.2194C4.84459 77.6624 4.85573 82.1056 4.86687 86.5457C4.87243 88.7647 4.87799 90.9829 4.87799 93.1999V94.2019H11.4403V93.2297V74.3217C11.4142 72.1622 12.0088 70.0405 13.1535 68.2093C14.6262 65.7744 16.61 63.9912 19.5755 64.0614C23.4327 64.1415 25.6469 65.9852 26.9994 69.7828C28.0841 72.8163 30.2542 75.34 33.0908 76.8668C35.7512 78.3358 38.646 79.3325 41.6468 79.8127C42.9447 80.05 44.2669 80.1513 45.6236 80.2553C46.2148 80.3006 46.8125 80.3464 47.4176 80.4042C47.3933 80.1746 47.3531 79.9467 47.2974 79.7227C46.8746 78.7191 46.7443 77.6164 46.9215 76.542C47.0988 75.4675 47.5765 74.4649 48.2992 73.6504C49.0374 72.7381 49.4687 71.6157 49.5315 70.4438C49.7662 68.9663 50.5171 67.6202 51.6507 66.6442C52.7844 65.6681 54.2272 65.1256 55.723 65.1133C56.0333 65.1342 56.3443 65.0826 56.6312 64.9626C56.9181 64.8426 57.1731 64.6576 57.3761 64.4219C59.3799 62.0973 64.259 62.1173 66.2427 64.4219C66.4456 64.6563 66.6986 64.8419 66.9831 64.965C67.2675 65.0882 67.5761 65.1458 67.8858 65.1333C70.17 65.2335 72.1838 66.0351 73.3059 68.1394C73.8726 69.4315 74.3186 70.7732 74.6384 72.1474C76.0911 71.8268 80.8601 67.4181 83.9759 63.0393C87.5762 58.1759 89.7231 52.3909 90.1674 46.3559C89.7276 46.085 89.2838 45.8505 88.8565 45.6249L88.8564 45.6248C87.9405 45.1411 87.1008 44.6976 86.5406 44.0211C86.166 43.5003 85.6531 43.0947 85.06 42.8503C84.4668 42.606 83.8171 42.5322 83.1844 42.638C82.1821 42.654 81.1884 42.45 80.2736 42.0401C79.3587 41.6303 78.545 41.0247 77.8896 40.266C77.2342 39.5074 76.7532 38.6143 76.4806 37.6495C76.2079 36.6847 76.1502 35.6716 76.3116 34.6821C76.3966 34.3536 76.3687 34.006 76.2324 33.6952C76.0962 33.3845 75.8594 33.1287 75.5602 32.9687C74.7937 32.3885 74.1576 31.6538 73.6931 30.812C73.2287 29.9703 72.9462 29.0403 72.8641 28.0824C72.7819 27.1245 72.9019 26.1601 73.2162 25.2515C73.5305 24.343 74.0321 23.511 74.6885 22.8087C74.9631 22.529 75.2576 22.2793 75.5856 22.0011L75.5857 22.001L75.5859 22.0009L75.586 22.0008L75.5862 22.0006C75.9163 21.7207 76.2804 21.4119 76.6923 21.015C74.9834 20.6129 73.2544 20.3017 71.5126 20.083C67.5272 19.9094 63.5881 20.9924 60.2515 23.179C59.9045 23.3401 59.5248 23.4184 59.1424 23.408C58.7599 23.3976 58.3852 23.2986 58.0474 23.1188C56.7059 22.2067 55.6003 20.9891 54.8217 19.5658C54.0431 18.1425 53.6138 16.5543 53.5691 14.9325C53.4695 12.5564 53.481 10.1802 53.4925 7.81123V7.81047V7.80972V7.80897V7.80822V7.80747C53.4971 6.84109 53.5018 5.8759 53.4989 4.91239L53.3086 4.62177ZM80.289 35.5642C80.4392 36.8368 81.5914 38.3698 82.5432 38.2596C83.5415 38.2575 84.5134 37.9381 85.3184 37.3476C85.6711 37.1951 86.0512 37.1167 86.4355 37.1167C86.8197 37.1167 87.1999 37.1951 87.5525 37.3476C87.8159 37.4864 88.0435 37.6842 88.2174 37.9259C88.3912 38.1676 88.5066 38.4467 88.5544 38.7405C88.8149 40.7445 89.7868 41.6665 91.7705 41.5964C92.3211 41.5205 92.8329 41.2701 93.2312 40.8825C93.6296 40.4949 93.8936 39.99 93.9846 39.4416C94.1449 38.64 94.4955 37.5679 95.0967 37.2473C95.5451 37.0416 96.0432 36.9691 96.5316 37.0384C97.02 37.1077 97.4783 37.3159 97.8518 37.6382C98.1503 37.8861 98.496 38.0706 98.868 38.1808C99.24 38.291 99.6306 38.3248 100.016 38.2796C102.21 37.5983 103.021 35.6041 101.449 33.8004C101.217 33.5856 101.038 33.3212 100.924 33.0269C100.81 32.7326 100.764 32.4158 100.79 32.1012C100.816 31.7866 100.913 31.4823 101.074 31.2108C101.235 30.9392 101.456 30.708 101.719 30.5341C102.274 30.2782 102.865 30.1122 103.472 30.0429C104.079 29.9017 104.623 29.5641 105.018 29.082C105.413 28.5999 105.637 28.0004 105.656 27.3774C105.601 26.7387 105.321 26.1404 104.866 25.6889C104.411 25.2375 103.811 24.9624 103.172 24.9125C102.667 24.9052 102.177 24.7413 101.77 24.4433C101.362 24.1453 101.057 23.7283 100.898 23.2495C100.623 22.3891 100.992 21.8214 101.409 21.1797C101.449 21.1189 101.489 21.0574 101.529 20.995C101.972 20.3518 102.19 19.5805 102.15 18.8006C102.068 18.3116 101.852 17.8545 101.527 17.4806C101.201 17.1067 100.778 16.8305 100.305 16.6821C99.8322 16.5337 99.3273 16.519 98.8465 16.64C98.3657 16.761 97.9278 17.0129 97.5813 17.3676C97.2503 17.6475 96.8458 17.8264 96.416 17.8832C95.9862 17.9401 95.5493 17.8723 95.1568 17.688C94.766 17.5317 94.4379 17.2502 94.2239 16.8876C94.01 16.525 93.9223 16.1018 93.9746 15.684C93.9016 14.9871 93.5676 14.3435 93.0398 13.8825C92.5121 13.4216 91.8296 13.1775 91.1293 13.199C90.4654 13.2295 89.8379 13.5118 89.3745 13.9882C88.9112 14.4647 88.6467 15.0997 88.6346 15.7642C88.6667 16.1856 88.5648 16.6064 88.3434 16.9664C88.1221 17.3263 87.7926 17.6068 87.4022 17.7683C86.9715 17.9204 86.5086 17.9582 86.0589 17.8774C85.6093 17.7966 85.1884 17.6 84.8375 17.3074C84.1453 16.817 83.295 16.6026 82.453 16.7061C82.0015 16.8109 81.5862 17.0351 81.2505 17.3548C80.9147 17.6746 80.6708 18.0782 80.544 18.5242C80.4171 18.9701 80.4121 19.4421 80.5294 19.8907C80.6467 20.3393 80.8819 20.7484 81.2107 21.0752C81.4668 21.3395 81.652 21.664 81.7491 22.019C81.8462 22.374 81.852 22.7478 81.7661 23.1056C81.6801 23.4635 81.5052 23.7934 81.2574 24.0656C81.0097 24.3377 80.6973 24.5429 80.3491 24.662C79.9894 24.7761 79.6208 24.8599 79.2471 24.9125C78.865 24.9438 78.496 25.0662 78.1707 25.2692C77.8455 25.4721 77.5735 25.7499 77.3774 26.0794C77.1813 26.4088 77.0668 26.7804 77.0435 27.1631C77.0202 27.5458 77.0887 27.9288 77.2434 28.2796C77.4342 28.8644 77.8058 29.3735 78.3045 29.7337C78.8033 30.0938 79.4033 30.2864 80.0184 30.2836C81.1706 30.4039 81.8119 30.9648 81.7117 32.087C81.5809 32.784 81.3514 33.4588 81.0303 34.0911C80.8099 34.552 80.5695 35.0532 80.289 35.5642ZM36.0163 51.9267C34.9443 50.113 36.0162 48.5302 37.9298 48.3399C38.6989 48.2144 39.387 47.7891 39.8434 47.1573C40.8953 45.5942 40.3443 43.5502 37.6293 43.0592C35.5153 42.6685 34.9243 40.9347 36.2968 39.2313C36.7064 38.7285 36.9233 38.0962 36.9086 37.4479C36.8939 36.7996 36.6485 36.178 36.2166 35.6944C35.7164 35.2058 35.0497 34.9249 34.3508 34.9081C33.6519 34.8914 32.9725 35.1403 32.4495 35.6043C32.1409 35.9226 31.7431 36.1395 31.3085 36.2272C30.8739 36.3148 30.423 36.2688 30.0151 36.0951C29.6098 35.926 29.2679 35.6339 29.0378 35.2599C28.8076 34.8859 28.7009 34.4488 28.7326 34.0108C28.726 33.3039 28.4389 32.6287 27.9344 32.1335C27.4299 31.6384 26.7493 31.3641 26.0426 31.3708C25.3358 31.3774 24.6606 31.6647 24.1655 32.1692C23.6704 32.6738 23.396 33.3543 23.4026 34.0612C23.4465 34.487 23.3473 34.915 23.1205 35.278C22.8936 35.641 22.5522 35.9181 22.1503 36.0652C21.7561 36.256 21.3133 36.3227 20.8804 36.2565C20.4475 36.1903 20.045 35.9943 19.7258 35.6944C19.484 35.4247 19.1894 35.2075 18.8603 35.0564C18.5312 34.9052 18.1746 34.8233 17.8126 34.8157C17.4505 34.808 17.0907 34.8748 16.7555 35.0119C16.4203 35.1489 16.1168 35.3535 15.8639 35.6127C15.6109 35.8719 15.4138 36.1803 15.2849 36.5188C15.156 36.8572 15.098 37.2182 15.1144 37.58C15.1308 37.9418 15.2213 38.2967 15.3803 38.6221C15.5393 38.9475 15.7635 39.2368 16.0389 39.472C16.3266 39.7819 16.5148 40.171 16.5791 40.589C16.6434 41.0069 16.5808 41.4344 16.3995 41.8165C16.2443 42.1863 15.9863 42.5041 15.6559 42.7314C15.3256 42.9588 14.9369 43.0865 14.5361 43.0994C13.9931 43.1395 13.4661 43.3001 12.9933 43.57C12.5149 43.8465 12.1468 44.2798 11.9514 44.7966C11.756 45.3134 11.7454 45.882 11.9212 46.4058C12.053 46.9469 12.3529 47.4323 12.7776 47.7924C13.2024 48.1524 13.7303 48.3685 14.2856 48.4098C16.1491 48.6203 16.9707 49.6924 16.5098 51.1854C16.2152 51.8104 15.8486 52.3989 15.4177 52.9389L16.3094 52.7887C17.0079 52.688 17.7063 52.5695 18.4054 52.4509L18.4056 52.4509C19.9326 52.1918 21.4626 51.9323 23.002 51.8567C24.1977 51.8029 25.3935 51.9167 26.6063 52.0322C27.4258 52.1102 28.253 52.189 29.0933 52.2173C30.482 52.264 31.8217 52.2485 33.1629 52.2329H33.163H33.1631H33.1632H33.1633H33.1635C33.8347 52.2251 34.5063 52.2173 35.1846 52.2173C35.4749 52.1631 35.7554 52.0651 36.0163 51.9267ZM67.9259 85.6745C68.3847 85.5465 68.8256 85.3615 69.2383 85.1236C70.2402 84.4322 70.0699 83.4702 69.7293 82.4782C69.5883 82.2092 69.5102 81.9118 69.501 81.6083C69.4918 81.3047 69.5517 81.0031 69.6762 80.7261C69.8007 80.4491 69.9865 80.204 70.2196 80.0094C70.4527 79.8147 70.7269 79.6754 71.0216 79.6023C71.4362 79.4502 71.7963 79.1786 72.0567 78.8219C72.317 78.4652 72.4659 78.0395 72.4845 77.5983C72.5 77.1462 72.3741 76.7009 72.1245 76.3237C71.8749 75.9466 71.514 75.6563 71.0918 75.494C69.5389 74.7925 69.1882 73.9711 69.7793 72.3979C69.9679 72.0206 70.0363 71.5946 69.9754 71.1772C69.9145 70.7598 69.7272 70.3709 69.4387 70.0631C69.1212 69.7197 68.7056 69.4827 68.2484 69.384C67.7912 69.2854 67.3147 69.3302 66.8839 69.5122C65.2909 70.1034 64.4895 69.7126 63.7882 68.1995C63.6425 67.8279 63.3893 67.5084 63.0608 67.2817C62.7324 67.055 62.3438 66.9314 61.9447 66.927C61.5122 66.8461 61.0649 66.915 60.6769 67.1227C60.2889 67.3304 59.9834 67.6645 59.8107 68.0694C59.0994 69.7327 58.0675 70.0733 56.4545 69.4922C56.0922 69.3133 55.6806 69.2603 55.285 69.342C54.8893 69.4237 54.5322 69.635 54.2704 69.9428C53.951 70.2334 53.7287 70.6155 53.6337 71.0368C53.5387 71.458 53.5756 71.898 53.7393 72.2976C54.3505 73.8407 53.9999 74.7925 52.5271 75.4739C52.1356 75.6061 51.7945 75.8565 51.5506 76.1902C51.3066 76.5238 51.1718 76.9247 51.1646 77.338C51.1246 77.7928 51.2314 78.2484 51.4695 78.638C51.7075 79.0275 52.0641 79.3301 52.487 79.502C54.08 80.3437 54.3104 80.9449 53.7494 82.7184C53.6168 83.0949 53.5926 83.5015 53.6793 83.8912C54.1502 85.4844 55.0118 85.8449 56.6849 85.4642C58.358 85.0834 59.1795 85.3137 59.7506 86.7666C59.8981 87.2258 60.2062 87.6166 60.6184 87.8669C61.0306 88.1173 61.5193 88.2107 61.9948 88.1297C62.9966 88.0695 63.4875 87.3378 63.8582 86.5562C63.9897 86.1463 64.265 85.7981 64.6332 85.5752C65.0015 85.3524 65.4379 85.27 65.862 85.3438C66.0668 85.3769 66.2608 85.4092 66.4543 85.4413C66.9042 85.5161 67.3514 85.5905 67.9259 85.6745ZM91.7805 23.1484C91.7533 22.8688 91.7878 22.5866 91.8813 22.3217C91.9748 22.0568 92.1251 21.8158 92.3218 21.6153C92.5185 21.4148 92.7566 21.2594 93.0196 21.1608C93.2826 21.0622 93.564 21.0226 93.8439 21.0444C94.4198 21.0442 94.9728 21.2694 95.3847 21.672C95.7965 22.0746 96.0344 22.6225 96.0475 23.1983C95.9537 23.7449 95.6854 24.2462 95.2827 24.6273C94.88 25.0084 94.3646 25.2491 93.8139 25.3126C93.5372 25.3076 93.2645 25.2468 93.0115 25.1346C92.7586 25.0224 92.5306 24.8607 92.3411 24.6591C92.1516 24.4574 92.0044 24.22 91.9082 23.9605C91.8119 23.701 91.7684 23.4249 91.7805 23.1484ZM85.5416 29.6666C85.7884 29.7643 86.0527 29.8104 86.318 29.8021C86.8586 29.8021 87.3771 29.5871 87.7593 29.2048C88.1416 28.8224 88.3564 28.3038 88.3564 27.7631C88.3564 27.2224 88.1416 26.7038 87.7593 26.3214C87.3771 25.9391 86.8586 25.7241 86.318 25.7241C86.0489 25.724 85.7826 25.7781 85.5348 25.8831C85.2871 25.9882 85.063 26.1421 84.8761 26.3356C84.6891 26.5292 84.5431 26.7585 84.4466 27.0097C84.3502 27.261 84.3053 27.5293 84.3147 27.7983C84.3064 28.0637 84.3525 28.3278 84.4502 28.5747C84.5479 28.8216 84.6952 29.0459 84.8829 29.2336C85.0706 29.4214 85.2947 29.5688 85.5416 29.6666ZM97.5995 31.7975C97.6123 32.0949 97.5588 32.3917 97.4426 32.6658C97.3265 32.9399 97.1508 33.1843 96.9282 33.382C96.7057 33.5796 96.4418 33.7252 96.156 33.8081C95.8701 33.891 95.5695 33.9093 95.2757 33.8614C94.7406 33.7817 94.2492 33.5199 93.8843 33.1203C93.5194 32.7206 93.3034 32.2077 93.2725 31.6674C93.3526 30.4551 94.274 29.7639 95.7965 29.804C96.0555 29.7828 96.316 29.8213 96.5576 29.917C96.7993 30.0127 97.0157 30.1625 97.19 30.3553C97.3644 30.5481 97.4921 30.7789 97.5631 31.0289C97.6341 31.279 97.6465 31.5418 97.5995 31.7975ZM28.6617 45.0262C28.9173 45.138 29.1934 45.1951 29.4724 45.194C30.0231 45.1732 30.5496 44.962 30.9624 44.5967C31.3751 44.2314 31.6485 43.7345 31.7361 43.1903C31.7113 42.5986 31.4646 42.0382 31.045 41.6204C30.6255 41.2026 30.064 40.9582 29.4724 40.936C28.942 40.975 28.4446 41.208 28.075 41.5906C27.7055 41.9731 27.4898 42.4782 27.4691 43.0097C27.444 43.2876 27.4771 43.5678 27.5665 43.8321C27.6559 44.0964 27.7995 44.3392 27.9881 44.5448C28.1767 44.7504 28.4061 44.9144 28.6617 45.0262ZM21.1383 44.1302C21.4177 44.1021 21.6999 44.1331 21.9665 44.2211C22.2332 44.3092 22.4783 44.4524 22.6861 44.6414C22.8939 44.8303 23.0597 45.0608 23.1726 45.3179C23.2856 45.5751 23.3433 45.853 23.3419 46.1339C23.2722 46.6805 23.0081 47.1837 22.598 47.5516C22.1878 47.9195 21.659 48.1276 21.1082 48.1377C20.8302 48.1387 20.555 48.0815 20.3001 47.9704C20.0453 47.8592 19.8163 47.6964 19.6279 47.4919C19.4394 47.2874 19.2956 47.0457 19.2055 46.7826C19.1155 46.5195 19.0813 46.2408 19.1049 45.9637C19.1249 44.7113 19.776 44.1302 21.1383 44.1302ZM62.2598 76.4745C62.5187 76.5777 62.7962 76.6256 63.0746 76.6154C63.6432 76.5836 64.1796 76.3415 64.5795 75.9359C64.9794 75.5304 65.2141 74.9905 65.2381 74.4214C65.1702 73.8677 64.9088 73.3558 64.5001 72.9763C64.0913 72.5968 63.5615 72.3742 63.0044 72.3477C62.4623 72.3926 61.9564 72.638 61.5859 73.0364C61.2153 73.4349 61.0068 73.9575 61.0012 74.5016C60.9856 74.7799 61.0283 75.0582 61.1265 75.319C61.2247 75.5799 61.3762 75.8172 61.5713 76.0161C61.7664 76.2151 62.001 76.3714 62.2598 76.4745Z" fill="#585454"/>
</svg>
