<svg width="124" height="123" viewBox="0 0 124 123" fill="none" xmlns="http://www.w3.org/2000/svg">
<path fill-rule="evenodd" clip-rule="evenodd" d="M93.0624 5.69693C93.0624 2.8913 91.7699 1.28792 88.4838 0.0253906H86.3298C86.2056 0.239315 86.0148 0.263166 85.8263 0.286742C85.7411 0.297398 85.6563 0.307999 85.5783 0.336073C84.2459 0.817497 83.1429 1.78187 82.4878 3.03827C81.8328 4.29467 81.6736 5.75144 82.0418 7.1197C82.3849 8.43937 83.1977 9.58863 84.3275 10.3518C85.4574 11.1149 86.8267 11.4393 88.1789 11.2647C89.5311 11.0902 90.7731 10.4282 91.6722 9.40309C92.5712 8.378 93.0655 7.06049 93.0624 5.69693ZM89.3158 5.73162L89.3154 5.73705V5.71699L89.3158 5.73162ZM89.181 6.45577C89.2762 6.22639 89.3221 5.97977 89.3158 5.73162C89.3341 5.49412 89.3039 5.25503 89.2269 5.02957C89.1493 4.8024 89.0259 4.59358 88.8644 4.41604C88.7028 4.2385 88.5066 4.0963 88.2878 3.99772C88.0689 3.89913 87.8321 3.84645 87.5921 3.84311C87.3439 3.81784 87.0931 3.84299 86.8548 3.91699C86.6165 3.99099 86.3956 4.11222 86.2054 4.27366C86.0151 4.4351 85.8594 4.6333 85.7476 4.85637C85.6358 5.07945 85.5701 5.3231 85.5546 5.57217C85.5391 5.82123 85.574 6.07082 85.6572 6.30606C85.7405 6.5413 85.8704 6.7573 86.0392 6.94112C86.2079 7.12494 86.412 7.27257 86.6393 7.37559C86.8665 7.47861 87.1123 7.53471 87.3617 7.54047C87.6136 7.56636 87.868 7.53797 88.108 7.4573C88.348 7.37662 88.5679 7.2455 88.753 7.07273C88.9381 6.89996 89.084 6.68966 89.181 6.45577ZM0.509845 10.042C0.459285 10.2157 0.407127 10.3949 0.360365 10.5768L0.320312 13.002C0.405123 13.133 0.472495 13.2744 0.520699 13.4228C0.814758 15.4421 1.79313 17.299 3.29218 18.6834C4.79122 20.0677 6.72002 20.8954 8.75606 21.0279C11.1195 21.3525 13.5164 20.7426 15.4376 19.3282C17.3588 17.9138 18.6529 15.8061 19.0453 13.4527C19.8668 8.06183 16.8412 3.61308 11.6615 2.61107C9.27758 2.08376 6.78189 2.51965 4.71781 3.82395C2.65374 5.12825 1.18842 7.19505 0.640919 9.57475C0.602335 9.72429 0.556779 9.88079 0.509845 10.042ZM12.949 16.3241C12.0389 16.9512 10.9633 17.2946 9.85816 17.3105C9.11924 17.3362 8.38275 17.2119 7.69304 16.9455C7.00334 16.6791 6.37464 16.2758 5.84486 15.76C5.31508 15.2442 4.89514 14.6268 4.61031 13.9444C4.32549 13.262 4.18167 12.5291 4.18753 11.7896C4.17378 10.6844 4.4879 9.59935 5.09021 8.67255C5.69253 7.74575 6.55601 7.0186 7.57154 6.58242C8.58707 6.14624 9.7091 6.02098 10.7958 6.22232C11.8826 6.42366 12.8853 6.94255 13.6772 7.71359C14.4691 8.48464 15.0148 9.47318 15.2452 10.5543C15.4756 11.6353 15.3804 12.7603 14.9717 13.7873C14.563 14.8143 13.8592 15.6971 12.949 16.3241ZM44.5731 97.5701C47.4685 96.6382 49.833 98.2013 51.9369 100.786C53.413 102.592 55.1848 104.133 57.1767 105.345C59.4633 106.896 62.1672 107.715 64.9299 107.694C67.6926 107.672 70.3834 106.812 72.6456 105.226C75.0592 103.689 77.0108 101.627 78.9614 99.5654L78.9618 99.565L78.9622 99.5647L78.9625 99.5643L78.9629 99.5639L78.9632 99.5636L78.9636 99.5632L78.964 99.5628L78.9643 99.5625L78.9647 99.5621L78.9651 99.5617L78.9654 99.5614L78.9658 99.561C79.3294 99.1767 79.6929 98.7924 80.0595 98.4116C80.3329 98.1068 80.6708 97.8667 81.0486 97.709C81.4264 97.5513 81.8346 97.4797 82.2436 97.4996C83.0049 97.4996 83.7667 97.5146 84.5281 97.5295C87.1234 97.5805 89.7138 97.6314 92.2623 97.0891C95.2925 96.509 98.047 94.9459 100.099 92.6417C102.151 90.3375 103.386 87.4206 103.613 84.3433C103.825 81.4694 103.882 78.5859 103.784 75.7059C103.762 75.3725 103.816 75.0389 103.943 74.7298C104.07 74.4207 104.266 74.1445 104.515 73.9225C106.533 72.0934 108.437 70.1424 110.216 68.0807C115.225 61.9484 115.225 55.0547 110.156 48.9324C108.396 46.9071 106.523 44.9835 104.545 43.1709C104.286 42.9332 104.084 42.6405 103.952 42.3146C103.82 41.9888 103.763 41.6381 103.784 41.2872C103.784 40.5667 103.795 39.8456 103.807 39.1245V39.1243V39.1241V39.1239V39.1237V39.1235V39.1233V39.1232V39.123V39.1228V39.1226V39.1224V39.1222V39.122C103.848 36.5648 103.89 34.0068 103.413 31.4672C102.908 28.3136 101.341 25.4269 98.9732 23.2843C96.605 21.1417 93.5767 19.8717 90.3888 19.6838C87.6755 19.4768 84.9523 19.4298 82.2335 19.5434C81.8008 19.5678 81.3684 19.49 80.9715 19.3159C80.5746 19.1418 80.2243 18.8763 79.9492 18.5414C78.1199 16.523 76.1586 14.6282 74.0783 12.8698C68.1672 8.15036 61.2443 8.19051 55.3934 12.9501C53.2781 14.7826 51.271 16.7368 49.3821 18.8021C49.1747 19.0389 48.9164 19.2255 48.6268 19.3486C48.3371 19.4718 48.0234 19.5283 47.709 19.5135C46.6663 19.4801 45.6236 19.4913 44.5839 19.5024H44.5838H44.5837H44.5836H44.5836H44.5835H44.5834H44.5833H44.5832H44.5832H44.5831H44.583H44.5829H44.5828C44.0644 19.508 43.5468 19.5135 43.0302 19.5135C42.369 19.5135 42.1386 19.333 42.1186 18.6417L42.1172 18.5922C42.0383 15.7644 42.0347 15.6365 44.8537 15.8059C45.5769 15.8771 46.3065 15.7635 46.974 15.4761C47.6416 15.1887 48.2253 14.7368 48.6708 14.1625C50.3282 12.2582 52.2047 10.5563 54.2613 9.09223C57.342 6.8118 61.0785 5.5914 64.9111 5.61308C68.7438 5.63475 72.4662 6.89745 75.521 9.21258C77.7846 10.9359 79.8749 12.8759 81.7626 15.0045C81.9923 15.2723 82.2841 15.4795 82.6123 15.6087C82.9406 15.738 83.2955 15.785 83.6461 15.7457C86.9993 15.4981 90.3706 15.714 93.6649 16.3871C97.4332 17.2812 100.811 19.3707 103.294 22.3434C105.777 25.3161 107.232 29.0124 107.441 32.8802C107.624 35.1934 107.668 37.5156 107.571 39.8341C107.541 40.1483 107.588 40.4652 107.709 40.7568C107.829 41.0485 108.019 41.306 108.262 41.5074C109.963 43.0899 111.579 44.7623 113.101 46.5174C116.066 49.8655 117.686 54.1931 117.649 58.6653C117.612 63.1375 115.921 67.4374 112.901 70.7359C111.707 72.1447 110.433 73.4829 109.084 74.744C108.548 75.1712 108.129 75.7268 107.864 76.359C107.6 76.9913 107.499 77.6801 107.571 78.3616C107.806 81.4793 107.566 84.6143 106.86 87.66C105.957 91.2485 103.964 94.469 101.157 96.8787C98.3489 99.2885 94.8637 100.769 91.1802 101.117C88.5884 101.339 85.9855 101.406 83.3856 101.317C83.1105 101.301 82.8354 101.35 82.5818 101.457C82.3281 101.565 82.1026 101.73 81.9229 101.939C80.1238 103.927 78.1671 105.767 76.072 107.44C72.9095 110.019 68.9569 111.432 64.8767 111.443C60.7964 111.454 56.8364 110.061 53.6601 107.5C51.8041 106.1 50.0985 104.512 48.5706 102.76C48.1535 102.24 47.6109 101.835 46.994 101.582C46.377 101.33 45.706 101.239 45.044 101.317C41.8064 101.556 38.5515 101.289 35.396 100.526C31.8193 99.5507 28.6323 97.4921 26.2732 94.632C23.9141 91.772 22.4986 88.251 22.2213 84.5537C22.0061 82.2825 21.9459 79.9995 22.041 77.7202C22.0943 77.2523 22.0306 76.7786 21.8558 76.3414C21.6809 75.9042 21.4003 75.5172 21.0391 75.2151C18.8785 73.3048 16.9364 71.1609 15.2483 68.8224C13.1076 65.82 11.957 62.2242 11.957 58.5367C11.957 54.8491 13.1076 51.2533 15.2483 48.2509C16.7359 46.11 18.4861 44.1645 20.458 42.4595C21.0378 41.9916 21.4917 41.3862 21.7786 40.6986C22.0655 40.011 22.1763 39.2627 22.1011 38.5214C21.9093 35.8851 22.0236 33.2356 22.4418 30.6257C23.1623 27.0755 24.9039 23.8131 27.4525 21.2392C30.0012 18.6652 33.2461 16.8918 36.7886 16.1366C37.7905 15.9362 38.3014 15.9864 38.3615 17.2389L38.3747 17.4697C38.4946 19.5543 38.4958 19.5752 36.3578 20.1848C33.4263 21.0675 30.8445 22.8452 28.9742 25.2692C27.1039 27.6932 26.0388 30.6418 25.9283 33.7017C25.8749 35.4047 25.8926 37.1122 25.9104 38.8211C25.9194 39.6762 25.9283 40.5316 25.9283 41.387C25.9248 41.7219 25.8444 42.0515 25.6933 42.3504C25.5421 42.6492 25.3243 42.9095 25.0566 43.1107C22.9951 45.0001 21.0448 47.0075 19.2157 49.1227C14.527 54.9344 14.4568 61.7282 19.0554 67.61C20.7206 69.6626 22.5537 71.5727 24.5357 73.3212C24.9734 73.6844 25.3187 74.1461 25.5434 74.6686C25.7681 75.1912 25.8657 75.7597 25.8281 76.3272C25.6057 79.5219 25.7401 82.7318 26.2288 85.8967C26.7831 88.828 28.2574 91.5058 30.4374 93.542C32.6174 95.5781 35.3896 96.8663 38.3515 97.2193C40.4174 97.4504 42.4944 97.5676 44.5731 97.5701ZM36.0391 33.9319C30.1247 40.8841 26.9343 49.7467 27.0606 58.874C27.0606 59.2411 27.0556 59.6032 27.0507 59.9617C27.0385 60.846 27.0266 61.7087 27.0907 62.5714C27.1426 63.4092 27.2497 64.2429 27.4113 65.0666C28.1858 69.7834 29.8935 74.2982 32.4344 78.3467C34.9754 82.3951 38.2984 85.8957 42.2089 88.6437C53.3598 96.7099 65.5225 98.9045 78.627 93.8945C80.791 93.0828 80.7911 93.0428 79.7892 90.8884C79.7309 90.7856 79.6807 90.6781 79.6389 90.5675C79.4084 89.7559 79.0778 89.5754 78.1962 89.9662C71.5688 92.9549 64.1146 93.5708 57.0867 91.7099C40.9365 87.6317 27.5716 72.1106 31.3186 52.1305C32.6349 45.2433 36.044 38.93 41.0806 34.0522C46.1172 29.1745 52.5361 25.9698 59.4612 24.8756C73.6778 22.5309 86.4516 28.5632 93.7953 40.8178C101.941 54.415 100.257 71.0783 89.7177 81.9702C88.1181 83.6187 88.1233 83.6246 89.5944 85.3064L89.7177 85.4473C90.419 86.249 90.8098 86.2488 91.5512 85.4973C102.051 74.8058 105.036 62.1707 100.949 47.9321C98.425 39.1599 92.8036 31.6017 85.1286 26.6619C77.4536 21.7221 68.2468 19.7365 59.2184 21.0736C50.1899 22.4106 41.9535 26.9796 36.0391 33.9319ZM121.466 113.562C121.432 115.394 120.859 117.175 119.817 118.683C118.776 120.191 117.312 121.358 115.611 122.037C113.909 122.716 112.045 122.878 110.251 122.502C108.458 122.126 106.816 121.23 105.53 119.924C104.244 118.619 103.372 116.963 103.023 115.164C102.674 113.365 102.864 111.503 103.568 109.812C104.273 108.12 105.461 106.674 106.984 105.655C108.506 104.636 110.296 104.089 112.128 104.083C113.374 104.055 114.613 104.282 115.768 104.75C116.922 105.218 117.969 105.917 118.844 106.805C119.719 107.693 120.402 108.751 120.853 109.912C121.304 111.074 121.513 112.316 121.466 113.562ZM112.118 119.163C112.86 119.186 113.598 119.058 114.289 118.788C114.98 118.517 115.608 118.109 116.137 117.588C116.665 117.067 117.082 116.444 117.363 115.757C117.643 115.07 117.781 114.334 117.769 113.592C117.779 112.479 117.458 111.389 116.848 110.458C116.238 109.528 115.365 108.8 114.341 108.366C113.317 107.932 112.187 107.812 111.094 108.021C110.001 108.229 108.995 108.758 108.203 109.539C107.41 110.32 106.868 111.318 106.644 112.408C106.419 113.498 106.523 114.63 106.942 115.66C107.362 116.691 108.077 117.574 108.999 118.198C109.92 118.821 111.006 119.157 112.118 119.163ZM69.7876 51.6546C71.123 52.4002 72.6181 52.8139 74.1468 52.8611C76.0046 52.9191 77.8372 52.4195 79.4085 51.4266C80.9798 50.4337 82.2179 48.9928 82.9633 47.2899C84.4862 43.6826 84.1155 40.2157 81.4004 37.2698C80.2086 35.8724 78.6287 34.8608 76.861 34.3631C75.0932 33.8653 73.2175 33.9038 71.4719 34.4741C69.4681 35.0353 69.4681 35.1057 70.47 36.8192C70.6704 37.1198 70.8807 37.4605 71.051 37.8212C71.3015 38.3422 71.572 38.5125 72.1631 38.2219C73.2663 37.715 74.5159 37.626 75.6797 37.9714C77.1317 38.3362 78.3805 39.2604 79.1538 40.5425C79.927 41.8245 80.162 43.3605 79.8074 44.8152C79.4309 46.2634 78.504 47.5073 77.224 48.2821C75.944 49.0569 74.4121 49.3012 72.9546 48.9632C71.5584 48.5706 70.3561 47.6772 69.5779 46.4532C68.7996 45.2293 68.5001 43.7613 68.7367 42.3302C68.7781 42.1092 68.8933 41.8894 69.0072 41.672C69.2239 41.2584 69.4361 40.8536 69.1274 40.4661C68.6253 40.0089 68.045 39.6459 67.4143 39.3942C67.3431 39.3579 67.2759 39.3144 67.2139 39.264C66.3022 38.4323 65.9214 38.9733 65.5508 39.835C64.9931 41.2594 64.7858 42.7968 64.9462 44.3181C65.1067 45.8394 65.6302 47.2999 66.4727 48.5766C67.3152 49.8533 68.4521 50.909 69.7876 51.6546ZM46.6563 36.9098C47.4215 36.8946 48.1815 37.0379 48.8885 37.331C49.5955 37.6242 50.234 38.0606 50.7639 38.6129C51.0579 38.9035 51.3521 39.1939 51.6463 39.4842C53.117 40.9357 54.5878 42.3872 56.0238 43.8735C56.5604 44.4023 56.9852 45.034 57.273 45.7302C57.5609 46.4265 57.7059 47.1731 57.6993 47.9265C57.6928 48.6799 57.5348 49.4243 57.2349 50.1155C56.9351 50.8066 56.4994 51.4303 55.9537 51.9497C55.437 52.4693 54.8227 52.8818 54.1461 53.1631C53.4695 53.4445 52.744 53.5893 52.0113 53.5893C51.2786 53.5893 50.5531 53.4445 49.8765 53.1631C49.2 52.8818 48.5856 52.4693 48.0689 51.9497C46.1954 50.1461 44.3319 48.3224 42.5586 46.4186C41.7698 45.6327 41.2485 44.6187 41.0686 43.5197C40.8888 42.4208 41.0595 41.2929 41.5567 40.2965C41.9653 39.2829 42.6712 38.417 43.5815 37.8125C44.4918 37.2079 45.5637 36.8932 46.6563 36.9098ZM53.9098 47.8619C53.919 47.6398 53.8819 47.4182 53.8008 47.2112C53.7197 47.0042 53.5965 46.8162 53.439 46.6593C52.9835 46.2013 52.5293 45.7415 52.075 45.2815L52.0741 45.2806L52.0733 45.2798L52.0724 45.2789L52.0716 45.278L52.0707 45.2772L52.0699 45.2763L52.069 45.2755L52.0682 45.2746L52.0673 45.2737L52.0673 45.2737C50.6951 43.8844 49.3216 42.4938 47.9086 41.1483C47.7468 40.9795 47.5515 40.846 47.3353 40.7569C47.1192 40.6677 46.8868 40.625 46.653 40.6306C46.4193 40.6363 46.1893 40.6906 45.9776 40.7901C45.766 40.8896 45.5775 41.032 45.424 41.2085C45.2352 41.3477 45.0786 41.5258 44.9648 41.731C44.8511 41.9361 44.7829 42.1635 44.7648 42.3974C44.7467 42.6313 44.7792 42.8661 44.8601 43.0862C44.941 43.3064 45.0684 43.5068 45.2336 43.6734C47.0671 45.6273 48.9806 47.5112 50.9042 49.365C51.1742 49.6082 51.5167 49.7553 51.8789 49.7843C52.2411 49.8132 52.6028 49.7222 52.908 49.5249C53.2178 49.3741 53.4773 49.1371 53.6551 48.8419C53.8329 48.5467 53.9213 48.2064 53.9098 47.8619ZM43.5846 79.851C44.4812 80.459 45.5436 80.7753 46.6267 80.7566C47.3178 80.793 48.0091 80.6883 48.6584 80.4489C49.3078 80.2094 49.9016 79.8405 50.4037 79.3642C50.6756 79.1003 50.948 78.837 51.2202 78.5738L51.2212 78.5728C52.9646 76.887 54.7046 75.2044 56.3248 73.402C56.8232 72.8753 57.2089 72.2522 57.4583 71.5712C57.7077 70.8902 57.8156 70.1656 57.7753 69.4415C57.7349 68.7173 57.5473 68.0092 57.2238 67.3601C56.9003 66.711 56.4479 66.1344 55.894 65.6663C55.3919 65.1591 54.7942 64.757 54.1356 64.4823C53.477 64.2075 52.7704 64.0659 52.0568 64.0659C51.3432 64.0659 50.6367 64.2075 49.978 64.4823C49.3194 64.757 48.7217 65.1591 48.2196 65.6663C46.266 67.5 44.3624 69.4042 42.529 71.3481C41.7642 72.127 41.2644 73.127 41.1007 74.2064C40.937 75.2857 41.1178 76.3895 41.6173 77.3602C42.0009 78.3734 42.688 79.243 43.5846 79.851ZM48.0894 76.388C47.7276 76.7682 47.2312 76.9913 46.7068 77.0094C46.3512 76.9911 46.0069 76.8785 45.7093 76.683C45.4117 76.4875 45.1716 76.2164 45.0136 75.8973C44.8342 75.6015 44.7594 75.2539 44.8012 74.9104C44.843 74.567 44.999 74.2475 45.2441 74.0033C47.0151 72.0485 48.8949 70.1952 50.8746 68.4522C51.0313 68.2815 51.2218 68.1452 51.4339 68.0519C51.646 67.9587 51.8752 67.9105 52.1069 67.9105C52.3386 67.9105 52.5678 67.9587 52.7799 68.0519C52.992 68.1452 53.1825 68.2815 53.3392 68.4522C53.5259 68.6203 53.6751 68.8258 53.7773 69.0554C53.8795 69.285 53.9323 69.5336 53.9323 69.7849C53.9323 70.0362 53.8795 70.2848 53.7773 70.5144C53.6751 70.744 53.5259 70.9495 53.3392 71.1177C52.1095 72.3904 50.8544 73.6375 49.5992 74.8846L49.5989 74.8849C49.0952 75.3854 48.5915 75.8858 48.0894 76.388ZM12.2712 90.7971C11.1503 90.803 10.0529 90.4753 9.11867 89.8557C8.18443 89.2362 7.45552 88.353 7.02473 87.3179C6.59395 86.2829 6.48071 85.1429 6.69942 84.0433C6.91813 82.9437 7.45892 81.9343 8.25298 81.143C9.04704 80.3516 10.0585 79.8141 11.1587 79.5993C12.2589 79.3845 13.3982 79.5019 14.4315 79.9364C15.4649 80.371 16.3457 81.1032 16.9618 82.0398C17.578 82.9763 17.9016 84.0749 17.8917 85.196C17.9026 85.9363 17.7645 86.6713 17.4856 87.3571C17.2068 88.0429 16.7929 88.6653 16.2685 89.1879C15.7441 89.7105 15.1201 90.1224 14.4334 90.3988C13.7467 90.6753 13.0114 90.8106 12.2712 90.7971ZM12.2712 83.2923C11.7797 83.2923 11.3082 83.4877 10.9606 83.8354C10.613 84.183 10.4178 84.6545 10.4178 85.1461C10.4178 85.6377 10.613 86.1092 10.9606 86.4568C11.3082 86.8045 11.7797 86.9994 12.2712 86.9994C12.7628 86.9994 13.2343 86.8045 13.5819 86.4568C13.9294 86.1092 14.1247 85.6377 14.1247 85.1461C14.1247 84.6545 13.9294 84.183 13.5819 83.8354C13.2343 83.4877 12.7628 83.2923 12.2712 83.2923ZM115.56 37.3662C116.25 37.6362 116.988 37.7635 117.729 37.7405C118.47 37.7517 119.206 37.6121 119.892 37.3309C120.577 37.0498 121.199 36.6326 121.718 36.1044C122.238 35.5761 122.645 34.948 122.916 34.2579C123.186 33.5677 123.313 32.8298 123.29 32.089C123.284 31.3521 123.133 30.6236 122.846 29.945C122.558 29.2665 122.14 28.6511 121.615 28.1343C121.09 27.6174 120.468 27.2092 119.785 26.9326C119.102 26.6561 118.371 26.5167 117.634 26.5226C116.898 26.5286 116.169 26.6799 115.491 26.9674C114.812 27.2548 114.197 27.6731 113.68 28.1984C113.163 28.7236 112.755 29.3452 112.479 30.0282C112.202 30.7113 112.063 31.4421 112.069 32.179C112.059 32.9205 112.2 33.6568 112.482 34.3425C112.764 35.0283 113.182 35.6498 113.711 36.1694C114.24 36.6891 114.869 37.0962 115.56 37.3662ZM119.388 31.3458C119.477 31.5691 119.52 31.8084 119.513 32.0489V32.089C119.528 32.3348 119.492 32.5811 119.407 32.8121C119.321 33.0431 119.188 33.254 119.017 33.4305C118.845 33.6071 118.638 33.7454 118.409 33.8371C118.181 33.9288 117.936 33.9718 117.689 33.9629C117.22 33.9284 116.781 33.7176 116.461 33.3728C116.141 33.028 115.962 32.5748 115.962 32.1042C115.962 31.6335 116.141 31.1803 116.461 30.8355C116.781 30.4907 117.22 30.2799 117.689 30.2454C117.93 30.2357 118.17 30.2754 118.394 30.3624C118.618 30.4493 118.822 30.5817 118.993 30.7509C119.164 30.92 119.299 31.1224 119.388 31.3458ZM42.4178 117.26C41.2969 117.252 40.2038 116.91 39.2774 116.279C38.3511 115.648 37.6334 114.755 37.2157 113.715C36.7979 112.675 36.699 111.534 36.9314 110.437C37.1639 109.34 37.7172 108.337 38.5211 107.556C39.3249 106.775 40.343 106.25 41.4457 106.049C42.5485 105.848 43.6861 105.98 44.7139 106.427C45.7417 106.874 46.6133 107.617 47.2178 108.562C47.8222 109.506 48.1323 110.608 48.1085 111.729C48.1129 112.47 47.9676 113.205 47.6811 113.889C47.3947 114.572 46.9731 115.191 46.4416 115.707C45.9101 116.224 45.2797 116.628 44.5882 116.895C43.8967 117.161 43.1585 117.286 42.4178 117.26ZM42.4779 109.765C42.108 109.765 41.7466 109.877 41.4404 110.084C41.1341 110.292 40.8968 110.586 40.7592 110.929C40.6216 111.272 40.5899 111.649 40.6682 112.011C40.7464 112.372 40.931 112.702 41.1983 112.958C41.4656 113.214 41.8033 113.384 42.168 113.446C42.5326 113.509 42.9076 113.46 43.2445 113.307C43.5815 113.155 43.865 112.905 44.0587 112.59C44.2524 112.274 44.3474 111.908 44.3314 111.539C44.3386 111.295 44.2954 111.053 44.2042 110.827C44.1131 110.601 43.9762 110.396 43.802 110.226C43.6279 110.055 43.4203 109.923 43.1924 109.837C42.9645 109.75 42.7212 109.712 42.4779 109.725V109.765ZM76.1709 67.862C76.1709 66.0484 76.1708 66.0483 74.3174 66.0483C73.9647 66.0877 73.6102 66.1078 73.2554 66.1085C72.5541 65.9883 72.3938 66.3288 72.3938 66.9902C72.4017 67.2317 72.4329 67.4838 72.4642 67.7368C72.5509 68.4388 72.6386 69.1474 72.2335 69.6557C71.8375 70.1525 71.0846 70.0593 70.3428 69.9676C70.0522 69.9316 69.7634 69.8959 69.4983 69.8959C68.8571 69.9059 68.5867 70.0563 68.5867 70.7678L68.5842 70.8574C68.5062 73.6435 68.5062 73.6437 71.3117 73.6437C72.1032 73.6437 72.4338 73.7539 72.4338 74.6457C72.4238 77.5415 72.4639 77.5415 75.3493 77.3811H75.4695C75.9705 77.4312 76.1908 77.2206 76.1908 76.6996C76.1908 76.4259 76.1594 76.1397 76.1279 75.8533L76.1278 75.8531C76.0498 75.1435 75.9715 74.4322 76.3712 73.9039C76.7472 73.407 77.4383 73.4863 78.1548 73.5684C78.5074 73.6089 78.8661 73.65 79.1965 73.6236C79.6774 73.5935 79.8778 73.4631 79.9379 72.9421C80.2986 69.9761 80.2084 69.8661 77.2929 69.8661H77.1727C76.3412 70.0164 76.0907 69.6156 76.1709 68.8641C76.1926 68.5304 76.1926 68.1957 76.1709 67.862ZM85.1675 85.9775C85.4953 86.1148 85.6665 86.3681 85.8355 86.6182C85.8886 86.6968 85.9415 86.7751 85.999 86.8494C87.5543 88.9138 87.5528 88.9148 85.5563 90.2941L85.4079 90.3966C84.5163 91.0079 84.1557 90.8574 83.6548 89.9656L83.5783 89.8294C82.4614 87.8415 82.4559 87.8316 84.3961 86.4986C84.4844 86.4397 84.5727 86.3872 84.6597 86.3356C84.839 86.229 85.0123 86.126 85.1675 85.9775ZM87.4896 60.5658C87.5096 58.562 87.4996 58.562 85.6465 58.562H85.6462C84.567 58.562 84.0842 58.562 83.8682 58.8021C83.6934 58.9964 83.6934 59.3481 83.6934 59.9845V59.9846V59.9847C83.6934 62.2789 83.6934 62.2789 85.4061 62.2789C85.7339 62.2762 86.0108 62.2796 86.2445 62.2824C86.9129 62.2906 87.2285 62.2944 87.375 62.139C87.506 61.9999 87.5017 61.7334 87.4935 61.2286C87.4905 61.0421 87.487 60.823 87.4896 60.5658ZM64.8079 83.1321V84.2039C64.858 84.8351 64.5576 84.9857 63.9666 85.0057C61.0618 85.136 60.571 84.5947 61.0718 81.7394V81.5089C61.7434 81.0589 62.4645 81.1222 63.1868 81.1857C63.5418 81.2169 63.8971 81.2481 64.247 81.2184C64.7995 81.1717 64.7837 81.5422 64.768 81.9119C64.7635 82.0181 64.7589 82.1241 64.7679 82.2202C64.8079 82.6508 64.8079 82.8113 64.8079 83.1316V83.1321ZM63.1269 58.562C61.0635 58.562 61.0635 58.5623 61.0635 60.3857C61.0951 61.5285 61.0132 61.9986 61.2063 62.1873C61.3805 62.3577 61.7786 62.299 62.6861 62.299C63.977 62.299 64.4903 62.4202 64.6907 62.2232C64.8681 62.0487 64.8002 61.6247 64.8096 60.646C64.8297 58.5621 64.8096 58.562 63.1269 58.562Z" fill="#585454"/>
</svg>
