<svg width="127" height="85" viewBox="0 0 127 85" fill="none" xmlns="http://www.w3.org/2000/svg">
<path fill-rule="evenodd" clip-rule="evenodd" d="M88.4221 11.1535C88.5349 13.5989 89.3912 15.9515 90.8766 17.897L91.077 18.3178L90.8065 18.4078C89.7115 18.4078 88.6154 18.3978 87.5189 18.3878H87.5188C85.3247 18.3677 83.1291 18.3477 80.938 18.4078C79.8077 18.483 78.6772 18.2654 77.6558 17.7757C76.6343 17.2859 75.7564 16.5406 75.1072 15.6122C74.5072 14.8585 74.0946 13.9734 73.903 13.0294C73.7114 12.0853 73.7464 11.1093 74.0051 10.1814C74.3131 8.79061 75.067 7.53863 76.1522 6.61609C77.2374 5.69356 78.5944 5.15091 80.0164 5.071C82.2806 4.78042 82.8717 3.84859 82.8717 2.35559C82.8717 0.862597 81.5993 0.0310063 79.5955 0.181308C77.7484 0.274037 75.9543 0.83046 74.3785 1.79881C72.8027 2.76716 71.496 4.11657 70.5787 5.7227C69.1617 7.89573 68.5781 10.5077 68.9356 13.0773C69.1189 14.589 69.6003 16.0491 70.3518 17.3735C71.1033 18.6979 72.1101 19.8604 73.3138 20.793C75.2144 22.3405 77.5673 23.2269 80.0164 23.3181C81.5651 23.3668 83.1163 23.3756 84.6669 23.3844C87.58 23.401 90.4913 23.4175 93.3813 23.6987C97.1684 24.0594 99.1821 28.0374 98.3305 31.4643C97.6492 34.2098 95.9361 35.7327 92.8503 36.3139C87.0995 37.4061 83.6832 42.0255 83.4627 47.5366C83.3445 49.6411 83.8073 51.7375 84.8003 53.5966C85.7934 55.4557 87.2785 57.006 89.0933 58.0778C90.536 59.0096 92.189 58.7792 92.9605 57.6369C93.7319 56.4946 93.2511 54.9714 91.8785 53.9694C91.1298 53.4489 90.4557 52.8288 89.8748 52.1259C89.1388 51.2102 88.6516 50.12 88.4605 48.9608C88.2694 47.8016 88.3808 46.6126 88.7839 45.5091C89.1869 44.4056 89.868 43.4246 90.7612 42.6616C91.6544 41.8985 92.7294 41.3792 93.8822 41.1537C94.6803 41.1049 95.472 40.9807 96.2467 40.7828C98.5051 39.8817 100.415 38.2802 101.697 36.2136C102.819 34.4951 103.448 32.5019 103.515 30.4505C103.582 28.3992 103.085 26.3686 102.078 24.5804C101.773 23.998 101.459 23.4244 101.043 22.6625L101.041 22.6599L100.935 22.4663C102.518 22.5082 104.085 22.5349 105.639 22.5614C109.278 22.6234 112.843 22.6841 116.354 22.9369C119.64 23.1574 121.794 26.2738 121.644 29.38C121.454 33.5684 118.368 35.9733 114.441 35.9733C112.363 35.9296 110.285 36.0164 108.219 36.2336C103.47 36.8348 100.404 39.6408 98.8115 44.0496C98.3962 45.2693 98.183 46.5485 98.1803 47.837C98.1302 51.2438 98.1803 54.6509 98.3005 58.0577C98.3401 58.3582 98.4443 58.6464 98.6062 58.9027C98.768 59.1589 98.9836 59.3768 99.238 59.5416C99.4923 59.7065 99.7794 59.8142 100.079 59.8572C100.379 59.9002 100.685 59.8779 100.975 59.7912C101.602 59.6513 102.158 59.2912 102.542 58.7764C102.927 58.2617 103.114 57.6261 103.069 56.9852V48.2279C103.055 47.5558 103.112 46.884 103.24 46.2239C103.791 43.799 106.145 41.2037 108.87 41.1336C110.994 41.0868 113.112 41.0064 115.222 40.8929C117.041 40.8304 118.819 40.3456 120.417 39.476C122.016 38.6063 123.389 37.3758 124.429 35.8828C126.036 33.6319 126.75 30.8647 126.433 28.1172C126.305 26.3496 125.753 24.639 124.824 23.1302C123.894 21.6214 122.614 20.3589 121.093 19.45C118.877 18.1356 116.322 17.5081 113.749 17.6465H99.5529C99.2424 17.6088 98.9368 17.5383 98.6411 17.4361C94.8641 16.5544 93.6818 13.6783 93.3512 10.8326C93.3413 10.51 93.2662 10.1928 93.1306 9.90003C92.995 9.60721 92.8016 9.34514 92.562 9.12895C92.3225 8.91276 92.0418 8.74708 91.7366 8.64213C91.4315 8.53719 91.1083 8.49524 90.7865 8.51835C90.1274 8.5647 89.5123 8.86564 89.071 9.35744C88.6298 9.84923 88.397 10.4932 88.4221 11.1535ZM3.94535 62.0863C2.48261 62.0863 1.17024 62.2664 0.268555 63.579L0.278461 82.5472C0.630257 83.1047 1.13408 83.5496 1.73052 83.8301C2.32695 84.1106 2.99122 84.2151 3.64486 84.1305H41.0146C41.121 84.1305 41.234 84.1379 41.3482 84.1453H41.3483C41.6752 84.1666 42.0115 84.1885 42.2269 84.04C42.3251 83.9722 42.4274 83.9036 42.5314 83.8338C43.1806 83.3985 43.8987 82.9169 44.1405 82.2865C44.2557 82.0359 44.3179 81.7642 44.3233 81.4885C44.3287 81.2127 44.2771 80.939 44.1718 80.6841C44.0665 80.4292 43.9097 80.199 43.7112 80.0075C43.5127 79.816 43.2769 79.6672 43.0184 79.5711C42.3806 79.3204 41.6998 79.198 41.0146 79.2105H34.2319V67.066H98.6323H99.7444L99.9949 67.1961L99.7645 67.5469C98.3567 71.3194 98.4391 75.4869 99.9949 79.2007H63.2262C62.6123 79.1976 61.999 79.2441 61.3927 79.3406C60.8867 79.4093 60.4215 79.6555 60.0802 80.0354C59.7389 80.4153 59.5436 80.9045 59.5292 81.4151C59.3489 83.1285 60.471 84.1305 62.6952 84.1305H105.776C106.506 84.1642 107.237 84.0796 107.94 83.88C109.171 83.4355 110.278 82.7047 111.172 81.7483C112.066 80.7919 112.719 79.6371 113.079 78.3787C114.208 75.2387 114.285 71.817 113.3 68.6292C112.148 64.6211 109.923 62.0863 105.134 62.0863H3.94535ZM5.45819 67.0763H28.902L29.1625 67.2764V79.1503H5.24783V67.2764L5.45819 67.0763ZM109.188 73.2176L108.831 73.1382C109.055 71.4042 108.658 69.6472 107.709 68.1786C107.008 66.9962 105.866 66.8457 105.114 67.978C104.188 69.4781 103.682 71.1999 103.65 72.9631C103.618 74.7262 104.062 76.4656 104.934 77.9981C105.936 79.6013 107.048 79.5814 107.83 77.8679C108.398 76.354 108.852 74.7995 109.188 73.2176ZM89.805 6.55531C89.1142 6.55531 88.4516 6.28063 87.9632 5.79204C87.4747 5.30346 87.2002 4.6409 87.2002 3.94994C87.2002 3.25898 87.4747 2.59642 87.9632 2.10783C88.4516 1.61925 89.1142 1.34457 89.805 1.34457C90.5029 1.37308 91.1667 1.65379 91.6733 2.13474C92.1799 2.61569 92.495 3.2641 92.5599 3.95972C92.519 4.66241 92.2107 5.32267 91.6984 5.80525C91.1861 6.28784 90.5087 6.5565 89.805 6.55531ZM48.1629 83.9584C48.4661 84.0664 48.7891 84.1076 49.1097 84.0797C49.4429 84.0984 49.7761 84.0469 50.0881 83.9285C50.4 83.8102 50.6837 83.6277 50.9207 83.3928C51.1577 83.1579 51.3428 82.8759 51.4641 82.5649C51.5853 82.254 51.6399 81.9212 51.6244 81.5879C51.6089 81.2545 51.5236 80.9282 51.3741 80.6299C51.2245 80.3316 51.014 80.0677 50.7562 79.8559C50.4985 79.644 50.1991 79.4887 49.8775 79.3999C49.5559 79.311 49.2192 79.2907 48.8893 79.3402C48.5828 79.3332 48.2783 79.3913 47.9958 79.5104C47.7133 79.6295 47.459 79.8067 47.25 80.031C47.0409 80.2553 46.8816 80.5217 46.7826 80.8119C46.6835 81.1021 46.647 81.4097 46.6753 81.7151C46.6569 82.0365 46.7077 82.3584 46.8245 82.6584C46.9413 82.9584 47.1213 83.2296 47.3522 83.4539C47.5831 83.6783 47.8596 83.8504 48.1629 83.9584Z" fill="#585454"/>
</svg>
