<svg width="117" height="116" viewBox="0 0 117 116" fill="none" xmlns="http://www.w3.org/2000/svg">
<path fill-rule="evenodd" clip-rule="evenodd" d="M41.3121 16.0476C37.5211 21.7387 35.5028 28.4265 35.5127 35.2649C35.5167 39.8028 36.4145 44.2957 38.1548 48.4865C39.8951 52.6774 42.4437 56.4844 45.6553 59.6899C48.867 62.8954 52.6786 65.4368 56.8724 67.1688C61.0662 68.9008 65.5601 69.7896 70.0974 69.7844C76.9349 69.7804 83.6176 67.7482 89.3002 63.945C94.9827 60.1419 99.4099 54.7385 102.021 48.4185C104.633 42.0985 105.312 35.1458 103.972 28.4399C102.632 21.7341 99.3331 15.5766 94.4933 10.746C89.6536 5.91539 83.4901 2.62882 76.7825 1.30224C70.0749 -0.0243382 63.1245 0.668553 56.8107 3.2933C50.4969 5.91804 45.1032 10.3566 41.3121 16.0476ZM62.6635 5.4052C65.1402 4.80452 67.6792 4.4983 70.2276 4.49321C75.951 4.52888 81.5522 6.15217 86.4079 9.18256C87.1192 9.62344 87.2695 9.86402 86.5982 10.5354C72.8191 24.2696 59.0668 38.0305 45.3412 51.8182C44.6249 52.5345 44.4166 52.1623 44.1728 51.7267C44.1302 51.6505 44.0864 51.5723 44.0387 51.4977C32.9179 34.0326 42.5058 10.285 62.6635 5.4052ZM53.1353 60.8362L53.1352 60.8361L53.1349 60.8359C52.9887 60.7337 52.8198 60.6158 52.6148 60.4757C53.0134 60.2523 53.3892 59.9905 53.7369 59.6941C67.3423 46.0934 80.9477 32.4895 94.5531 18.8822L94.5532 18.8821C95.4749 17.9603 95.4749 17.9603 96.1661 19.0625C98.8184 23.3521 100.374 28.229 100.694 33.2624C101.015 38.2958 100.091 43.3308 98.0045 47.9224C95.918 52.514 92.7329 56.521 88.7306 59.5894C84.7283 62.6578 80.032 64.6933 75.0566 65.5158C67.702 66.7826 60.1389 65.2796 53.827 61.2971C53.6158 61.1717 53.4177 61.0334 53.1353 60.8362ZM92.6094 14.3932C92.7557 14.5674 92.8896 14.7513 93.0102 14.9441C92.865 15.0962 92.7389 15.2388 92.6154 15.3785L92.6151 15.3788L92.614 15.3802C92.559 15.4423 92.5045 15.5039 92.4491 15.5655C78.4496 29.5469 64.4569 43.5516 50.4707 57.5797C49.9398 58.1108 49.6191 58.201 49.018 57.6499L49.0179 57.6499L49.0178 57.6498C47.9496 56.6671 47.4186 56.1786 47.4097 55.6809C47.4009 55.189 47.9018 54.6881 48.8977 53.6921L48.8977 53.692C62.4297 40.1782 75.9449 26.6478 89.4435 13.1006C90.235 12.2789 90.7059 12.2889 91.3671 13.1006C91.6089 13.4013 91.8891 13.6764 92.1687 13.9509C92.3178 14.0972 92.4666 14.2434 92.6094 14.3932ZM0.928711 57.8299C1.05774 57.3801 1.16371 56.9262 1.26958 56.4727C1.45142 55.6939 1.63297 54.9163 1.93058 54.1626C5.81785 43.9522 18.8923 40.8259 26.757 48.391C34.3412 55.7057 41.7852 63.1908 49.1088 70.7259C51.9865 73.5947 53.6068 77.4892 53.6134 81.5528C53.6199 85.6164 52.0122 89.5163 49.1438 92.3944C46.2755 95.2725 42.3815 96.8929 38.3184 96.8995C34.2554 96.9061 30.356 95.2981 27.4783 92.4294C23.805 88.9438 20.2238 85.3175 16.6437 81.6924C15.0779 80.1069 13.5123 78.5216 11.9393 76.9484L5.92805 70.9363C3.36224 68.5565 1.67777 65.3778 1.14909 61.9182C1.10968 61.7747 1.05254 61.6368 0.978853 61.5075L0.928711 57.8299ZM38.1383 92.8303C39.2263 92.7984 40.3063 92.6333 41.3542 92.3391C43.2201 91.7795 44.9129 90.7541 46.2729 89.3592C47.6328 87.9644 48.6151 86.246 49.1273 84.3663C49.6395 82.4866 49.6647 80.5074 49.2005 78.6153C48.7362 76.7232 47.7979 74.9804 46.4739 73.5514C44.6033 71.5303 42.637 69.5994 40.672 67.6699L40.6716 67.6695L40.6708 67.6687L40.67 67.6679L40.6692 67.6672C40.0146 67.0244 39.3601 66.3817 38.7094 65.7359C38.514 65.5404 38.3234 65.2988 38.132 65.0559C37.656 64.4521 37.174 63.8407 36.5953 63.9122C36.0644 63.9777 35.6364 64.4978 35.1992 65.0293C34.968 65.3101 34.7343 65.5942 34.4814 65.8159C33.9905 66.2568 34.0606 66.5375 34.4814 66.9684C35.3882 67.8458 36.2673 68.7303 37.1513 69.6195L37.1515 69.6197L37.1528 69.6211C37.7724 70.2444 38.3944 70.8701 39.03 71.4975C39.4128 71.8035 39.6927 72.2197 39.8315 72.6898C39.9489 73.0914 39.9255 73.5209 39.7651 73.9073C39.6047 74.2937 39.3171 74.6136 38.9498 74.8139C38.5829 75.0526 38.1417 75.1496 37.7085 75.087C37.2753 75.0243 36.8796 74.8063 36.5953 74.4734C34.9623 72.8702 33.3393 71.2569 31.7463 69.6236C31.3456 69.2128 31.1052 69.1727 30.6844 69.6236C27.4383 72.9035 24.1789 76.1634 20.9061 79.4032C20.5454 79.764 20.345 80.0045 20.8259 80.4754C22.0067 81.638 23.1781 82.8101 24.3494 83.9822C26.3583 85.9923 28.3671 88.0023 30.4239 89.9645C32.5194 91.8958 35.2903 92.9253 38.1383 92.8303ZM15.6363 48.0804C13.5081 48.1389 11.4435 48.8177 9.69571 50.0335C7.94796 51.2493 6.59314 52.9491 5.7978 54.9242C4.81043 56.9322 4.47292 59.1978 4.832 61.4064C5.19109 63.6151 6.22894 65.6573 7.80154 67.249C9.83254 69.4766 11.9825 71.5944 14.1308 73.7107C15.1617 74.7262 16.1923 75.7413 17.2091 76.7681C17.5899 77.1588 17.8002 77.1588 18.211 76.7681C21.4838 73.4748 24.77 70.1881 28.0695 66.9082C28.5003 66.4873 28.4703 66.2368 28.0695 65.836C26.8873 64.6937 25.715 63.5313 24.5729 62.339C24.3772 62.1614 24.2208 61.945 24.1138 61.7034C24.0067 61.4618 23.9515 61.2005 23.9515 60.9362C23.9515 60.672 24.0067 60.4107 24.1138 60.1691C24.2208 59.9275 24.3772 59.7108 24.5729 59.5333C24.7525 59.353 24.9672 59.2115 25.2037 59.1174C25.4402 59.0233 25.6934 58.9785 25.9478 58.986C26.2022 58.9935 26.4524 59.0533 26.6829 59.1612C26.9134 59.2691 27.1193 59.423 27.288 59.6135C27.6655 59.9689 28.0276 60.3396 28.3931 60.7138L28.3932 60.7138C28.6873 61.0149 28.9836 61.3182 29.2918 61.6175C29.4996 61.8193 29.701 62.0728 29.9024 62.3261C30.371 62.9155 30.8391 63.5043 31.3857 63.4413C31.9038 63.3815 32.3515 62.8591 32.8076 62.3268C33.0393 62.0564 33.2732 61.7835 33.5197 61.5674C33.9905 61.1365 33.9805 60.8561 33.5197 60.4051C32.21 59.1122 30.9111 57.8104 29.6123 56.5087L29.612 56.5084L29.6119 56.5083L29.6119 56.5083C27.8408 54.7332 26.0699 52.9583 24.2724 51.2068C21.9581 49.0825 19.2931 48.1004 15.6363 48.0804ZM77.2107 115.897C76.6993 115.735 76.1782 115.607 75.6565 115.478L75.6565 115.478L75.6564 115.478L75.6563 115.478C74.8801 115.286 74.1024 115.094 73.3535 114.795C71.0184 113.866 68.9475 112.377 67.3233 110.46C65.6991 108.542 64.5716 106.255 64.0401 103.798C63.5085 101.342 63.5892 98.7927 64.2751 96.375C64.9611 93.9573 66.2312 91.7455 67.9734 89.9346C75.3205 82.4596 82.7143 75.0615 90.1549 67.7401C93.0205 64.905 96.8873 63.3126 100.918 63.3081C104.949 63.3037 108.819 64.8874 111.691 67.7162C114.563 70.5449 116.205 74.3913 116.262 78.4222C116.319 82.4532 114.786 86.3444 111.996 89.2533C106.116 95.3014 100.128 101.235 94.1335 107.176L94.1328 107.177C92.5896 108.706 91.046 110.236 89.5037 111.768C87.3352 113.878 84.5536 115.246 81.5588 115.676C81.3077 115.736 81.0602 115.809 80.8174 115.897H77.2107ZM78.7035 112.069C80.2453 112.104 81.7787 111.832 83.2147 111.27C84.6507 110.707 85.9609 109.865 87.0691 108.792C90.0747 105.786 93.0804 102.78 96.1561 99.7744C96.607 99.3235 96.607 99.0528 96.1561 98.6119C92.9034 95.3921 89.6706 92.159 86.4579 88.9125C85.947 88.3914 85.6765 88.4516 85.2156 88.9125C83.7629 90.4255 82.2602 91.9185 80.7674 93.3714C79.6854 94.4536 78.5833 94.5839 77.7618 93.7423C76.9402 92.9006 77.0203 91.7382 78.0623 90.6861C78.757 89.9846 79.4161 89.3276 80.0751 88.6707C80.4046 88.3423 80.734 88.014 81.0679 87.68C83.2821 85.4655 83.2821 85.4655 80.9788 83.3993L80.9476 83.3714C80.5569 83.0206 80.3165 82.9806 79.9458 83.3714C78.9187 84.4115 77.8749 85.4371 76.8313 86.4625L76.8308 86.463L76.8303 86.4636L76.8297 86.4641L76.8297 86.4641C74.6366 88.619 72.4441 90.7734 70.4079 93.061C68.8959 94.6586 67.9118 96.6826 67.5892 98.8587C67.2666 101.035 67.6211 103.258 68.6046 105.225C69.4424 107.223 70.8432 108.934 72.6365 110.149C74.4297 111.364 76.5377 112.032 78.7035 112.069ZM101.135 67.2592C99.5298 67.2322 97.9354 67.5318 96.4492 68.1399C94.9629 68.7479 93.6157 69.6514 92.4892 70.7961L85.2558 78.0308L85.2555 78.0311C84.1488 79.1379 83.5979 79.6889 83.6076 80.2298C83.6173 80.766 84.1781 81.2923 85.295 82.3404L85.2951 82.3405L85.3258 82.3693C85.7566 82.7701 85.9871 82.7601 86.3879 82.3693C87.4699 81.2271 88.5919 80.125 89.7241 79.0228C89.9 78.8181 90.1154 78.651 90.3575 78.5316C90.5995 78.4122 90.8632 78.3428 91.1327 78.3278C91.4022 78.3128 91.6718 78.3526 91.9256 78.4445C92.1793 78.5363 92.412 78.6783 92.6095 78.8623C92.8038 79.0559 92.9543 79.2892 93.0507 79.546C93.1471 79.8029 93.1871 80.0774 93.1681 80.3511C93.1491 80.6248 93.0715 80.8912 92.9405 81.1322C92.8096 81.3733 92.6284 81.5834 92.4091 81.7482C91.3171 82.8705 90.1949 83.9825 89.0728 85.0847C88.7222 85.4254 88.592 85.6659 89.0128 86.0868C92.3523 89.38 95.6685 92.6902 98.9613 96.0168C99.2919 96.3575 99.5124 96.4176 99.873 96.0168C100.931 94.9395 102.01 93.8812 103.088 92.823L103.088 92.8228L103.089 92.8227C105.33 90.6234 107.572 88.4247 109.621 86.0569C112.657 82.5499 113.198 78.1809 111.154 73.8623C110.288 71.9202 108.885 70.2667 107.109 69.0966C105.334 67.9265 103.261 67.289 101.135 67.2592ZM18.8905 52.2388C20.1427 52.2388 22.2465 54.333 22.2766 55.4452C22.2953 55.7853 22.219 56.1237 22.0562 56.4228C21.8934 56.7219 21.6505 56.9698 21.3549 57.1386C21.0644 57.3519 20.7134 57.4669 20.3531 57.4669C19.9927 57.4669 19.6418 57.3519 19.3513 57.1386C18.6464 56.5823 18.0077 55.9469 17.4478 55.2449C17.2242 54.9627 17.0951 54.617 17.0789 54.2573C17.0627 53.8975 17.1603 53.542 17.3577 53.2408C17.5152 52.964 17.7363 52.7286 18.0029 52.5544C18.2695 52.3801 18.5738 52.272 18.8905 52.2388ZM96.7462 76.6275C97.9583 76.6275 99.9619 74.4932 99.9619 73.3108C99.9516 72.9738 99.8517 72.6458 99.6723 72.3604C99.4929 72.075 99.2406 71.8426 98.9414 71.6874C98.6422 71.5321 98.307 71.4596 97.9704 71.4772C97.6338 71.4949 97.308 71.6023 97.0267 71.7879C96.2993 72.315 95.6602 72.9541 95.1333 73.6816C94.9126 73.966 94.7871 74.3127 94.7745 74.6724C94.7619 75.0321 94.863 75.3866 95.0632 75.6857C95.2286 75.9836 95.4735 76.2295 95.7708 76.3959C96.0681 76.5622 96.4058 76.6424 96.7462 76.6275Z" fill="#606060"/>
</svg>
