<svg width="117" height="134" viewBox="0 0 117 134" fill="none" xmlns="http://www.w3.org/2000/svg">
<path fill-rule="evenodd" clip-rule="evenodd" d="M80.1708 51.5335L73.1577 56.7539C73.2556 56.5031 73.3694 56.2589 73.4983 56.0225C74.3799 52.766 75.0492 49.4559 75.5021 46.1127C75.4966 45.6294 75.6659 45.1604 75.9789 44.7922C76.2919 44.4239 76.7274 44.1811 77.2052 44.1087C78.0827 43.9206 78.851 43.3948 79.3441 42.6448C79.8371 41.8948 80.0153 40.9809 79.8401 40.1006C79.7507 39.4067 79.4559 38.7554 78.9935 38.2304C78.5311 37.7055 77.9223 37.3309 77.2453 37.1548C75.2917 36.4834 74.8809 35.6415 75.2917 33.6876C75.3918 33.2267 75.492 32.7559 75.5822 32.2949C76.3747 29.0201 76.0191 25.5723 74.5748 22.5283C73.1305 19.4842 70.685 17.0284 67.6474 15.5714C67.3754 15.4525 67.1492 15.2485 67.0029 14.9902C66.8566 14.7318 66.798 14.4331 66.8358 14.1386C66.739 10.5879 66.2825 7.05609 65.4733 3.59745C65.3815 2.98284 65.1551 2.39609 64.8103 1.87916C64.4654 1.36223 64.0106 0.927786 63.4784 0.607079C62.9462 0.286371 62.3497 0.0872264 61.7316 0.0238771C61.1135 -0.0394723 60.4891 0.0345355 59.9029 0.240621C58.7307 0.551244 57.5685 0.891927 56.4163 1.24263C53.3105 2.18452 52.2085 4.75959 53.6813 7.6554C54.6896 9.66934 55.4789 11.7857 56.0356 13.9681C56.236 14.7397 56.0056 15.0203 55.3344 15.3109C53.4642 16.0891 51.7817 17.2578 50.3994 18.7387C49.0172 20.2196 47.9671 21.9787 47.3194 23.8982C46.9136 25.1779 46.5791 26.4791 46.3175 27.7959C45.8667 29.7098 45.2355 30.2509 43.2317 30.1507C42.2323 30.0391 41.2274 30.3073 40.4165 30.9022C39.9724 31.2377 39.6133 31.6724 39.3679 32.1719C39.1225 32.6714 38.9977 33.2216 39.0035 33.7781C39.0094 34.3346 39.1457 34.8818 39.4016 35.3761C39.6574 35.8703 40.0256 36.2977 40.4766 36.6237C40.6754 36.7323 40.8486 36.8822 40.9844 37.0635C41.1203 37.2448 41.2156 37.4533 41.2641 37.6746C41.3125 37.8959 41.3129 38.1249 41.2652 38.3464C41.2175 38.5679 41.1228 38.7765 40.9875 38.9582C40.2201 40.6089 39.5478 42.2595 38.8754 43.9102C38.7315 44.2636 38.5876 44.6169 38.4427 44.9703C37.8316 46.4132 38.2725 47.5354 39.3745 47.9763C40.4766 48.4172 41.4484 47.8362 42.0495 46.4133C42.9412 44.2991 43.8328 42.1848 44.7044 40.0705C44.9249 39.5295 45.1453 39.2688 45.8466 39.4492C47.6602 39.9079 49.5538 39.9525 51.387 39.5796C52.0883 39.4393 52.3588 39.6197 52.5091 40.3712C52.8965 42.3714 53.6179 44.292 54.6431 46.0525C54.8843 46.567 55.2423 47.018 55.6887 47.3696C56.1351 47.7212 56.6575 47.9637 57.2142 48.0776C57.7708 48.1915 58.3464 48.1735 58.895 48.0255C59.4436 47.8774 59.9499 47.6033 60.3738 47.2248C62.039 45.9724 63.4847 44.452 64.6518 42.7258C65.0024 42.2147 65.2629 42.1446 65.7739 42.4953C67.3144 43.556 69.063 44.2768 70.9034 44.6097C71.5547 44.7199 71.7751 44.9504 71.6448 45.6117C71.4639 46.4759 71.3033 47.3422 71.1429 48.2077C70.9481 49.2589 70.7535 50.3091 70.5227 51.3532C67.2777 65.3627 61.0743 78.516 52.3287 89.9306C51.9564 90.3624 51.6212 90.8249 51.3269 91.3133C51.1251 91.714 51.0697 92.1728 51.1703 92.61C51.2709 93.0473 51.5212 93.4357 51.8778 93.708C52.2344 93.9802 52.6749 94.1191 53.1231 94.1008C53.5714 94.0826 53.9992 93.9082 54.3325 93.6079C54.5789 93.3669 54.8004 93.1017 54.9937 92.8163C61.5111 84.3177 66.7465 74.909 70.5328 64.8904C70.6965 64.3526 71.0009 63.8684 71.4144 63.4876C74.8742 60.5217 78.4409 57.7025 82.1144 55.0305C82.6053 54.6497 82.9259 54.5295 83.4268 55.0305C84.7566 56.3427 86.3666 57.3364 88.1357 57.9365C88.837 58.1669 88.9672 58.4876 88.7368 59.1689C88.0389 61.1332 87.6996 63.2068 87.7349 65.2911C87.7056 65.8565 87.8075 66.421 88.0328 66.9404C88.2581 67.4598 88.6005 67.9202 89.0333 68.2851C89.4662 68.65 89.9776 68.9097 90.5275 69.044C91.0775 69.1782 91.651 69.1832 92.2033 69.0586C94.1792 68.7906 96.102 68.2195 97.9039 67.3653C98.5451 67.0547 98.8757 67.1147 99.1963 67.7861C99.8974 69.3814 100.969 70.7865 102.322 71.8844C103.174 72.5858 102.953 72.9264 102.402 73.5877C96.1862 81.1252 88.8507 87.6644 80.6516 92.9768C80.2415 93.216 79.8557 93.4943 79.4995 93.8083C79.2051 94.0712 79.0067 94.425 78.9359 94.8134C78.8651 95.2019 78.926 95.6028 79.1088 95.9527C79.2731 96.3322 79.5596 96.6457 79.9227 96.8436C80.2858 97.0415 80.7046 97.1126 81.1125 97.045C81.6651 96.9372 82.1818 96.6924 82.6153 96.3333C91.4546 90.6537 99.3173 83.5818 105.899 75.3914C106.072 75.0721 106.357 74.8285 106.7 74.7082C107.043 74.5878 107.418 74.5993 107.752 74.7402C108.239 74.92 108.758 74.9959 109.275 74.9631C109.793 74.9303 110.298 74.7894 110.758 74.5496C112.882 73.4073 113.273 70.7821 111.63 68.778C110.337 67.1748 110.357 66.283 111.69 64.77C111.81 64.6331 111.932 64.4966 112.053 64.3602C112.535 63.8173 113.017 63.2745 113.473 62.7061C115.71 59.9297 116.857 56.4326 116.7 52.8706C116.544 49.3087 115.093 45.9263 112.621 43.3572C112.336 43.1198 112.134 42.7969 112.045 42.4361C111.957 42.0753 111.987 41.6957 112.131 41.3531C113.102 38.2988 113.796 35.1631 114.204 31.9842C114.357 31.3057 114.358 30.6019 114.207 29.923C114.056 29.2441 113.758 28.6068 113.333 28.0564C111.579 25.9723 105.047 25.5415 103.044 27.3952C102.542 27.848 102.162 28.4185 101.936 29.0553C101.71 29.692 101.647 30.3749 101.751 31.0424C102.072 33.3207 102.102 35.6305 101.841 37.9163C101.751 38.5676 101.541 38.8281 100.9 38.8281C98.7772 39.0016 96.7146 39.6173 94.8443 40.6354C92.9739 41.6535 91.3372 43.0515 90.0392 44.7398C88.326 46.804 87.7349 46.844 85.4206 45.4612C84.8417 45.0714 84.1597 44.8634 83.4619 44.8634C82.764 44.8634 82.0821 45.0714 81.5033 45.4612C80.8997 45.8204 80.4235 46.3594 80.1415 47.0027C79.8594 47.6459 79.7856 48.3612 79.9303 49.0485C80.0235 49.5573 80.1713 50.0545 80.3712 50.5315C80.5114 50.9122 80.5815 51.2329 80.1708 51.5335ZM66.6648 19.5649C66.6056 20.0086 66.5561 20.3454 66.5067 20.6813L66.5052 20.6916C66.2748 22.1144 65.5034 22.8961 64.3512 22.7758C63.1991 22.6556 62.5378 21.6835 62.648 20.1705C63.0104 15.5424 62.7646 10.887 61.9167 6.32289C61.4258 3.71767 61.4257 3.71758 58.8108 4.47911C58.401 4.62173 57.9828 4.73895 57.5585 4.82991C56.747 4.96017 56.6969 5.34084 57.0576 5.99215C57.8395 7.43902 58.4771 8.95942 58.9611 10.5313C59.996 13.7987 60.5297 17.2042 60.5441 20.6316C60.5696 20.8902 60.5428 21.1513 60.4652 21.3993C60.3876 21.6473 60.2608 21.8771 60.0924 22.075C59.924 22.2729 59.7175 22.4347 59.4852 22.551C59.2528 22.6673 58.9995 22.7357 58.7401 22.7519C58.4808 22.768 58.2209 22.7317 57.9759 22.6452C57.7309 22.5587 57.5059 22.4236 57.3143 22.2482C57.1226 22.0727 56.9683 21.8603 56.8605 21.6239C56.7527 21.3874 56.6936 21.1319 56.6869 20.8721C56.631 20.3768 56.6005 19.8878 56.5651 19.3189C56.556 19.1743 56.5467 19.0245 56.5366 18.8681C54.8792 19.6007 53.4398 20.7501 52.3588 22.2046C51.075 24.1143 50.2645 26.3023 49.9944 28.5875C49.8003 30.0193 49.1126 31.3382 48.0499 32.3169C46.9872 33.2957 45.6161 33.8725 44.1735 33.9482C44.1543 33.9482 44.1334 33.9468 44.1116 33.9455C43.9745 33.9368 43.8028 33.926 43.8028 34.2287C43.8567 34.2677 43.9115 34.3093 43.9677 34.352C44.0996 34.4523 44.2393 34.5584 44.3939 34.6498C47.0889 36.1327 49.8742 35.9824 52.7095 35.1407C54.603 34.5796 55.4846 35.1407 55.7852 37.0846C56.0478 39.0573 56.556 40.9895 57.298 42.8361C57.6987 43.768 58.0394 44.0484 58.891 43.2067C60.2448 41.8643 61.4321 40.3639 62.4276 38.7378C63.6599 36.7338 64.5516 36.5535 66.3349 38.0364C67.7395 39.2721 69.4248 40.1459 71.2441 40.5816C72.4368 40.8616 73.6782 40.8616 74.8709 40.5816C71.164 37.9162 70.5528 36.2931 71.4846 31.9143C71.5847 31.4534 71.6849 30.9823 71.765 30.5113C72.1145 28.3836 71.8138 26.1999 70.9022 24.2458C69.9921 22.295 68.5154 20.6639 66.6648 19.5649ZM107.842 63.277C106.25 65.7219 106.48 68.0969 108.093 70.7322H108.083C106.002 70.0967 104.233 68.7064 103.124 66.8342C102.569 65.9543 102.118 65.0127 101.781 64.0285C101.11 62.1447 100.078 61.7341 98.2846 62.7361C96.739 63.6006 95.0938 64.2736 93.3855 64.7402C91.542 65.181 91.4018 65.0908 91.6923 63.177C91.9522 61.5531 92.4029 59.9657 93.0348 58.4475C93.9766 56.1028 93.5758 55.311 91.1713 54.7298C87.815 53.9182 85.4106 52.1046 84.2885 49.5395C84.3385 49.4994 84.4488 49.4294 84.4488 49.4294C88.296 50.7921 90.2697 50.3212 92.9547 47.205C94.5795 45.0963 96.8486 43.5763 99.4168 42.8762C99.4994 42.8601 99.5866 42.8379 99.6755 42.8152C100.028 42.7252 100.409 42.6281 100.649 42.8762C100.862 43.0965 100.718 43.4073 100.594 43.6731C100.543 43.7822 100.496 43.8837 100.479 43.9683C100.444 44.1364 100.386 44.3013 100.327 44.4667C100.285 44.587 100.242 44.7077 100.208 44.8301C100.119 45.0721 100.079 45.3292 100.091 45.5867C100.102 45.8443 100.165 46.0971 100.275 46.3302C100.385 46.5633 100.54 46.7722 100.732 46.9447C100.923 47.1172 101.147 47.2499 101.39 47.3351C101.638 47.4176 101.9 47.4481 102.16 47.4249C102.421 47.4017 102.673 47.3253 102.902 47.2003C103.132 47.0753 103.333 46.9044 103.493 46.6983C103.654 46.4923 103.77 46.2553 103.835 46.0024C105.497 41.5626 106.14 36.8064 105.719 32.0845C105.608 31.0186 105.548 30.485 105.785 30.2454C106.023 30.0053 106.559 30.0605 107.642 30.1708H107.772C110.437 30.4714 110.477 30.4814 110.017 33.1768C109.282 37.6815 107.933 42.0643 106.009 46.203C105.689 46.7246 105.551 47.338 105.618 47.9465C105.684 48.3357 105.872 48.6937 106.155 48.9693C106.438 49.2448 106.801 49.4233 107.191 49.4793C107.58 49.5673 107.987 49.5249 108.349 49.3582C108.712 49.1916 109.009 48.9101 109.195 48.5575C109.563 47.9071 109.897 47.2382 110.197 46.5535C111.584 48.0692 112.448 49.9906 112.661 52.0345C112.885 53.6291 112.749 55.2537 112.262 56.7884C111.774 58.3232 110.949 59.7291 109.846 60.9024C109.122 61.6448 108.452 62.4383 107.842 63.277ZM2.57727 129.91C3.08823 131.534 4.41071 132.335 5.78327 133.077L7.85716 133.177C8.08434 133.062 8.31325 132.95 8.54186 132.839C9.08954 132.572 9.63544 132.306 10.1514 131.995C18.3116 127.148 26.05 121.625 33.2847 115.482C33.8404 114.945 34.5341 114.574 35.2884 114.409C45.6451 112.536 55.7599 109.511 65.4448 105.391C68.1097 104.239 70.7547 103.037 73.3095 101.664C73.5608 101.565 73.7885 101.414 73.9784 101.222C74.1682 101.03 74.3158 100.8 74.412 100.548C74.5081 100.295 74.5505 100.025 74.5366 99.7555C74.5226 99.4856 74.4526 99.2217 74.3309 98.9805C74.2093 98.7392 74.0387 98.5261 73.8301 98.3545C73.6214 98.1828 73.3793 98.0566 73.1192 97.9838C72.8591 97.911 72.5866 97.8933 72.3192 97.9317C72.0518 97.9701 71.7953 98.0639 71.5662 98.2069C71.2858 98.3229 71.0116 98.4532 70.7447 98.5976C61.4537 103.256 51.6345 106.775 41.5 109.079C41.1686 109.138 40.8341 109.178 40.4982 109.199L40.3378 108.878C40.7206 108.604 41.0885 108.31 41.4399 107.997C43.7743 105.762 46.0385 103.427 48.1825 100.983C48.4352 100.749 48.6234 100.454 48.729 100.127C48.8347 99.799 48.8542 99.4498 48.7858 99.1126C48.7173 98.7753 48.5632 98.4612 48.3382 98.2008C48.1132 97.9404 47.825 97.7423 47.5013 97.6257C46.3992 97.255 45.7079 97.8862 45.0366 98.6277C34.3784 110.35 22.0212 120.405 8.37815 128.458C8.2559 128.53 8.12793 128.627 7.99571 128.727C7.52114 129.088 6.99172 129.491 6.47457 128.918C5.96021 128.349 6.36731 127.847 6.7433 127.383C6.85067 127.251 6.9555 127.122 7.03561 126.995C14.8686 114.984 21.621 102.302 27.2133 89.0986C30.4608 81.2214 32.997 73.1072 35.5332 64.993C36.4554 62.0424 37.3777 59.0918 38.3341 56.1526C38.8551 54.5293 38.3141 53.407 37.182 53.0764C36.0499 52.7457 35.1181 53.437 34.6072 55.0202C34.4241 55.5903 34.24 56.1604 34.0558 56.7307C33.4435 58.6265 32.8303 60.525 32.2527 62.4352C28.4055 75.0004 24.2678 87.4153 18.3868 99.1889C18.0222 99.9672 17.4231 100.612 16.6736 101.033C12.1852 103.568 7.63673 105.982 3.07821 108.367C2.09805 108.811 1.30776 109.589 0.84882 110.562C0.389882 111.535 0.292282 112.639 0.573525 113.678C0.837051 114.717 1.4499 115.633 2.30913 116.274C3.16836 116.914 4.2217 117.239 5.29237 117.195H8.29798C8.24239 117.657 8.04658 118.09 7.73694 118.437C6.86536 119.807 6.01295 121.177 5.16166 122.545C4.50599 123.599 3.85098 124.651 3.1884 125.702C2.76725 126.308 2.49286 127.004 2.38679 127.734C2.28072 128.465 2.34591 129.21 2.57727 129.91ZM8.4002 109.969C10.3468 108.953 12.3486 107.908 14.4895 106.794C13.2572 108.959 12.2253 110.802 11.2835 112.636C11.1868 112.811 11.0397 112.954 10.8611 113.045C10.6825 113.136 10.4806 113.172 10.2817 113.147L5.48272 113.287C5.0419 113.297 4.64115 113.247 4.48085 112.806C4.43678 112.715 4.41224 112.615 4.40876 112.514C4.40527 112.412 4.42292 112.311 4.46061 112.217C4.49831 112.123 4.5552 112.037 4.62767 111.966C4.70015 111.895 4.7866 111.84 4.88156 111.804C6.04665 111.197 7.21318 110.588 8.4002 109.969Z" fill="#585454"/>
</svg>
