<svg width="132" height="109" viewBox="0 0 132 109" fill="none" xmlns="http://www.w3.org/2000/svg">
<path d="M130.89 58.7999C130.55 61.1446 130.309 63.5094 129.888 65.814C128.075 75.1928 124.268 83.5997 116.934 89.9224C110.803 95.203 103.619 96.3854 96.0551 93.4896C88.7114 90.674 84.3533 85.1729 82.9506 77.3973C82.4636 74.313 82.6585 71.1595 83.5217 68.1588C81.5179 68.6397 80.516 70.0592 80.516 72.4173C80.516 76.7961 80.516 81.175 80.516 85.5538V102.898C80.5721 104.035 80.2746 105.16 79.6646 106.12C79.0546 107.08 78.1619 107.828 77.1096 108.259C76.1278 108.722 75.0295 108.879 73.9575 108.709C72.8855 108.539 71.8893 108.051 71.0984 107.307C70.4652 106.764 69.9632 106.084 69.6301 105.319C69.297 104.553 69.1414 103.722 69.1749 102.888C69.1749 92.1368 68.8442 81.3753 69.3552 70.6337C69.6357 64.5114 73.0421 60.2329 78.6325 57.7179L80.2155 57.0364C77.0883 56.0353 74.1956 54.4125 71.7112 52.2653C69.2269 50.1181 67.2021 47.4908 65.7585 44.5413C64.3016 47.4958 62.2629 50.1255 59.7648 52.2726C57.2668 54.4198 54.3608 56.0401 51.2213 57.0364C53.034 57.6547 54.7432 58.5433 56.2908 59.6718C58.2077 61.1344 59.7516 63.0298 60.7963 65.2031C61.841 67.3764 62.357 69.766 62.3021 72.1768C62.3021 82.3372 62.3722 92.4975 62.3021 102.658C62.3021 107.478 57.6633 110.283 53.736 107.969C52.811 107.43 52.0552 106.644 51.5541 105.698C51.053 104.753 50.8267 103.685 50.9007 102.618C50.9007 95.1428 50.9007 87.6579 50.9007 80.1829C50.9007 77.5877 50.9007 74.9925 50.9007 72.3973C50.9007 70.1027 50.0191 68.8501 47.9953 68.1086C47.7749 68.6798 48.0854 69.1909 48.1956 69.6919C49.0536 73.5979 48.7671 77.6684 47.3705 81.4156C45.9738 85.1628 43.5262 88.4278 40.3211 90.819C37.1161 93.2102 33.2896 94.6262 29.3002 94.8972C25.3108 95.1683 21.3279 94.2828 17.8289 92.3472C17.5831 92.2501 17.3602 92.1029 17.1744 91.9149C16.9886 91.727 16.8439 91.5024 16.7496 91.2554C16.6554 91.0084 16.6136 90.7447 16.627 90.4807C16.6403 90.2167 16.7084 89.9583 16.827 89.7221C16.9372 89.478 17.0986 89.2606 17.3003 89.0845C17.5021 88.9085 17.7394 88.778 17.9961 88.7019C18.2528 88.6259 18.5228 88.606 18.7879 88.6437C19.0529 88.6814 19.3067 88.7758 19.532 88.9204C21.6537 89.9869 23.94 90.6882 26.2947 90.9946C30.2989 91.3681 34.306 90.3124 37.6066 88.0145C40.9072 85.7166 43.2883 82.3247 44.3284 78.4394C45.0785 75.7002 45.1169 72.8149 44.4402 70.0566C43.7634 67.2984 42.3939 64.7586 40.4612 62.6778C39.6457 61.8659 38.9324 60.9574 38.3372 59.9724C37.9765 59.281 37.686 59.4612 37.2051 59.822C35.9678 60.7989 34.9447 62.02 34.1995 63.4092C34.0232 63.7743 33.731 64.0707 33.3685 64.252C33.0059 64.4333 32.5935 64.4893 32.1957 64.4113C31.8581 64.3692 31.5393 64.2319 31.2768 64.0154C31.0142 63.799 30.8187 63.5123 30.713 63.1888C30.6151 62.9067 30.585 62.6055 30.625 62.3096C30.6651 62.0137 30.7741 61.7314 30.9434 61.4855C32.1163 59.2042 33.899 57.293 36.093 55.9644C37.5558 55.1127 37.5357 53.9603 36.093 53.1487C33.8922 51.8284 32.1075 49.915 30.9434 47.6276C30.7955 47.4176 30.6925 47.1794 30.6411 46.9277C30.5896 46.676 30.5907 46.4164 30.6444 46.1652C30.698 45.9139 30.803 45.6764 30.9527 45.4677C31.1024 45.259 31.2938 45.0836 31.5145 44.9523C31.7407 44.811 31.9943 44.7191 32.2586 44.6832C32.5229 44.6472 32.7918 44.6678 33.0475 44.7436C33.3033 44.8194 33.5399 44.9487 33.742 45.1228C33.944 45.2969 34.1068 45.5119 34.2195 45.7537C35.064 47.3329 36.2859 48.679 37.7762 49.6717C38.0668 49.8521 38.3072 50.2227 38.728 49.7517C41.2026 46.9361 43.5369 44.0703 44.4386 40.2627C45.3183 36.611 44.9665 32.7709 43.4379 29.3399C41.9094 25.9089 39.2899 23.0795 35.9869 21.2918C32.6839 19.504 28.8828 18.8583 25.1748 19.4551C21.4668 20.0518 18.0601 21.8576 15.4846 24.5914C9.74383 30.6034 6.57784 37.8681 5.13514 45.9342C3.58507 54.3313 4.17082 62.9832 6.8384 71.0946C8.07434 74.9862 9.92808 78.6537 12.3286 81.9565C12.6593 82.3974 12.9999 82.8383 13.3305 83.2993C13.4961 83.495 13.6197 83.7224 13.6937 83.9678C13.7678 84.2132 13.7907 84.4711 13.7611 84.7257C13.7315 84.9803 13.65 85.2263 13.5215 85.4481C13.3931 85.6699 13.2206 85.8632 13.0146 86.0156C12.8086 86.1681 12.5735 86.2767 12.3239 86.3346C12.0742 86.3926 11.8153 86.3986 11.5632 86.3525C11.3111 86.3064 11.071 86.2091 10.858 86.0665C10.645 85.9239 10.4636 85.7392 10.3249 85.5237C9.3179 84.2627 8.38457 82.9443 7.52963 81.5756C3.63866 75.0118 1.32693 67.6331 0.77702 60.0223C-0.028175 51.701 1.12819 43.3067 4.15333 35.5132C6.63797 29.1705 10.2347 23.4892 15.775 19.381C28.1281 10.1625 46.2921 17.7676 48.5163 33.0082C49.208 37.3194 48.506 41.7389 46.5125 45.6236C46.3623 45.9141 46.252 46.2348 46.0516 46.6757C50.0591 45.6737 53.1148 43.7998 55.0684 40.3028L58.4849 34.2908C59.6141 32.2342 60.1711 29.9124 60.0979 27.5673C60.0979 20.6334 60.0979 13.7095 60.0979 6.77559C60.0979 3.76956 61.5606 1.63537 64.0152 0.863825C64.8328 0.58689 65.7034 0.503398 66.5587 0.619928C67.4139 0.736457 68.2306 1.04977 68.9442 1.53534C69.6579 2.0209 70.2492 2.66546 70.6717 3.41827C71.0942 4.17107 71.3363 5.01165 71.379 5.87388C71.5292 11.2647 71.3789 16.6654 71.4691 22.0563C71.4691 24.5713 71.349 27.0663 71.5794 29.5814C71.6243 30.3874 71.7932 31.1817 72.0803 31.9362C73.6083 35.6252 75.5905 39.1089 77.9813 42.3068C79.7846 44.7117 82.5098 45.8039 85.3552 46.6055C85.5355 46.1145 85.1448 45.814 84.9845 45.4633C81.6482 38.1587 81.9787 31.0344 86.5072 24.4211C91.0357 17.8078 97.4678 14.912 105.363 15.403C111.915 15.8439 116.954 19.2005 120.932 24.2707C121.094 24.456 121.218 24.672 121.295 24.906C121.373 25.1399 121.403 25.3871 121.383 25.6328C121.363 25.8785 121.295 26.1176 121.181 26.3363C121.067 26.555 120.911 26.7489 120.721 26.9061C120.346 27.2276 119.86 27.3887 119.367 27.355C118.874 27.3212 118.414 27.0952 118.086 26.7255C116.994 25.6534 116.083 24.4512 114.9 23.4392C111.621 20.7304 107.446 19.347 103.198 19.5613C98.9496 19.7755 94.9353 21.572 91.9446 24.597C88.9539 27.622 87.2032 31.6569 87.0369 35.9078C86.8705 40.1587 88.3006 44.3178 91.0457 47.5674C91.3864 47.9482 91.737 48.319 92.0476 48.7098C93.2799 50.1627 93.28 50.1627 94.7527 48.8901C95.7927 47.9474 96.6665 46.8364 97.3375 45.6035C97.5164 45.2407 97.8091 44.9463 98.1709 44.7654C98.5326 44.5845 98.9437 44.527 99.3413 44.6015C99.6793 44.6526 99.9959 44.7984 100.255 45.0218C100.514 45.2452 100.704 45.5371 100.804 45.864C100.889 46.1502 100.908 46.4517 100.861 46.7464C100.815 47.0411 100.702 47.3215 100.533 47.5674C99.3329 49.8819 97.5027 51.8098 95.2537 53.1286C94.9878 53.2315 94.7593 53.4123 94.5981 53.6475C94.437 53.8826 94.3507 54.1611 94.3507 54.4462C94.3507 54.7313 94.437 55.0097 94.5981 55.2449C94.7593 55.4801 94.9878 55.6609 95.2537 55.7638C97.4667 57.0586 99.277 58.9422 100.483 61.2049C101.165 62.4173 100.974 63.5094 99.9724 64.0805C99.7297 64.2203 99.4595 64.3056 99.1804 64.33C98.9014 64.3545 98.6203 64.3178 98.357 64.2224C98.0937 64.127 97.8543 63.9752 97.6557 63.7777C97.4571 63.5801 97.3041 63.3414 97.2073 63.0785C96.4762 61.6937 95.4502 60.4863 94.2016 59.5414C93.9311 59.361 93.6706 59.0304 93.4001 59.5414C92.3982 61.4652 90.6049 62.8381 89.3926 64.6718C87.1185 68.2278 86.2456 72.5017 86.9431 76.6648C87.6405 80.828 89.8586 84.5838 93.1675 87.2043C96.4763 89.8248 100.64 91.1232 104.852 90.8479C109.063 90.5725 113.023 88.743 115.962 85.714C121.733 79.702 124.979 72.4875 126.382 64.4113C128.081 55.4275 127.316 46.1511 124.168 37.5674C123.747 36.415 123.166 35.3029 122.735 34.1606C122.174 32.8079 122.525 31.7256 123.627 31.2747C124.729 30.8238 125.63 31.3349 126.231 32.6375C128.885 38.3085 130.455 44.4257 130.86 50.6737C130.86 51.1246 130.99 51.5854 131.061 52.0363L130.89 58.7999ZM41.0123 56.5353C44.3385 55.363 47.6747 54.2207 51.031 53.0283C55.5199 51.4017 59.263 48.196 61.5607 44.0102C62.242 42.8379 62.8831 41.6354 63.5644 40.4831C63.7462 40.0915 64.036 39.7602 64.3998 39.5278C64.7637 39.2955 65.1865 39.1719 65.6182 39.1719C66.0499 39.1719 66.4726 39.2955 66.8365 39.5278C67.2004 39.7602 67.4903 40.0915 67.6721 40.4831C68.3934 41.6354 69.0246 42.8379 69.6758 44.0202C71.3231 47.0246 73.7446 49.533 76.6889 51.2848C80.7966 53.6896 85.4553 54.6817 89.8335 56.3851C90.0239 56.4553 90.2042 56.5353 90.3745 56.2848C91.0358 55.2828 90.124 52.5174 89.0019 52.1166C86.6374 51.2749 84.2731 50.4633 81.9187 49.6216C78.1433 48.3265 74.9765 45.6873 73.022 42.2068C72.0202 40.5134 71.1285 38.7899 70.1066 37.1265C68.3158 34.1663 67.4085 30.7556 67.4917 27.2967C67.4917 20.7135 67.4917 14.1304 67.4917 7.53713C67.5069 7.07201 67.4869 6.60652 67.4316 6.14444C67.3755 5.69659 67.1553 5.28541 66.8137 4.99051C66.472 4.69561 66.0333 4.53776 65.5821 4.54773C65.1309 4.5577 64.6994 4.73463 64.3711 5.04433C64.0428 5.35404 63.8411 5.77455 63.8049 6.22444C63.7799 6.64825 63.7799 7.07319 63.8049 7.49701C63.8049 14.1771 63.8049 20.8571 63.8049 27.5372C63.8771 30.7364 63.0695 33.894 61.4704 36.6656C60.3984 38.4893 59.3666 40.3531 58.3046 42.1867C56.3324 45.7127 53.1178 48.3775 49.2877 49.6617C47.0035 50.4633 44.7391 51.3149 42.4348 52.0564C42.0864 52.1351 41.7684 52.3135 41.5194 52.5696C41.2704 52.8258 41.1012 53.1489 41.0323 53.4995C40.6782 54.4793 40.6711 55.5509 41.0123 56.5353ZM54.6076 87.1869V97.6378C54.6076 99.4214 54.6076 101.205 54.6076 102.989C54.5955 103.233 54.6318 103.478 54.7144 103.709C54.797 103.94 54.9243 104.152 55.089 104.334C55.2537 104.515 55.4526 104.662 55.6743 104.767C55.896 104.871 56.1361 104.931 56.381 104.943C56.8731 104.951 57.3492 104.767 57.7083 104.431C58.0673 104.094 58.2812 103.631 58.3046 103.139C58.3246 102.885 58.3246 102.631 58.3046 102.377C58.3046 92.3572 58.3046 82.4074 58.3046 72.4173C58.4088 70.2144 57.8765 68.0282 56.7715 66.1198C55.6664 64.2114 54.0351 62.6616 52.0728 61.6557C50.1292 60.5936 47.9151 60.2129 45.8412 59.4614C45.0647 59.2471 44.2363 59.3292 43.5169 59.6918C43.0461 59.8521 43.0761 60.0625 43.3466 60.4233C44.6791 62.1668 45.9815 63.6897 48.3559 64.2909C52.5738 65.2929 54.5075 68.299 54.5175 72.6478L54.6076 87.1869ZM72.9319 87.1869H72.8418C72.8418 92.1168 72.8418 97.0467 72.8418 101.977C72.8335 102.442 72.8603 102.908 72.9219 103.369C72.9371 103.594 72.9967 103.814 73.0974 104.015C73.198 104.217 73.3375 104.397 73.5081 104.544C73.6786 104.691 73.8767 104.803 74.0908 104.873C74.3049 104.943 74.5307 104.97 74.7553 104.953C74.9917 104.962 75.2277 104.923 75.4487 104.839C75.6697 104.754 75.8712 104.626 76.0409 104.461C76.2105 104.296 76.3448 104.098 76.4355 103.879C76.5263 103.661 76.5716 103.426 76.5687 103.189C76.5687 102.768 76.5687 102.347 76.5687 101.916C76.5687 92.1502 76.5687 82.3772 76.5687 72.5976C76.5687 68.3391 78.5725 65.5835 82.5799 64.331C84.5035 63.7599 86.2367 63.0886 87.1785 61.1648C87.3989 60.7239 88.1804 60.3432 87.9299 59.9724C87.6795 59.6017 86.9281 59.4713 86.3269 59.331C86.0333 59.2966 85.7357 59.3417 85.4653 59.4614C83.9625 59.9223 82.4597 60.3431 80.977 60.8741C76.1279 62.6477 73.1724 66.0346 72.962 71.2651C72.7516 76.4956 72.9319 81.8462 72.9319 87.1569V87.1869Z" fill="#606060"/>
</svg>
