<svg width="124" height="124" viewBox="0 0 124 124" fill="none" xmlns="http://www.w3.org/2000/svg">
<path fill-rule="evenodd" clip-rule="evenodd" d="M0.530069 87.1995C0.754796 86.9614 0.978095 86.7218 1.2013 86.4824C1.81397 85.8251 2.42593 85.1685 3.06481 84.5443C3.64281 83.9872 4.10023 83.3171 4.40872 82.576C4.71721 81.8348 4.87019 81.0381 4.85817 80.2353V74.8348C4.85817 73.8328 5.26892 73.1111 6.381 73.0309C6.6138 72.9958 6.85132 73.008 7.07936 73.0667C7.3074 73.1253 7.52131 73.2289 7.70831 73.3719C7.89531 73.515 8.05157 73.6946 8.16779 73.8994C8.28401 74.1042 8.35779 74.3304 8.38475 74.5643C8.38475 75.305 8.41561 76.0506 8.4465 76.7968C8.54847 79.2605 8.65071 81.7305 7.64337 84.0531C6.86425 85.4725 5.95177 86.8146 4.91828 88.0611C5.05008 88.241 5.19401 88.412 5.34907 88.5724C6.27113 89.4982 7.19717 90.4227 8.12381 91.3478L8.12508 91.3491C9.74535 92.9666 11.3675 94.586 12.9733 96.2176C13.5444 96.8088 13.9051 96.9792 14.6064 96.2978C16.3303 94.7553 18.5683 93.9125 20.8814 93.9347C23.1945 93.9569 25.4158 94.8428 27.1097 96.4182C27.3774 96.6814 27.5938 96.9086 27.7746 97.0985C28.2057 97.551 28.4347 97.7915 28.6731 97.8012C28.9433 97.8122 29.2256 97.5267 29.8279 96.9177C29.9737 96.7703 30.1382 96.6039 30.3258 96.4182C31.8461 94.998 33.8022 94.1339 35.8758 93.9665C37.9494 93.7991 40.0187 94.3379 41.7471 95.4959L41.8023 95.5316C43.5304 96.6485 43.5365 96.6524 45.0633 95.1354L60.0914 80.1052L55.7934 75.9768C55.4554 76.3148 55.1095 76.6695 54.755 77.0331L54.7549 77.0333L54.7547 77.0335C53.9112 77.8986 53.0186 78.814 52.0664 79.6746C51.4743 80.1426 50.7922 80.4837 50.0627 80.6767C49.9175 80.7492 49.7575 80.7868 49.5952 80.7872C49.433 80.7876 49.2728 80.7504 49.1273 80.6786C48.9817 80.6068 48.8548 80.5023 48.7564 80.3733C48.6579 80.2443 48.5907 80.0943 48.5598 79.9349C48.4396 79.3437 48.3194 78.502 48.63 78.1212C49.8545 76.6575 51.1624 75.2656 52.5473 73.9527C53.1985 73.3114 53.1284 72.9508 52.5473 72.3195C51.7611 71.4848 51.0067 70.6181 50.2531 69.7523C49.6046 69.0073 48.9566 68.2629 48.2894 67.5399C48.1591 67.3896 47.5279 67.4701 47.2875 67.6505C46.3059 68.5633 45.3687 69.5202 44.4314 70.4773C44.2781 70.6338 44.1248 70.7903 43.9713 70.9467C43.7226 71.2596 43.3756 71.4795 42.9864 71.5705C42.5973 71.6614 42.1888 71.618 41.8273 71.4477C41.4367 71.2829 41.1195 70.9816 40.9351 70.5998C40.7507 70.218 40.7117 69.7821 40.8254 69.3737C40.9311 69.0452 41.113 68.7464 41.3564 68.5018C41.9885 67.8317 42.6565 67.1737 43.3252 66.515L43.3253 66.5149C43.7164 66.1296 44.1077 65.7441 44.4922 65.3559C44.7305 65.1148 44.9706 64.8759 45.2107 64.6371C46.6968 63.1587 48.1777 61.6855 49.161 59.7445C50.0226 58.0411 51.6757 57.2796 53.6093 56.7385L52.9581 55.2452C51.6512 55.3075 50.352 55.0135 49.1996 54.3939C48.0471 53.7744 47.0849 52.8529 46.4159 51.7284C46.3011 51.8324 46.1928 51.9261 46.09 52.0151C45.9055 52.1747 45.7387 52.3191 45.5843 52.4799L34.0327 64.0231C33.8288 64.2632 33.5662 64.4461 33.2704 64.5545C32.9747 64.6629 32.6559 64.693 32.3451 64.6415C32.0344 64.5901 31.7422 64.4589 31.4972 64.2609C31.2522 64.0629 31.0626 63.8049 30.9469 63.5118C30.4232 62.5765 30.9732 62.0342 31.5051 61.5098C31.543 61.4724 31.5808 61.4351 31.6182 61.3977C32.687 60.3287 33.7559 59.2534 34.8275 58.1754L34.83 58.1728C36.7708 56.2203 38.7205 54.2588 40.6951 52.3097C40.8293 52.1754 40.9636 52.0423 41.0974 51.9096C41.3632 51.646 41.6275 51.3839 41.8874 51.1173C42.286 50.7125 42.7365 50.3262 43.1873 49.9396C44.2206 49.0533 45.2559 48.1653 45.6744 47.0491C46.1229 45.8777 46.0303 44.5094 45.9373 43.1356C45.8911 42.4529 45.8449 41.7689 45.8648 41.107C45.9003 40.8332 45.8298 40.556 45.6678 40.3325C45.5057 40.109 45.2644 39.9558 44.9932 39.9044C44.1693 39.5866 43.2682 39.5269 42.4095 39.7327C41.5507 39.9384 40.7747 40.4004 40.1842 41.0571C34.2197 47.0692 28.2452 53.0343 22.2607 58.9529C21.4392 59.7745 21.4392 60.2957 22.2607 61.0773C24.2744 62.7227 25.9226 64.7704 27.0998 67.0893C27.8599 68.7399 28.2726 70.5292 28.3122 72.346C28.3519 74.1628 28.0176 75.9684 27.3302 77.6506C27.056 78.2956 26.688 78.8964 26.2381 79.4339C26.1364 79.5822 26.0039 79.7069 25.8497 79.7994C25.6955 79.8919 25.5232 79.9502 25.3445 79.9702C25.1658 79.9901 24.9849 79.9711 24.8141 79.9149C24.6433 79.8587 24.4865 79.7665 24.3546 79.6443C23.9543 79.4125 23.6577 79.0367 23.5254 78.5934C23.3932 78.15 23.4354 77.6729 23.6433 77.2596C24.6745 75.2401 24.9902 72.9302 24.5389 70.7079C24.0876 68.4856 22.8959 66.4823 21.1586 65.0251C19.951 64.1569 19.0088 62.9696 18.4373 61.5964C17.8658 60.2232 17.6876 58.718 17.9226 57.2493C18.0629 55.0939 18.0629 52.9317 17.9226 50.7763C17.9337 49.79 17.6444 48.824 17.0932 48.0061C16.542 47.1882 15.755 46.5572 14.8368 46.1973C12.8331 45.4859 10.8293 45.7361 9.54692 47.4195C8.87694 48.2863 8.47944 49.3325 8.4048 50.4255C8.33325 54.4261 8.33835 58.4269 8.34347 62.4312V62.4312V62.4315C8.34551 64.0335 8.34756 65.6361 8.34469 67.2395C8.34469 68.5822 7.65338 69.3737 6.5413 69.3737C5.24889 69.3737 4.75799 68.8726 4.74797 67.4798C4.74797 65.6127 4.75688 63.7456 4.76579 61.8785C4.7836 58.1443 4.80141 54.4102 4.74797 50.676C4.68484 48.5486 5.45669 46.481 6.89842 44.9154C8.34014 43.3499 10.3372 42.411 12.4624 42.2993C16.6201 42.109 20.1067 44.1633 21.2688 48.7625C21.5619 50.6415 21.6893 52.5425 21.6496 54.4438C21.7406 54.3595 21.8328 54.2774 21.9246 54.1957L21.9247 54.1956C22.1056 54.0346 22.2849 53.8749 22.451 53.7021C24.1064 52.0497 25.7587 50.3933 27.4112 48.7367L27.4129 48.735L27.4132 48.7347C30.9608 45.1783 34.5092 41.621 38.0903 38.101C38.8645 37.2388 39.8614 36.6069 40.9714 36.2746C42.0814 35.9422 43.2615 35.9225 44.3821 36.2173C44.8348 36.2679 45.2918 36.2679 45.7446 36.2173V32.0087C45.45 32.2519 45.1741 32.4894 44.9073 32.719L44.9071 32.7191L44.9071 32.7192C44.3938 33.1609 43.9144 33.5735 43.4002 33.9427C42.4552 34.6704 41.334 35.1343 40.1511 35.2872C38.9683 35.4401 37.766 35.2766 36.667 34.8131C35.568 34.3496 34.6116 33.603 33.8954 32.6491C33.1791 31.6953 32.7287 30.5681 32.59 29.3833C32.414 28.3514 32.4937 27.2925 32.8221 26.2985C33.1505 25.3045 33.7175 24.4058 34.4735 23.6819C39.7634 18.3379 45.0833 13.0175 50.4333 7.72019C50.8957 7.29948 51.2607 6.78269 51.5029 6.20641C51.7452 5.63013 51.8588 5.00814 51.836 4.38342C51.8152 3.44081 51.906 2.49876 52.1065 1.57749C52.1544 1.33812 52.4076 1.14548 52.6623 0.951704L52.6623 0.95167C52.7808 0.861556 52.8996 0.771197 52.9981 0.675781H78.2554C78.3766 0.806404 78.5336 0.94089 78.6913 1.07594C79.0415 1.376 79.3951 1.67886 79.3674 1.94835C79.0987 5.11093 80.4479 7.71282 81.8108 10.3412L81.8116 10.3429C81.9728 10.6536 82.1341 10.9647 82.2929 11.2771C83.3783 13.3508 83.9616 15.6505 83.9961 17.9908C84.0336 23.0697 84.0879 28.154 84.1423 33.2398L84.1424 33.2476C84.1606 34.952 84.1789 36.6566 84.1965 38.3613C84.2442 39.7044 83.825 41.0226 83.0103 42.0914C82.1956 43.1602 81.0357 43.9135 79.7281 44.2231L82.1627 46.6381C83.0642 45.4826 84.0704 44.4126 85.1683 43.4418C87.3924 41.7684 91.2697 42.1892 93.2634 44.1732C94.6095 45.5111 95.957 46.8471 97.3045 48.1832L97.3144 48.193C102.332 53.1679 107.35 58.143 112.299 63.2114C115.286 66.4219 117.31 70.4081 118.14 74.7145C118.679 77.211 119.998 79.4711 121.907 81.1674C123.971 83.0512 123.69 83.8928 121.907 85.6764C115.094 92.4567 108.298 99.2471 101.519 106.047C101.365 106.202 101.187 106.335 101.008 106.468C100.838 106.595 100.668 106.722 100.517 106.869C100.383 107.027 100.217 107.154 100.029 107.242C99.8415 107.329 99.6369 107.374 99.4299 107.374C99.2229 107.374 99.0184 107.329 98.8307 107.242C98.6429 107.154 98.4764 107.027 98.3429 106.869C98.2509 106.792 98.1458 106.727 98.0414 106.663C97.873 106.559 97.7067 106.456 97.6015 106.308C95.5377 103.502 92.7625 102.841 89.3862 102.901C82.4252 103.039 75.4583 103.007 68.4901 102.976H68.4893C66.3313 102.966 64.1731 102.956 62.015 102.951C60.1299 102.928 58.3089 102.263 56.852 101.067C55.3951 99.87 54.3892 98.2127 54 96.3678C53.6702 94.5491 53.7732 92.6786 54.3006 90.9071C54.1794 91.0194 54.0541 91.1276 53.9294 91.2354C53.7757 91.3682 53.6228 91.5003 53.479 91.6386C52.7465 92.3681 52.0208 93.1044 51.2952 93.8405L51.2949 93.8408C49.6885 95.4706 48.0828 97.0997 46.4058 98.6527C46.0187 98.9685 45.7354 99.3931 45.5925 99.8719C45.4496 100.351 45.4537 100.861 45.6043 101.338C45.9652 102.806 45.9299 104.344 45.5022 105.795C45.0745 107.245 44.2696 108.557 43.1698 109.595C39.9266 112.914 36.6428 116.182 33.3581 119.45C32.3303 120.473 31.3024 121.496 30.2757 122.52C29.0634 123.733 28.2719 123.743 27.0897 122.52C26.115 121.548 25.1392 120.576 24.1631 119.604L24.1627 119.603C20.9155 116.369 17.666 113.132 14.4461 109.865C13.2337 108.772 12.3441 107.367 11.8742 105.804C11.4044 104.24 11.3722 102.578 11.7811 100.997C11.8702 100.734 11.8726 100.448 11.7879 100.183C11.7031 99.918 11.5357 99.687 11.3102 99.524C8.09422 96.3376 4.90828 93.1414 1.7123 89.935C1.42711 89.6431 1.15509 89.338 0.881713 89.0314L0.881665 89.0313L0.880961 89.0306C0.741626 88.8743 0.601934 88.7176 0.459961 88.5621L0.530069 87.1995ZM118.981 83.3319C116.785 81.2337 115.276 78.5192 114.653 75.5462C113.662 71.0795 111.343 67.0172 108.001 63.893C106.091 62.0005 104.191 60.0972 102.292 58.1939L102.29 58.1916C101.022 56.9212 99.7542 55.6508 98.4832 54.3837C97.6851 53.5821 96.8825 52.7838 96.0795 51.9852L96.0793 51.985C94.4733 50.3878 92.8659 48.7891 91.2897 47.1592C89.857 45.6862 87.1019 45.7765 86.2102 47.4699C85.8511 48.1007 85.7188 48.8357 85.8355 49.5522C85.9522 50.2687 86.3107 50.9232 86.8514 51.4075C88.2853 52.8506 89.7253 54.2896 91.166 55.7292L91.1677 55.731C92.8973 57.4593 94.6277 59.1885 96.3492 60.9266C97.4813 62.0689 97.2709 63.3013 95.9284 63.9326C94.9265 64.4336 94.2953 63.8826 93.6642 63.2413L77.7043 47.2893C77.5253 47.1103 77.3339 46.9476 77.1434 46.7856L77.1433 46.7855C77.0354 46.6937 76.9277 46.6022 76.8227 46.508C77.0631 49.995 75.931 52.52 72.695 53.9629C72.7798 54.0555 72.8594 54.1434 72.9355 54.2276C73.1561 54.4714 73.3481 54.6836 73.5566 54.8847C76.5622 57.8907 79.4977 60.8267 82.4532 63.8127C82.7662 64.0982 82.9919 64.4665 83.1044 64.8749C83.1819 65.2591 83.1245 65.6578 82.942 66.0046C82.7595 66.3514 82.463 66.625 82.1026 66.7786C81.7399 66.9791 81.3157 67.0374 80.9122 66.943C80.5087 66.8486 80.1546 66.6079 79.9185 66.2674L68.6274 54.985C68.3912 54.7487 68.1397 54.5279 67.9664 54.3756L67.9663 54.3755L67.896 54.3137C67.1464 55.4921 66.2731 56.5869 65.2911 57.58C64.1404 58.3384 62.9109 58.9699 61.6243 59.4637C61.6626 59.502 61.723 59.5683 61.7975 59.6502L61.7977 59.6504C61.9178 59.7823 62.0747 59.9546 62.2354 60.1154C66.6236 64.5042 71.0051 68.8926 75.38 73.2814C76.0212 73.9227 76.6824 74.6142 76.3117 75.6363C75.7707 77.0892 74.1076 77.2697 72.8653 76.0272C71.649 74.8132 70.4296 73.6018 69.21 72.3902L69.2094 72.3895C65.5469 68.751 61.883 65.111 58.298 61.3977C56.9555 60.015 53.6894 59.9847 52.5273 61.2172C51.7415 61.9689 51.2824 62.9993 51.2487 64.0862C51.215 65.1732 51.6093 66.2301 52.3469 67.0291C55.6684 70.3724 59.0012 73.7042 62.3348 77.0368L62.3382 77.0402L62.3425 77.0444C65.2608 79.9618 68.1797 82.8798 71.092 85.8066C71.633 86.3577 71.9836 86.2474 72.4545 85.7464C72.8959 85.279 73.356 84.8305 73.8169 84.3814L73.8176 84.3807C74.2458 83.9634 74.6746 83.5455 75.0894 83.1112C78.8765 79.1733 85.6091 78.462 90.2778 80.7466C91.5502 81.3679 91.8808 82.1293 91.3799 83.1714C90.879 84.2135 90.0474 84.4941 88.755 83.9831C85.2083 82.5903 81.7419 82.5404 78.586 84.9352C77.1029 86.1376 75.7068 87.4433 74.4082 88.8429C74.1202 89.1651 73.7662 89.421 73.3703 89.594C72.9744 89.7669 72.5458 89.8527 72.1139 89.8449C71.0048 89.8449 69.8957 89.8327 68.7869 89.8204H68.7868C66.5705 89.796 64.3556 89.7715 62.1452 89.8449C59.3801 89.9452 57.727 91.6986 57.4865 94.5443C57.5085 95.8048 58.0115 97.0093 58.8925 97.9109C59.7736 98.8126 60.9659 99.3429 62.2254 99.3939H91.7506C92.8071 99.3569 93.8602 99.5342 94.8464 99.915C96.0238 100.437 97.1466 101.088 98.2812 101.745L98.2819 101.746C98.7594 102.022 99.2389 102.3 99.7255 102.57L118.981 83.3319ZM55.5028 4.17303C55.8234 7.17907 54.3006 9.18275 52.2868 11.0966C50.3989 12.8908 48.5286 14.7908 46.7007 16.6478L46.7006 16.648L46.3357 17.0186C45.4551 17.8993 44.5702 18.78 43.6834 19.6627L43.681 19.6651C41.5414 21.7946 39.3901 23.9358 37.2587 26.117C36.6642 26.6933 36.306 27.4707 36.2541 28.2971C36.2023 29.1236 36.4604 29.9397 36.9782 30.5859C38.3608 32.0989 39.9838 32.2992 41.5167 30.9264C42.934 29.679 44.2812 28.3563 45.6291 27.0329L45.6292 27.0329L45.6293 27.0328C46.1869 26.4853 46.7446 25.9378 47.3075 25.3953C47.4502 25.2076 47.6306 25.0518 47.837 24.9378C48.0434 24.8239 48.2713 24.7546 48.5061 24.7338C48.741 24.7131 48.9775 24.7415 49.2007 24.8175C49.4239 24.8935 49.6288 25.0154 49.8022 25.1751C50.7139 25.9968 50.7339 26.8081 49.9224 27.8602C49.7045 28.1196 49.5654 28.4362 49.5216 28.7722V49.1833C49.5216 51.037 51.836 52.0991 53.469 51.1873C54.8015 50.4558 54.9919 49.2735 55.0019 48.011V37.4498V32.4397C54.9597 32.1193 55.0172 31.7938 55.1666 31.5072C55.3159 31.2206 55.5499 30.9868 55.8367 30.8379C56.1235 30.689 56.4492 30.6322 56.7694 30.6749C57.0897 30.7177 57.3891 30.8582 57.6268 31.0771C57.9102 31.3296 58.1383 31.6379 58.2969 31.9827C58.4555 32.3276 58.5412 32.7016 58.5485 33.0811C58.5953 37.4761 58.5797 41.8755 58.5641 46.2763V46.2767C58.5563 48.4777 58.5485 50.6792 58.5485 52.8806C58.546 53.4101 58.7017 53.9282 58.9958 54.3685C59.2899 54.8087 59.7088 55.1511 60.1988 55.3514C60.6888 55.5518 61.2275 55.601 61.7457 55.4928C62.264 55.3847 62.738 55.1238 63.1071 54.7442C63.4529 54.394 63.7209 53.9748 63.8936 53.5137C64.0662 53.0527 64.1396 52.5603 64.1089 52.069V32.8605C64.1089 31.3474 64.5698 30.7963 65.742 30.7963C66.9141 30.7963 67.7457 31.5279 67.7457 32.9207V39.7645V48.171C67.6891 48.6439 67.7836 49.1227 68.0158 49.5385C68.248 49.9543 68.6059 50.2859 69.0381 50.4857C69.4966 50.6981 69.9999 50.7957 70.5045 50.7695C71.009 50.7433 71.4996 50.5942 71.9336 50.3355C73.186 49.6015 73.2057 48.4568 73.2246 47.3583L73.2259 47.2796V32.8703V28.0711C73.2259 27.2494 73.6668 26.5681 74.3881 26.548C75.1405 26.5523 75.8688 26.8137 76.452 27.2892C76.8026 27.5898 76.8026 28.3914 76.8026 28.9625V38.8124C76.8026 39.2533 76.8728 39.9048 77.1533 40.0952C77.7179 40.5542 78.4299 40.7927 79.157 40.7665C79.6249 40.6485 80.0345 40.3657 80.3106 39.97C80.5866 39.5742 80.7107 39.0917 80.6599 38.6118C80.6255 35.7041 80.5967 32.7965 80.568 29.8897V29.8893V29.8883C80.5295 26.0039 80.491 22.1211 80.4394 18.2413C80.3659 15.6967 79.5854 13.2225 78.1852 11.0966C77.7384 10.42 77.3719 9.69399 77.0932 8.93258C76.7368 7.84196 76.4464 6.73093 76.1497 5.59606L76.1496 5.59577L76.1494 5.59485C76.0291 5.13485 75.9079 4.67094 75.7807 4.20288L55.5028 4.17303ZM21.359 97.4701C20.4698 97.428 19.5818 97.5763 18.7542 97.9046C17.9267 98.2329 17.1787 98.7335 16.56 99.3738C15.6092 100.528 15.1383 102.004 15.2446 103.496C15.3509 104.988 16.0262 106.382 17.1311 107.39C18.1517 108.413 19.1738 109.435 20.196 110.457L20.1996 110.461C22.7687 113.029 25.3378 115.598 27.8812 118.192C28.5925 118.913 29.0033 118.893 29.6946 118.192C31.8014 116.048 33.9307 113.923 36.0595 111.798L36.06 111.798C37.4135 110.447 38.7668 109.096 40.1141 107.741C40.5826 107.276 41.0115 106.774 41.3965 106.238C42.1603 105.116 42.491 103.755 42.327 102.408C42.163 101.061 41.5155 99.8186 40.5048 98.9129C39.4307 97.9638 38.0404 97.4509 36.6073 97.475C35.1742 97.4991 33.8019 98.0584 32.7603 99.0431C32.3438 99.4503 31.9361 99.8641 31.5289 100.277C31.0644 100.749 30.6006 101.22 30.1254 101.679C29.966 101.881 29.7628 102.044 29.5311 102.157C29.2995 102.269 29.0454 102.328 28.7879 102.328C28.5304 102.328 28.2763 102.269 28.0446 102.157C27.813 102.044 27.6098 101.881 27.4504 101.679C26.6389 100.907 25.8474 100.105 25.0759 99.3039C24.1164 98.2406 22.7866 97.5845 21.359 97.4701ZM58.8892 86.5781L65.9924 86.0473L62.7063 82.7506L58.8892 86.5781ZM107.445 33.9166L107.449 33.9127L107.45 33.9124C108.744 32.5977 110.005 31.3165 111.295 30.0645C111.725 29.6437 112.296 29.1126 112.817 29.0625C113.536 29.0866 114.222 29.3675 114.751 29.8541C115.492 30.5756 114.992 31.5177 114.461 32.0587C112.325 34.24 110.124 36.34 107.924 38.4394L107.924 38.4395L107.187 39.1428C107.05 39.3005 106.878 39.425 106.686 39.5063C106.493 39.5876 106.284 39.6236 106.075 39.612C105.867 39.6004 105.663 39.5415 105.481 39.4393C105.298 39.3371 105.142 39.1944 105.023 39.0224C103.465 37.4571 101.897 35.9 100.329 34.3427L100.329 34.3425C97.3005 31.3341 94.2713 28.3251 91.3072 25.255C88.2215 22.0586 88.3918 16.427 91.3673 13.1605C92.2254 12.1689 93.2892 11.3766 94.4849 10.8384C95.6806 10.3002 96.9792 10.0291 98.2903 10.0443C99.5582 10.0324 100.815 10.2805 101.983 10.7733C103.152 11.2662 104.207 11.9934 105.083 12.91C105.368 13.2295 105.635 13.5639 105.884 13.912C107.267 12.7832 108.745 11.7773 110.303 10.9059C113.689 9.3428 116.935 9.90416 119.921 12.1487C121.013 12.9609 121.898 14.0196 122.504 15.2384C123.109 16.4572 123.419 17.8017 123.407 19.1627C123.42 20.6778 123.074 22.1742 122.396 23.5294C121.719 24.8846 120.73 26.0596 119.51 26.9582C119.169 27.2746 118.718 27.4463 118.253 27.4367C117.788 27.427 117.345 27.2371 117.017 26.9068C116.69 26.5765 116.503 26.1318 116.497 25.6665C116.491 25.2013 116.666 24.7516 116.985 24.413C117.191 24.1774 117.412 23.9506 117.633 23.7231L117.633 23.723C117.938 23.4087 118.245 23.0929 118.518 22.75C119.146 22.0501 119.571 21.1923 119.747 20.269C119.924 19.3456 119.845 18.3916 119.52 17.5095C119.184 16.5542 118.602 15.7047 117.832 15.0471C117.062 14.3894 116.132 13.9468 115.136 13.7647C114.14 13.5826 113.114 13.6672 112.161 14.0098C111.209 14.3524 110.364 14.9412 109.712 15.7159C108.892 16.5732 108.015 17.373 107.087 18.1103C106.948 18.2386 106.783 18.3367 106.605 18.398C106.426 18.4594 106.236 18.483 106.047 18.467C105.859 18.451 105.676 18.3957 105.51 18.3051C105.344 18.2144 105.198 18.09 105.083 17.9401C104.036 16.8562 102.929 15.8325 101.767 14.8739C101.044 14.2753 100.181 13.8697 99.2582 13.6947C98.3359 13.5198 97.3843 13.5812 96.4921 13.8733C95.5999 14.1654 94.7962 14.679 94.1559 15.3656C93.5155 16.0522 93.0594 16.8897 92.8301 17.8001C92.5468 18.6722 92.5044 19.6042 92.7072 20.4984C92.91 21.3926 93.3505 22.2157 93.9822 22.8802C97.3187 26.3003 100.69 29.6514 104.118 33.0596L104.119 33.0603C104.819 33.7557 105.521 34.4535 106.225 35.1548C106.636 34.7387 107.043 34.3261 107.445 33.9166ZM23.2907 15.1058C20.9263 15.0156 19.0327 16.1081 17.2795 17.9117C17.0045 17.5867 16.7066 17.2818 16.3878 16.9997C15.1268 15.8534 13.4993 15.193 11.7962 15.1361C10.0931 15.0792 8.42516 15.6295 7.09043 16.689C3.44362 19.6249 3.36345 24.6152 6.69969 27.9519L15.7766 36.97C15.9571 37.2164 16.1932 37.4165 16.4656 37.5546C16.738 37.6928 17.0391 37.765 17.3446 37.765C17.65 37.765 17.9512 37.6928 18.2236 37.5546C18.496 37.4165 18.732 37.2164 18.9125 36.97C19.8454 36.0369 20.7757 35.1021 21.706 34.1674C23.9326 31.9299 26.159 29.6928 28.4203 27.4807C29.4624 26.4602 30.1677 25.1456 30.4417 23.7129C30.7157 22.2802 30.5452 20.7977 29.9531 19.4646C29.3896 18.1667 28.4583 17.0624 27.2743 16.2878C26.0904 15.5132 24.7055 15.1022 23.2907 15.1058ZM20.5584 30.2443C19.4794 31.318 18.3876 32.4045 17.2795 33.5128H17.2695C16.26 32.4583 15.2529 31.4144 14.249 30.3739C12.3436 28.399 10.4498 26.4361 8.57318 24.4345C7.71157 23.4927 7.77169 21.3283 8.57318 20.1359C9.00022 19.5743 9.57899 19.1467 10.2412 18.9034C10.9033 18.6602 11.6212 18.6119 12.3102 18.7635C13.6244 19.1031 14.7622 19.9259 15.4961 21.0679C16.7685 22.6511 18.0709 22.2904 19.4335 21.0679C20.286 20.2223 21.2582 19.5064 22.3189 18.9435C23.0722 18.6647 23.9006 18.666 24.6529 18.9475C25.4052 19.2289 26.0312 19.772 26.4165 20.4769C26.8441 21.1379 27.0362 21.9237 26.9616 22.7074C26.8871 23.4912 26.5503 24.2271 26.0058 24.7956C24.2159 26.6048 22.4059 28.4058 20.5584 30.2443Z" fill="#585454"/>
</svg>
