<svg width="96" height="122" viewBox="0 0 96 122" fill="none" xmlns="http://www.w3.org/2000/svg">
<path fill-rule="evenodd" clip-rule="evenodd" d="M95.1801 95.5495C94.5855 91.4525 92.7538 87.6347 89.9303 84.6074C87.7858 82.3136 85.5843 80.0748 83.3855 77.8386L83.3851 77.8382C80.7046 75.1121 78.0279 72.3901 75.4632 69.5772C71.1874 64.6608 67.9409 58.9368 65.9154 52.7437C63.8173 47.0253 62.6535 41.0063 62.4689 34.9179C62.4206 34.5978 62.4715 34.2704 62.6148 33.9802C62.7581 33.6899 62.987 33.4506 63.2705 33.2945C64.0227 32.7473 64.6969 32.1001 65.2742 31.3707C66.604 29.7901 67.2812 27.762 67.1678 25.6994C67.1944 24.4828 66.9615 23.2743 66.4847 22.1547C66.0079 21.0351 65.2981 20.0302 64.4026 19.2064C64.092 18.9258 63.6812 18.4147 63.7413 18.084C63.9901 16.7647 64.2857 15.4586 64.5817 14.1506L64.5817 14.1504L64.5819 14.1496L64.5819 14.1495C64.7984 13.1929 65.0152 12.2352 65.214 11.2703C65.646 9.79158 65.8122 8.2479 65.7049 6.71111C64.8534 2.1219 61.928 0.699044 58.0207 0.699044C51.6619 0.554944 45.294 0.622681 38.9345 0.690328L38.1135 0.699044C36.932 0.65399 35.7572 0.895812 34.6895 1.40358C33.6217 1.91135 32.6928 2.67014 31.982 3.61505C30.9616 4.83946 30.4617 6.41493 30.5894 8.00374C30.9332 10.531 31.535 13.0214 32.1356 15.5066L32.1357 15.5068L32.1357 15.5071L32.1358 15.5073C32.2352 15.9187 32.3346 16.33 32.4328 16.7412C32.5967 17.2693 32.6054 17.8334 32.458 18.3663C32.3106 18.8992 32.0133 19.3786 31.6013 19.7473C30.6261 20.812 29.9256 22.0988 29.5607 23.4958C29.1958 24.8928 29.1774 26.3577 29.5073 27.7634C30.0215 30.1731 31.4604 32.2851 33.5148 33.6453C33.6366 33.7668 33.7317 33.9124 33.7939 34.0729C33.856 34.2334 33.8837 34.4052 33.8754 34.5771C33.8666 35.9164 33.7864 37.2543 33.635 38.5851C33.5722 39.0283 33.5107 39.4723 33.4492 39.9165L33.449 39.9184C33.1379 42.1653 32.8261 44.4182 32.3326 46.6012C31.4068 50.5631 30.0635 54.4157 28.3251 58.0942C25.8646 63.4316 22.5367 68.3242 18.4767 72.5732C16.7912 74.36 15.042 76.1025 13.2901 77.8477L13.29 77.8478L13.2897 77.8481L13.2893 77.8485C10.8759 80.2526 8.45744 82.6618 6.19369 85.1987C1.28451 90.6897 -0.10803 97.3229 1.49497 104.397C3.33841 112.473 8.34781 117.974 16.1825 120.78C17.139 121.119 18.1484 121.361 19.1435 121.599L19.1437 121.599L19.1438 121.599C19.6494 121.72 20.1513 121.841 20.6407 121.972H75.6035C77.4129 121.594 79.1992 121.112 80.9535 120.53C85.8875 118.726 90.028 115.241 92.6481 110.688C95.2682 106.134 96.2002 100.802 95.2803 95.6295L95.1801 95.5495ZM38.5041 5.36857H57.7802C58.5004 5.34452 59.2164 5.48494 59.8741 5.77931C60.3558 6.04763 60.7287 6.47583 60.9281 6.98999C61.1275 7.50414 61.1409 8.07198 60.9661 8.59502C60.6684 9.89066 60.3788 11.1972 60.0818 12.5373L60.0817 12.5377L60.0817 12.5378L60.0814 12.539C59.8089 13.7687 59.5301 15.0266 59.2329 16.3305H37.1216C36.9587 15.5814 36.7849 14.8176 36.6086 14.0428L36.6086 14.0427C36.2214 12.3405 35.822 10.585 35.4985 8.81543C35.0276 6.24026 35.9894 5.32845 38.5041 5.32845V5.36857ZM38.5041 21.0299C44.7491 20.9698 50.9875 20.9698 57.2191 21.0299C57.8506 20.9726 58.4871 21.0433 59.0907 21.2376C59.6942 21.4318 60.2526 21.7457 60.7322 22.1606C61.2117 22.5754 61.6027 23.0827 61.8819 23.6521C62.1611 24.2215 62.3227 24.8411 62.357 25.4743C62.3914 26.1076 62.2978 26.7412 62.0818 27.3375C61.8659 27.9337 61.532 28.4804 61.1002 28.9447C60.6683 29.409 60.1473 29.7815 59.5682 30.0399C58.9892 30.2983 58.364 30.4375 57.7301 30.4489C55.5723 30.5358 53.4102 30.5068 51.2495 30.4779C50.1697 30.4634 49.0903 30.4489 48.012 30.4489H38.6644C37.4769 30.4536 36.3326 30.0037 35.4663 29.1913C34.6 28.3789 34.0773 27.2656 34.0057 26.0801C33.9306 25.44 33.9921 24.7914 34.1861 24.1768C34.38 23.5622 34.7021 22.9955 35.131 22.5145C35.5598 22.0335 36.0858 21.6491 36.6741 21.3863C37.2625 21.1235 37.8998 20.9882 38.5442 20.9898L38.5041 21.0299ZM29.5775 65.6595C35.0466 56.4427 38.1504 46.0158 38.6127 35.3085H57.6099C58.2161 49.3234 63.396 62.754 72.3574 73.5454C71.6295 73.7056 70.9452 73.8737 70.2854 74.0357L70.2853 74.0358L70.2851 74.0358L70.285 74.0358C69.1286 74.3199 68.0471 74.5856 66.9372 74.7578C65.0671 75.0986 63.167 75.2463 61.2667 75.1986C58.9317 75.0289 56.6115 74.694 54.3237 74.1966C51.1142 73.5489 48.3936 71.8055 45.7229 70.0942L45.5347 69.9736L45.3068 69.8277C42.3649 67.9525 39.0477 66.7453 35.5887 66.2909C34.313 66.1378 33.0656 66.013 31.7924 65.8857C31.0659 65.8131 30.331 65.7396 29.5775 65.6595ZM88.6679 107.724C87.3927 110.19 85.5443 112.315 83.278 113.919C81.0116 115.523 78.3936 116.56 75.6436 116.942C74.6489 117.096 73.6444 117.176 72.638 117.183H48.0019H22.8849C19.1743 117.163 15.5731 115.923 12.6358 113.656C10.6898 112.255 9.05985 110.46 7.8517 108.389C6.64354 106.318 5.88411 104.015 5.62268 101.632C5.23553 99.2284 5.39472 96.7689 6.08851 94.4357C6.7823 92.1025 7.99286 89.9556 9.63017 88.1546C12.5668 84.9853 15.6151 81.9139 18.6609 78.8451L18.661 78.845C20.0834 77.4118 21.5053 75.9792 22.915 74.5374C23.566 73.9732 24.1329 73.3184 24.5982 72.5933C24.9026 72.0374 25.3481 71.5716 25.8898 71.2427C26.4315 70.9137 27.0503 70.7333 27.6839 70.7197C33.1756 69.8968 38.778 71.1237 43.4233 74.1665C46.8166 76.577 50.6598 78.2808 54.7245 79.1766C57.2648 79.7259 59.8603 79.9781 62.4589 79.9281C66.7295 79.8613 70.9576 79.0683 74.9622 77.5833C75.2297 77.4369 75.5404 77.39 75.8392 77.4505C76.1381 77.511 76.4058 77.6751 76.5953 77.914C77.716 79.0455 78.8491 80.1646 79.982 81.2835L79.9827 81.2842L79.9834 81.2849L79.9841 81.2856L79.9841 81.2856L79.9842 81.2857L79.9842 81.2857C82.0811 83.3568 84.1774 85.4272 86.1933 87.5736C88.4441 89.9718 89.9117 92.9983 90.4011 96.2509C91.1938 100.137 90.6131 104.178 88.758 107.684L88.6679 107.724ZM66.8676 88.7955C65.6455 88.7923 64.4353 89.0347 63.3088 89.5086C62.1823 89.9824 61.1626 90.6781 60.3103 91.5539C59.4579 92.4298 58.7903 93.4679 58.3471 94.6069C57.904 95.746 57.6942 96.9625 57.7305 98.1842C57.7215 99.4584 57.9708 100.721 58.4633 101.896C58.9559 103.072 59.6815 104.135 60.5963 105.022C61.5112 105.909 62.5962 106.601 63.786 107.056C64.9758 107.512 66.2457 107.722 67.5188 107.673C72.408 107.312 76.5357 103.755 76.5357 98.2343C76.5357 92.7133 72.8788 88.8756 66.8676 88.7955ZM67.0379 102.954C66.4205 102.941 65.8117 102.806 65.2469 102.556C64.6821 102.306 64.1724 101.946 63.7475 101.498C63.3226 101.05 62.9908 100.521 62.7714 99.9441C62.552 99.3667 62.4493 98.7514 62.4693 98.134C62.4397 97.5426 62.5294 96.9514 62.7333 96.3954C62.9371 95.8395 63.2508 95.3304 63.6556 94.8983C64.0605 94.4663 64.5482 94.1203 65.0897 93.8809C65.6312 93.6415 66.2154 93.5136 66.8074 93.5049C69.9333 93.5049 71.8168 95.2984 71.8168 98.2143C71.8194 98.8423 71.698 99.4646 71.4595 100.046C71.2211 100.627 70.8703 101.155 70.4272 101.6C69.9841 102.045 69.4575 102.398 68.8776 102.639C68.2977 102.88 67.6759 103.004 67.048 103.004L67.0379 102.954ZM33.4194 79.8457C34.258 79.4916 35.1598 79.3116 36.0702 79.3165C40.5385 79.3566 43.3638 82.1119 43.4239 86.3705C43.4352 88.1789 42.7547 89.9233 41.5215 91.246C40.2884 92.5687 38.5961 93.3698 36.7915 93.4849C32.6037 93.9258 28.9569 89.8377 29.3176 86.3306C29.2782 85.421 29.4239 84.5128 29.746 83.6612C30.0681 82.8096 30.5598 82.0322 31.1912 81.3763C31.8226 80.7205 32.5807 80.1998 33.4194 79.8457ZM34.551 87.9002C34.9357 88.3564 35.4781 88.651 36.0702 88.7253H36.1003C36.7495 88.7088 37.3712 88.4601 37.8528 88.0244C38.3344 87.5887 38.6439 86.9948 38.7252 86.3504C38.6309 85.7447 38.3407 85.1868 37.8993 84.7616C37.4578 84.3363 36.8893 84.0674 36.2805 83.9959C35.6842 84.0173 35.1179 84.2626 34.6942 84.6828C34.2705 85.103 34.0204 85.6674 33.9939 86.2636C33.9674 86.8598 34.1663 87.444 34.551 87.9002ZM10.2621 99.447C10.248 97.7827 10.5659 96.1324 11.1972 94.5925C11.8285 93.0526 12.7607 91.6542 13.939 90.479C14.3717 89.9849 14.9824 89.6823 15.6376 89.6372C16.2928 89.5922 16.9393 89.8083 17.4355 90.2385C17.8377 90.7222 18.0528 91.3343 18.0418 91.9632C18.0307 92.5921 17.7942 93.1961 17.3754 93.6654C15.8424 95.3139 15.0154 97.497 15.0711 99.7476C15.1597 101.502 15.7943 103.186 16.8865 104.562C17.9787 105.938 19.4738 106.938 21.1625 107.423C21.6023 107.533 22.0557 107.597 22.5098 107.662C23.0074 107.732 23.5058 107.803 23.9877 107.934C25.2801 108.285 25.751 109.177 25.5306 110.64C25.3891 111.137 25.0937 111.576 24.6869 111.895C24.2801 112.213 23.7828 112.395 23.2664 112.413C17.3153 112.603 11.9452 108.104 10.6027 102.313C10.4387 101.364 10.325 100.408 10.2621 99.447ZM29.4572 109.195C29.3523 109.481 29.3052 109.785 29.3186 110.088C29.3047 110.393 29.3537 110.696 29.4626 110.981C29.5714 111.265 29.7377 111.524 29.9511 111.742C30.1646 111.959 30.4205 112.13 30.703 112.243C30.9854 112.357 31.2884 112.411 31.5927 112.403C32.2069 112.382 32.792 112.136 33.2357 111.711C33.6794 111.285 33.9504 110.711 33.997 110.098C34.1673 109.056 32.6847 107.693 31.5426 107.693C31.2387 107.702 30.9395 107.772 30.6626 107.897C30.3857 108.023 30.1365 108.203 29.9296 108.425C29.7227 108.648 29.5621 108.91 29.4572 109.195Z" fill="#585454"/>
</svg>
