<svg width="276" height="85" viewBox="0 0 276 85" fill="none" xmlns="http://www.w3.org/2000/svg">
<path d="M22.619 83.7004C10.8762 83.7004 1.75293 74.7278 1.75293 63.6275C1.75293 52.5272 10.8762 43.675 22.619 43.675C27.8464 43.6755 32.8962 45.5727 36.8307 49.0144L31.13 55.3775C30.018 54.2699 28.698 53.3929 27.2461 52.797C25.7941 52.201 24.2387 51.8979 22.6691 51.9049C21.0922 51.8589 19.522 52.1297 18.0516 52.7014C16.5812 53.2731 15.2405 54.134 14.1088 55.2332C12.9771 56.3323 12.0774 57.6474 11.4631 59.1004C10.8487 60.5535 10.5322 62.1151 10.5322 63.6927C10.5322 65.2703 10.8487 66.8319 11.4631 68.285C12.0774 69.7381 12.9771 71.0531 14.1088 72.1523C15.2405 73.2514 16.5812 74.1123 18.0516 74.684C19.522 75.2557 21.0922 75.5266 22.6691 75.4805C24.8221 75.4693 26.9136 74.7612 28.6305 73.4622C30.3475 72.1632 31.5976 70.3431 32.1938 68.2744H22.9201L25.931 61.0682H41.7487V63.5974C41.6583 74.8783 33.2979 83.7004 22.619 83.7004Z" fill="#606060"/>
<path d="M106.865 53.4104C105.189 52.1871 103.188 51.4886 101.114 51.4031C98.545 51.4031 97.2904 52.4068 97.2904 53.9223C97.2904 55.779 99.1472 57.0436 102.58 60.1649C108.602 65.6047 110.609 68.7863 110.609 72.7105C110.609 79.2141 104.768 83.0882 97.4108 83.0882C93.723 83.0711 90.0927 82.173 86.8223 80.4687L89.9537 73.5736C92.1835 74.9593 94.737 75.7378 97.3606 75.8318C99.93 75.8318 101.486 74.4769 101.486 72.8209C101.486 70.9039 99.6791 69.1978 96.0961 65.966C90.0741 60.727 87.9363 58.3082 87.9363 53.9223C87.9363 48.904 91.9509 44.1468 100.934 44.1468C104.119 44.2502 107.239 45.0774 110.057 46.5655L106.865 53.4104Z" fill="#606060"/>
<path d="M123.637 52.9586H117.193V44.9295H139.013V52.9586H132.61V82.4859H123.637V52.9586Z" fill="#606060"/>
<path d="M157.4 69.9405H156.848V82.486H147.875V44.8995H158.664C166.071 44.8995 173.428 47.6194 173.428 57.6458C173.428 62.664 170.417 66.1065 166.573 68.0235L177.051 82.486H166.322L157.4 69.9405ZM156.848 52.8785V62.9149H158.915C162.438 62.9149 164.556 61.0983 164.556 57.8265C164.556 54.5546 162.237 52.8885 158.915 52.8885L156.848 52.8785Z" fill="#606060"/>
<path d="M185.863 44.8995H194.836V82.486H185.863V44.8995Z" fill="#606060"/>
<path d="M210.152 52.9586H203.759V44.9295H225.568V52.9586H219.175V82.4859H210.202L210.152 52.9586Z" fill="#606060"/>
<path d="M234.391 44.8995H243.363V82.486H234.391V44.8995Z" fill="#606060"/>
<path d="M272.127 53.4104C270.454 52.1874 268.456 51.4887 266.386 51.4031C263.817 51.4031 262.552 52.4068 262.552 53.9223C262.552 55.779 264.419 57.0436 267.841 60.1649C273.863 65.6047 275.871 68.7863 275.871 72.7105C275.871 79.2141 270.019 83.0882 262.663 83.0882C258.978 83.0718 255.351 82.1736 252.084 80.4687L255.205 73.5736C257.435 74.9593 259.989 75.7378 262.612 75.8318C265.182 75.8318 266.747 74.4769 266.747 72.8209C266.747 70.9039 264.931 69.1978 261.358 65.966C255.336 60.727 253.188 58.3082 253.188 53.9223C253.188 48.904 257.203 44.1468 266.236 44.1468C269.418 44.2503 272.534 45.0775 275.349 46.5655L272.127 53.4104Z" fill="#606060"/>
<path d="M0.407227 1.84303H15.4019V3.73992H2.56508V15.6231H14.5387V17.53H2.56508V32.1832H15.7431V34.0801H0.407227V1.84303Z" fill="#606060"/>
<path d="M27.3759 5.20524V34.1203H25.208V1.84303H27.6268L47.6999 30.2362V1.84303H49.8578V34.0801H47.7401L27.3759 5.20524Z" fill="#606060"/>
<path d="M86.3311 5.24541C84.6104 3.96878 82.5495 3.23174 80.4095 3.12772C75.7826 3.12772 74.6585 6.24905 74.6585 7.88499C74.6585 10.5246 76.2644 12.3813 80.8411 15.4926C86.6321 19.5574 89.3119 22.3174 89.3119 26.0409C89.3119 31.571 84.9962 34.6422 79.8073 34.6422C76.739 34.5343 73.7667 33.5447 71.2461 31.7918L72.2799 29.9451C74.4397 31.6279 77.0632 32.6087 79.7973 32.7553C84.4241 32.7553 87.0637 29.7444 87.0637 26.1915C87.0637 23.0802 84.7654 20.7818 79.6266 17.2892C74.4377 13.6158 72.4505 11.3676 72.4505 8.03554C72.4505 4.70344 74.9998 1.2509 80.3191 1.2509C82.8479 1.30476 85.3077 2.08521 87.405 3.49907L86.3311 5.24541Z" fill="#606060"/>
<path d="M98.5957 1.84303H113.59V3.73992H100.754V15.6231H112.727V17.53H100.754V32.1832H113.942V34.0801H98.5957V1.84303Z" fill="#606060"/>
<path d="M125.644 19.3868H125.563V34.1203H123.396V1.84303H129.628C137.146 1.84303 139.665 6.20889 139.665 10.2235C139.665 15.5428 135.56 19.3466 128.946 19.3466H128.514L142.997 34.0801H140.187L125.644 19.3868ZM125.563 3.85032V17.5099H129.237C134.466 17.5099 137.537 14.3083 137.537 10.2937C137.537 7.57384 135.67 3.85032 129.628 3.85032H125.563Z" fill="#606060"/>
<path d="M151.357 1.84303H153.575V34.0801H151.408L151.357 1.84303Z" fill="#606060"/>
<path d="M197.947 17.9616C198.045 21.4659 197.095 24.9197 195.219 27.881C193.342 30.8422 190.625 33.1762 187.414 34.5842C184.204 35.9922 180.646 36.4102 177.197 35.7847C173.747 35.1592 170.563 33.5186 168.051 31.0729C165.54 28.6273 163.815 25.4878 163.098 22.0562C162.381 18.6247 162.704 15.0572 164.026 11.8105C165.348 8.56367 167.609 5.78526 170.52 3.83082C173.43 1.87638 176.857 0.834822 180.363 0.839448C184.964 0.783153 189.399 2.55431 192.696 5.7643C195.992 8.97428 197.881 13.3609 197.947 17.9616ZM164.887 17.9616C164.825 21.0254 165.676 24.0382 167.333 26.6163C168.989 29.1945 171.376 31.2213 174.188 32.4386C177 33.6559 180.111 34.0086 183.124 33.4519C186.138 32.8951 188.917 31.454 191.109 29.3122C193.3 27.1704 194.805 24.4247 195.431 21.425C196.056 18.4252 195.775 15.307 194.623 12.4676C193.47 9.62816 191.499 7.19601 188.959 5.48089C186.42 3.76577 183.427 2.84529 180.363 2.8367C176.33 2.84036 172.458 4.41594 169.568 7.22882C166.678 10.0417 164.999 13.8703 164.887 17.9014V17.9616Z" fill="#606060"/>
<path d="M209.058 29.6239L206.047 40.4332H204.542L206.359 29.6239H209.058Z" fill="#606060"/>
<path d="M230.627 1.84303H245.622V3.73992H232.785V15.6231H244.758V17.53H232.785V32.1832H245.963V34.0801H230.627V1.84303Z" fill="#606060"/>
<path d="M268.433 5.24546C266.715 3.97069 264.658 3.23374 262.522 3.12776C257.895 3.12776 256.771 6.2491 256.771 7.88504C256.771 10.5246 258.367 12.3814 262.953 15.4927C268.744 19.5574 271.424 22.3175 271.424 26.041C271.424 31.5711 267.098 34.6422 261.91 34.6422C258.844 34.5341 255.875 33.5445 253.358 31.7919L254.432 29.9251C256.593 31.6062 259.216 32.5867 261.95 32.7353C266.577 32.7353 269.216 29.7244 269.216 26.1715C269.216 23.0602 266.928 20.7618 261.779 17.2691C256.6 13.5958 254.603 11.3476 254.603 8.01552C254.603 4.68342 257.162 1.23087 262.472 1.23087C265 1.28473 267.46 2.06518 269.557 3.47904L268.433 5.24546Z" fill="#606060"/>
<path d="M61.6306 34.1203C62.4589 34.8666 63.2463 35.6573 63.9892 36.4889C66.3187 39.2864 67.8204 42.6791 68.325 46.2844C68.5859 48.1311 68.616 50.008 68.7264 51.8848C68.7549 53.3815 68.9879 54.8673 69.4189 56.3008C69.5954 56.8128 69.8456 57.2963 70.1617 57.736C70.6735 58.4185 71.3359 58.3583 71.7876 57.6156C72.2355 56.7894 72.4733 55.8656 72.4801 54.9258C72.4801 54.2333 72.4801 53.5408 72.4801 52.8483C72.4801 52.5271 72.4801 52.216 72.8213 52.0554C73.1626 51.8948 73.3834 52.1257 73.5942 52.3364C75.0997 53.8413 76.2934 55.6285 77.107 57.5955C78.6615 60.9444 79.5869 64.5506 79.8369 68.2342C80.2194 72.2856 79.1913 76.345 76.9263 79.7259C75.4892 81.7471 73.5714 83.3786 71.346 84.4731C71.2334 84.5143 71.1125 84.5276 70.9936 84.5118C70.8748 84.4961 70.7615 84.4518 70.6635 84.3828C70.6087 84.2738 70.5802 84.1535 70.5802 84.0315C70.5802 83.9096 70.6087 83.7893 70.6635 83.6803C71.3639 82.4673 71.8272 81.1321 72.0285 79.746C72.343 77.2819 71.9387 74.7794 70.8642 72.5398C70.205 71.0705 69.4157 69.6631 68.5056 68.3345C66.2443 65.1362 64.5283 61.5854 63.4271 57.8264C63.3866 57.7134 63.3397 57.6028 63.2866 57.4952C62.584 58.9203 61.8815 60.2753 61.2291 61.6603C59.6032 65.163 57.907 68.6858 56.4116 72.1885C55.6114 73.9795 55.2608 75.9387 55.3903 77.896C55.5197 79.8533 56.1252 81.7493 57.1543 83.4193C57.345 83.7505 57.7263 84.1118 57.3048 84.5133C56.8833 84.9147 56.5621 84.5133 56.2409 84.3527C54.1165 83.1239 52.307 81.4178 50.9553 79.3694C49.6036 77.321 48.7468 74.9863 48.4526 72.5498C48.0667 69.1125 48.6508 65.6359 50.1387 62.5134C51.0266 60.5668 52.113 58.717 53.3805 56.9933C55.9966 53.4042 58.0289 49.4241 59.4025 45.2005C60.4981 41.9033 60.9878 38.435 60.8477 34.9633C60.8099 34.7936 60.8276 34.6162 60.898 34.4573C60.9685 34.2983 61.088 34.1661 61.2391 34.0801L61.6306 34.1203Z" fill="url(#paint0_linear_98_3)"/>
<defs>
<linearGradient id="paint0_linear_98_3" x1="59.282" y1="89.3509" x2="71.2152" y2="41.9687" gradientUnits="userSpaceOnUse">
<stop offset="0.01" stop-color="#E68004"/>
<stop offset="1" stop-color="#EED5B4"/>
</linearGradient>
</defs>
</svg>
